<svg xmlns="http://www.w3.org/2000/svg" xmlns:xlink="http://www.w3.org/1999/xlink" width="50" zoomAndPan="magnify" viewBox="0 0 37.5 37.499999" height="50" preserveAspectRatio="xMidYMid meet" version="1.0"><defs><clipPath id="87f26c59e9"><path d="M 5 2.503906 L 32.378906 2.503906 L 32.378906 34.328125 L 5 34.328125 Z M 5 2.503906 " clip-rule="nonzero"/></clipPath><clipPath id="70650865a9"><path d="M 15.339844 19.703125 L 21.664062 19.703125 L 21.664062 26.03125 L 15.339844 26.03125 Z M 15.339844 19.703125 " clip-rule="nonzero"/></clipPath><clipPath id="212eb62cbe"><path d="M 18.503906 19.703125 C 16.757812 19.703125 15.339844 21.121094 15.339844 22.867188 C 15.339844 24.613281 16.757812 26.03125 18.503906 26.03125 C 20.25 26.03125 21.664062 24.613281 21.664062 22.867188 C 21.664062 21.121094 20.25 19.703125 18.503906 19.703125 Z M 18.503906 19.703125 " clip-rule="nonzero"/></clipPath><clipPath id="2e9d3a94bd"><path d="M 15.339844 19.703125 L 21.65625 19.703125 L 21.65625 26.019531 L 15.339844 26.019531 Z M 15.339844 19.703125 " clip-rule="nonzero"/></clipPath><clipPath id="8f49fddf1d"><path d="M 18.496094 19.703125 C 16.753906 19.703125 15.339844 21.117188 15.339844 22.863281 C 15.339844 24.605469 16.753906 26.019531 18.496094 26.019531 C 20.242188 26.019531 21.65625 24.605469 21.65625 22.863281 C 21.65625 21.117188 20.242188 19.703125 18.496094 19.703125 Z M 18.496094 19.703125 " clip-rule="nonzero"/></clipPath><clipPath id="9204a5a75c"><path d="M 20.742188 14.304688 L 27.066406 14.304688 L 27.066406 20.628906 L 20.742188 20.628906 Z M 20.742188 14.304688 " clip-rule="nonzero"/></clipPath><clipPath id="4a833ff85e"><path d="M 23.902344 14.304688 C 22.15625 14.304688 20.742188 15.71875 20.742188 17.46875 C 20.742188 19.214844 22.15625 20.628906 23.902344 20.628906 C 25.648438 20.628906 27.066406 19.214844 27.066406 17.46875 C 27.066406 15.71875 25.648438 14.304688 23.902344 14.304688 Z M 23.902344 14.304688 " clip-rule="nonzero"/></clipPath><clipPath id="60c3801ae5"><path d="M 20.742188 14.304688 L 27.054688 14.304688 L 27.054688 20.617188 L 20.742188 20.617188 Z M 20.742188 14.304688 " clip-rule="nonzero"/></clipPath><clipPath id="ced7c6d2ba"><path d="M 23.898438 14.304688 C 22.152344 14.304688 20.742188 15.71875 20.742188 17.460938 C 20.742188 19.207031 22.152344 20.617188 23.898438 20.617188 C 25.640625 20.617188 27.054688 19.207031 27.054688 17.460938 C 27.054688 15.71875 25.640625 14.304688 23.898438 14.304688 Z M 23.898438 14.304688 " clip-rule="nonzero"/></clipPath><clipPath id="beccfbf9ec"><path d="M 9.941406 14.304688 L 16.265625 14.304688 L 16.265625 20.628906 L 9.941406 20.628906 Z M 9.941406 14.304688 " clip-rule="nonzero"/></clipPath><clipPath id="a8dc8b61ee"><path d="M 13.105469 14.304688 C 11.355469 14.304688 9.941406 15.71875 9.941406 17.46875 C 9.941406 19.214844 11.355469 20.628906 13.105469 20.628906 C 14.851562 20.628906 16.265625 19.214844 16.265625 17.46875 C 16.265625 15.71875 14.851562 14.304688 13.105469 14.304688 Z M 13.105469 14.304688 " clip-rule="nonzero"/></clipPath><clipPath id="2d6bb4ad76"><path d="M 9.941406 14.304688 L 16.253906 14.304688 L 16.253906 20.617188 L 9.941406 20.617188 Z M 9.941406 14.304688 " clip-rule="nonzero"/></clipPath><clipPath id="be87b9a5c7"><path d="M 13.097656 14.304688 C 11.355469 14.304688 9.941406 15.71875 9.941406 17.460938 C 9.941406 19.207031 11.355469 20.617188 13.097656 20.617188 C 14.84375 20.617188 16.253906 19.207031 16.253906 17.460938 C 16.253906 15.71875 14.84375 14.304688 13.097656 14.304688 Z M 13.097656 14.304688 " clip-rule="nonzero"/></clipPath><clipPath id="c8f4381a88"><path d="M 15.339844 8.90625 L 21.664062 8.90625 L 21.664062 15.230469 L 15.339844 15.230469 Z M 15.339844 8.90625 " clip-rule="nonzero"/></clipPath><clipPath id="3abc4302bd"><path d="M 18.503906 8.90625 C 16.757812 8.90625 15.339844 10.320312 15.339844 12.066406 C 15.339844 13.8125 16.757812 15.230469 18.503906 15.230469 C 20.25 15.230469 21.664062 13.8125 21.664062 12.066406 C 21.664062 10.320312 20.25 8.90625 18.503906 8.90625 Z M 18.503906 8.90625 " clip-rule="nonzero"/></clipPath><clipPath id="5f5c95ec7e"><path d="M 15.339844 8.90625 L 21.65625 8.90625 L 21.65625 15.21875 L 15.339844 15.21875 Z M 15.339844 8.90625 " clip-rule="nonzero"/></clipPath><clipPath id="13c978b44f"><path d="M 18.496094 8.90625 C 16.753906 8.90625 15.339844 10.320312 15.339844 12.0625 C 15.339844 13.804688 16.753906 15.21875 18.496094 15.21875 C 20.242188 15.21875 21.65625 13.804688 21.65625 12.0625 C 21.65625 10.320312 20.242188 8.90625 18.496094 8.90625 Z M 18.496094 8.90625 " clip-rule="nonzero"/></clipPath></defs><g clip-path="url(#87f26c59e9)"><path fill="#000000" d="M 32.082031 7.136719 C 31.675781 6.683594 31.003906 6.804688 30.460938 6.683594 C 26.546875 6.050781 22.867188 4.480469 19.355469 2.722656 C 19.1875 2.644531 19.011719 2.574219 18.835938 2.515625 L 18.582031 2.515625 C 17.972656 2.695312 17.433594 3.035156 16.859375 3.296875 C 13.777344 4.78125 10.542969 6.0625 7.144531 6.648438 C 6.65625 6.746094 6.148438 6.738281 5.671875 6.878906 C 5.289062 7.042969 5.011719 7.429688 5.03125 7.84375 C 4.992188 10.144531 5.078125 12.445312 5.261719 14.734375 C 5.527344 17.652344 5.953125 20.585938 6.953125 23.355469 C 7.4375 24.640625 8.054688 25.90625 8.984375 26.941406 C 11.519531 29.886719 14.671875 32.300781 18.117188 34.136719 C 18.265625 34.210938 18.417969 34.265625 18.574219 34.3125 L 18.796875 34.3125 C 19.410156 34.144531 19.917969 33.742188 20.480469 33.457031 C 23.152344 31.90625 25.59375 29.976562 27.699219 27.738281 C 28.332031 27.03125 28.988281 26.324219 29.441406 25.492188 C 30.5 23.644531 31.058594 21.574219 31.476562 19.515625 C 32.195312 15.753906 32.382812 11.917969 32.359375 8.101562 C 32.371094 7.761719 32.34375 7.386719 32.082031 7.136719 Z M 30.59375 18.667969 C 30.164062 20.984375 29.605469 23.34375 28.335938 25.371094 C 27.210938 26.96875 25.757812 28.316406 24.269531 29.589844 C 22.554688 31.027344 20.671875 32.257812 18.695312 33.316406 C 15.222656 31.46875 12.046875 29.039062 9.539062 26.035156 C 8.246094 24.414062 7.636719 22.394531 7.152344 20.421875 C 6.21875 16.285156 5.996094 12.023438 6.054688 7.796875 C 10.53125 7.300781 14.714844 5.496094 18.695312 3.515625 C 22.671875 5.496094 26.863281 7.300781 31.339844 7.796875 C 31.394531 11.429688 31.21875 15.082031 30.59375 18.667969 Z M 30.59375 18.667969 " fill-opacity="1" fill-rule="nonzero"/></g><path fill="#000000" d="M 8.066406 9.523438 C 8.140625 13.433594 8.371094 17.390625 9.425781 21.179688 C 9.835938 22.578125 10.367188 23.996094 11.382812 25.089844 C 13.429688 27.488281 15.964844 29.441406 18.695312 31.035156 C 21.601562 29.339844 24.285156 27.226562 26.398438 24.621094 C 27.398438 23.273438 27.871094 21.640625 28.261719 20.039062 C 29.050781 16.59375 29.261719 13.046875 29.320312 9.523438 C 25.601562 8.820312 22.070312 7.398438 18.695312 5.746094 C 15.316406 7.398438 11.789062 8.824219 8.066406 9.523438 Z M 8.066406 9.523438 " fill-opacity="1" fill-rule="nonzero"/><g clip-path="url(#70650865a9)"><g clip-path="url(#212eb62cbe)"><path fill="#000000" d="M 15.339844 19.703125 L 21.664062 19.703125 L 21.664062 26.03125 L 15.339844 26.03125 Z M 15.339844 19.703125 " fill-opacity="1" fill-rule="nonzero"/></g></g><g clip-path="url(#2e9d3a94bd)"><g clip-path="url(#8f49fddf1d)"><path stroke-linecap="butt" transform="matrix(0.740132, 0, 0, 0.740132, 15.340826, 19.704401)" fill="none" stroke-linejoin="miter" d="M 4.263118 -0.00172387 C 1.909229 -0.00172387 -0.00132657 1.908832 -0.00132657 4.267999 C -0.00132657 6.621888 1.909229 8.532443 4.263118 8.532443 C 6.622285 8.532443 8.532841 6.621888 8.532841 4.267999 C 8.532841 1.908832 6.622285 -0.00172387 4.263118 -0.00172387 Z M 4.263118 -0.00172387 " stroke="#ffffff" stroke-width="2" stroke-opacity="1" stroke-miterlimit="4"/></g></g><g clip-path="url(#9204a5a75c)"><g clip-path="url(#4a833ff85e)"><path fill="#000000" d="M 20.742188 14.304688 L 27.066406 14.304688 L 27.066406 20.628906 L 20.742188 20.628906 Z M 20.742188 14.304688 " fill-opacity="1" fill-rule="nonzero"/></g></g><g clip-path="url(#60c3801ae5)"><g clip-path="url(#ced7c6d2ba)"><path stroke-linecap="butt" transform="matrix(0.740132, 0, 0, 0.740132, 20.740587, 14.304642)" fill="none" stroke-linejoin="miter" d="M 4.266607 0.0000616229 C 1.90744 0.0000616229 0.00216188 1.910617 0.00216188 4.264506 C 0.00216188 6.623673 1.90744 8.528951 4.266607 8.528951 C 6.620496 8.528951 8.531051 6.623673 8.531051 4.264506 C 8.531051 1.910617 6.620496 0.0000616229 4.266607 0.0000616229 Z M 4.266607 0.0000616229 " stroke="#ffffff" stroke-width="2" stroke-opacity="1" stroke-miterlimit="4"/></g></g><g clip-path="url(#beccfbf9ec)"><g clip-path="url(#a8dc8b61ee)"><path fill="#000000" d="M 9.941406 14.304688 L 16.265625 14.304688 L 16.265625 20.628906 L 9.941406 20.628906 Z M 9.941406 14.304688 " fill-opacity="1" fill-rule="nonzero"/></g></g><g clip-path="url(#2d6bb4ad76)"><g clip-path="url(#be87b9a5c7)"><path stroke-linecap="butt" transform="matrix(0.740132, 0, 0, 0.740132, 9.941066, 14.304642)" fill="none" stroke-linejoin="miter" d="M 4.264904 0.0000616229 C 1.911015 0.0000616229 0.000459247 1.910617 0.000459247 4.264506 C 0.000459247 6.623673 1.911015 8.528951 4.264904 8.528951 C 6.624071 8.528951 8.529349 6.623673 8.529349 4.264506 C 8.529349 1.910617 6.624071 0.0000616229 4.264904 0.0000616229 Z M 4.264904 0.0000616229 " stroke="#ffffff" stroke-width="2" stroke-opacity="1" stroke-miterlimit="4"/></g></g><g clip-path="url(#c8f4381a88)"><g clip-path="url(#3abc4302bd)"><path fill="#000000" d="M 15.339844 8.90625 L 21.664062 8.90625 L 21.664062 15.230469 L 15.339844 15.230469 Z M 15.339844 8.90625 " fill-opacity="1" fill-rule="nonzero"/></g></g><g clip-path="url(#5f5c95ec7e)"><g clip-path="url(#13c978b44f)"><path stroke-linecap="butt" transform="matrix(0.740132, 0, 0, 0.740132, 15.340826, 8.904882)" fill="none" stroke-linejoin="miter" d="M 4.263118 0.00184872 C 1.909229 0.00184872 -0.00132657 1.912404 -0.00132657 4.266293 C -0.00132657 6.620183 1.909229 8.530738 4.263118 8.530738 C 6.622285 8.530738 8.532841 6.620183 8.532841 4.266293 C 8.532841 1.912404 6.622285 0.00184872 4.263118 0.00184872 Z M 4.263118 0.00184872 " stroke="#ffffff" stroke-width="2" stroke-opacity="1" stroke-miterlimit="4"/></g></g></svg>