<svg xmlns="http://www.w3.org/2000/svg" xmlns:xlink="http://www.w3.org/1999/xlink" width="50" zoomAndPan="magnify" viewBox="0 0 37.5 37.499999" height="50" preserveAspectRatio="xMidYMid meet" version="1.0"><defs><clipPath id="8fd28072d7"><path d="M 5 2.503906 L 32 2.503906 L 32 34.328125 L 5 34.328125 Z M 5 2.503906 " clip-rule="nonzero"/></clipPath><clipPath id="e79b3c900f"><path d="M 15.339844 19.703125 L 21.664062 19.703125 L 21.664062 26.03125 L 15.339844 26.03125 Z M 15.339844 19.703125 " clip-rule="nonzero"/></clipPath><clipPath id="1ac35bb72a"><path d="M 18.503906 19.703125 C 16.757812 19.703125 15.339844 21.121094 15.339844 22.867188 C 15.339844 24.613281 16.757812 26.03125 18.503906 26.03125 C 20.25 26.03125 21.664062 24.613281 21.664062 22.867188 C 21.664062 21.121094 20.25 19.703125 18.503906 19.703125 Z M 18.503906 19.703125 " clip-rule="nonzero"/></clipPath><clipPath id="cff4182156"><path d="M 15.339844 19.703125 L 21.65625 19.703125 L 21.65625 26.019531 L 15.339844 26.019531 Z M 15.339844 19.703125 " clip-rule="nonzero"/></clipPath><clipPath id="7355b2a25f"><path d="M 18.496094 19.703125 C 16.753906 19.703125 15.339844 21.117188 15.339844 22.863281 C 15.339844 24.605469 16.753906 26.019531 18.496094 26.019531 C 20.242188 26.019531 21.65625 24.605469 21.65625 22.863281 C 21.65625 21.117188 20.242188 19.703125 18.496094 19.703125 Z M 18.496094 19.703125 " clip-rule="nonzero"/></clipPath><clipPath id="e5cfa528c0"><path d="M 20.742188 14.304688 L 27.066406 14.304688 L 27.066406 20.628906 L 20.742188 20.628906 Z M 20.742188 14.304688 " clip-rule="nonzero"/></clipPath><clipPath id="582a3d0f1e"><path d="M 23.902344 14.304688 C 22.15625 14.304688 20.742188 15.71875 20.742188 17.46875 C 20.742188 19.214844 22.15625 20.628906 23.902344 20.628906 C 25.648438 20.628906 27.066406 19.214844 27.066406 17.46875 C 27.066406 15.71875 25.648438 14.304688 23.902344 14.304688 Z M 23.902344 14.304688 " clip-rule="nonzero"/></clipPath><clipPath id="aed6262e12"><path d="M 20.742188 14.304688 L 27.054688 14.304688 L 27.054688 20.617188 L 20.742188 20.617188 Z M 20.742188 14.304688 " clip-rule="nonzero"/></clipPath><clipPath id="e9bed6852c"><path d="M 23.898438 14.304688 C 22.152344 14.304688 20.742188 15.71875 20.742188 17.460938 C 20.742188 19.207031 22.152344 20.617188 23.898438 20.617188 C 25.640625 20.617188 27.054688 19.207031 27.054688 17.460938 C 27.054688 15.71875 25.640625 14.304688 23.898438 14.304688 Z M 23.898438 14.304688 " clip-rule="nonzero"/></clipPath><clipPath id="74f7bc215e"><path d="M 9.941406 14.304688 L 16.265625 14.304688 L 16.265625 20.628906 L 9.941406 20.628906 Z M 9.941406 14.304688 " clip-rule="nonzero"/></clipPath><clipPath id="d77eb058d2"><path d="M 13.105469 14.304688 C 11.355469 14.304688 9.941406 15.71875 9.941406 17.46875 C 9.941406 19.214844 11.355469 20.628906 13.105469 20.628906 C 14.851562 20.628906 16.265625 19.214844 16.265625 17.46875 C 16.265625 15.71875 14.851562 14.304688 13.105469 14.304688 Z M 13.105469 14.304688 " clip-rule="nonzero"/></clipPath><clipPath id="6c5da28ed1"><path d="M 9.941406 14.304688 L 16.253906 14.304688 L 16.253906 20.617188 L 9.941406 20.617188 Z M 9.941406 14.304688 " clip-rule="nonzero"/></clipPath><clipPath id="e4b200a372"><path d="M 13.097656 14.304688 C 11.355469 14.304688 9.941406 15.71875 9.941406 17.460938 C 9.941406 19.207031 11.355469 20.617188 13.097656 20.617188 C 14.84375 20.617188 16.253906 19.207031 16.253906 17.460938 C 16.253906 15.71875 14.84375 14.304688 13.097656 14.304688 Z M 13.097656 14.304688 " clip-rule="nonzero"/></clipPath><clipPath id="118dad6036"><path d="M 15.339844 8.90625 L 21.664062 8.90625 L 21.664062 15.230469 L 15.339844 15.230469 Z M 15.339844 8.90625 " clip-rule="nonzero"/></clipPath><clipPath id="f4d90537f1"><path d="M 18.503906 8.90625 C 16.757812 8.90625 15.339844 10.320312 15.339844 12.066406 C 15.339844 13.8125 16.757812 15.230469 18.503906 15.230469 C 20.25 15.230469 21.664062 13.8125 21.664062 12.066406 C 21.664062 10.320312 20.25 8.90625 18.503906 8.90625 Z M 18.503906 8.90625 " clip-rule="nonzero"/></clipPath><clipPath id="8725f6bf83"><path d="M 15.339844 8.90625 L 21.65625 8.90625 L 21.65625 15.21875 L 15.339844 15.21875 Z M 15.339844 8.90625 " clip-rule="nonzero"/></clipPath><clipPath id="5ed36be54a"><path d="M 18.496094 8.90625 C 16.753906 8.90625 15.339844 10.320312 15.339844 12.0625 C 15.339844 13.804688 16.753906 15.21875 18.496094 15.21875 C 20.242188 15.21875 21.65625 13.804688 21.65625 12.0625 C 21.65625 10.320312 20.242188 8.90625 18.496094 8.90625 Z M 18.496094 8.90625 " clip-rule="nonzero"/></clipPath></defs><g clip-path="url(#8fd28072d7)"><path fill="#ffffff" d="M 31.714844 7.160156 C 31.3125 6.707031 30.652344 6.828125 30.117188 6.707031 C 26.253906 6.070312 22.625 4.492188 19.160156 2.722656 C 18.996094 2.644531 18.824219 2.578125 18.648438 2.515625 L 18.398438 2.515625 C 17.796875 2.695312 17.265625 3.039062 16.699219 3.300781 C 13.65625 4.796875 10.46875 6.082031 7.117188 6.671875 C 6.632812 6.769531 6.132812 6.761719 5.660156 6.902344 C 5.285156 7.066406 5.011719 7.457031 5.03125 7.875 C 4.992188 10.183594 5.078125 12.5 5.257812 14.800781 C 5.519531 17.734375 5.941406 20.683594 6.929688 23.46875 C 7.40625 24.761719 8.015625 26.03125 8.929688 27.074219 C 11.433594 30.035156 14.539062 32.460938 17.941406 34.308594 C 18.085938 34.382812 18.238281 34.441406 18.390625 34.488281 L 18.609375 34.488281 C 19.214844 34.316406 19.714844 33.914062 20.269531 33.628906 C 22.90625 32.066406 25.316406 30.125 27.390625 27.875 C 28.019531 27.164062 28.664062 26.457031 29.113281 25.617188 C 30.15625 23.761719 30.707031 21.679688 31.117188 19.605469 C 31.828125 15.828125 32.011719 11.96875 31.988281 8.132812 C 32 7.789062 31.976562 7.414062 31.714844 7.160156 Z M 30.25 18.757812 C 29.824219 21.085938 29.273438 23.457031 28.019531 25.492188 C 26.910156 27.101562 25.476562 28.457031 24.011719 29.738281 C 22.320312 31.183594 20.460938 32.417969 18.507812 33.484375 C 15.085938 31.625 11.953125 29.183594 9.476562 26.164062 C 8.203125 24.53125 7.597656 22.503906 7.121094 20.519531 C 6.199219 16.359375 5.980469 12.078125 6.042969 7.828125 C 10.457031 7.328125 14.582031 5.511719 18.511719 3.519531 C 22.433594 5.515625 26.566406 7.324219 30.984375 7.824219 C 31.039062 11.480469 30.863281 15.148438 30.25 18.757812 Z M 30.25 18.757812 " fill-opacity="1" fill-rule="nonzero"/></g><path fill="#ffffff" d="M 8.023438 9.5625 C 8.097656 13.496094 8.324219 17.46875 9.363281 21.28125 C 9.769531 22.6875 10.292969 24.113281 11.296875 25.210938 C 13.3125 27.621094 15.816406 29.589844 18.511719 31.191406 C 21.378906 29.488281 24.027344 27.359375 26.109375 24.742188 C 27.09375 23.386719 27.5625 21.742188 27.949219 20.136719 C 28.726562 16.671875 28.933594 13.105469 28.992188 9.5625 C 25.324219 8.855469 21.839844 7.425781 18.507812 5.761719 C 15.175781 7.425781 11.695312 8.855469 8.023438 9.5625 Z M 8.023438 9.5625 " fill-opacity="1" fill-rule="nonzero"/><g clip-path="url(#e79b3c900f)"><g clip-path="url(#1ac35bb72a)"><path fill="#000000" d="M 15.339844 19.703125 L 21.664062 19.703125 L 21.664062 26.03125 L 15.339844 26.03125 Z M 15.339844 19.703125 " fill-opacity="1" fill-rule="nonzero"/></g></g><g clip-path="url(#cff4182156)"><g clip-path="url(#7355b2a25f)"><path stroke-linecap="butt" transform="matrix(0.740132, 0, 0, 0.740132, 15.340826, 19.704401)" fill="none" stroke-linejoin="miter" d="M 4.263118 -0.00172387 C 1.909229 -0.00172387 -0.00132657 1.908832 -0.00132657 4.267999 C -0.00132657 6.621888 1.909229 8.532443 4.263118 8.532443 C 6.622285 8.532443 8.532841 6.621888 8.532841 4.267999 C 8.532841 1.908832 6.622285 -0.00172387 4.263118 -0.00172387 Z M 4.263118 -0.00172387 " stroke="#000000" stroke-width="2" stroke-opacity="1" stroke-miterlimit="4"/></g></g><g clip-path="url(#e5cfa528c0)"><g clip-path="url(#582a3d0f1e)"><path fill="#000000" d="M 20.742188 14.304688 L 27.066406 14.304688 L 27.066406 20.628906 L 20.742188 20.628906 Z M 20.742188 14.304688 " fill-opacity="1" fill-rule="nonzero"/></g></g><g clip-path="url(#aed6262e12)"><g clip-path="url(#e9bed6852c)"><path stroke-linecap="butt" transform="matrix(0.740132, 0, 0, 0.740132, 20.740587, 14.304642)" fill="none" stroke-linejoin="miter" d="M 4.266607 0.0000616229 C 1.90744 0.0000616229 0.00216188 1.910617 0.00216188 4.264506 C 0.00216188 6.623673 1.90744 8.528951 4.266607 8.528951 C 6.620496 8.528951 8.531051 6.623673 8.531051 4.264506 C 8.531051 1.910617 6.620496 0.0000616229 4.266607 0.0000616229 Z M 4.266607 0.0000616229 " stroke="#000000" stroke-width="2" stroke-opacity="1" stroke-miterlimit="4"/></g></g><g clip-path="url(#74f7bc215e)"><g clip-path="url(#d77eb058d2)"><path fill="#000000" d="M 9.941406 14.304688 L 16.265625 14.304688 L 16.265625 20.628906 L 9.941406 20.628906 Z M 9.941406 14.304688 " fill-opacity="1" fill-rule="nonzero"/></g></g><g clip-path="url(#6c5da28ed1)"><g clip-path="url(#e4b200a372)"><path stroke-linecap="butt" transform="matrix(0.740132, 0, 0, 0.740132, 9.941066, 14.304642)" fill="none" stroke-linejoin="miter" d="M 4.264904 0.0000616229 C 1.911015 0.0000616229 0.000459247 1.910617 0.000459247 4.264506 C 0.000459247 6.623673 1.911015 8.528951 4.264904 8.528951 C 6.624071 8.528951 8.529349 6.623673 8.529349 4.264506 C 8.529349 1.910617 6.624071 0.0000616229 4.264904 0.0000616229 Z M 4.264904 0.0000616229 " stroke="#000000" stroke-width="2" stroke-opacity="1" stroke-miterlimit="4"/></g></g><g clip-path="url(#118dad6036)"><g clip-path="url(#f4d90537f1)"><path fill="#000000" d="M 15.339844 8.90625 L 21.664062 8.90625 L 21.664062 15.230469 L 15.339844 15.230469 Z M 15.339844 8.90625 " fill-opacity="1" fill-rule="nonzero"/></g></g><g clip-path="url(#8725f6bf83)"><g clip-path="url(#5ed36be54a)"><path stroke-linecap="butt" transform="matrix(0.740132, 0, 0, 0.740132, 15.340826, 8.904882)" fill="none" stroke-linejoin="miter" d="M 4.263118 0.00184872 C 1.909229 0.00184872 -0.00132657 1.912404 -0.00132657 4.266293 C -0.00132657 6.620183 1.909229 8.530738 4.263118 8.530738 C 6.622285 8.530738 8.532841 6.620183 8.532841 4.266293 C 8.532841 1.912404 6.622285 0.00184872 4.263118 0.00184872 Z M 4.263118 0.00184872 " stroke="#000000" stroke-width="2" stroke-opacity="1" stroke-miterlimit="4"/></g></g></svg>