<svg xmlns="http://www.w3.org/2000/svg" xmlns:xlink="http://www.w3.org/1999/xlink" width="100" zoomAndPan="magnify" viewBox="0 0 75 74.999997" height="100" preserveAspectRatio="xMidYMid meet" version="1.0"><defs><clipPath id="74c36d8a29"><path d="M 22 35 L 50 35 L 50 40.863281 L 22 40.863281 Z M 22 35 " clip-rule="nonzero"/></clipPath><clipPath id="3a6903ebad"><path d="M 23 34.113281 L 57 34.113281 L 57 40.863281 L 23 40.863281 Z M 23 34.113281 " clip-rule="nonzero"/></clipPath><clipPath id="9c9af9348b"><path d="M 16 34.113281 L 57.839844 34.113281 L 57.839844 40.863281 L 16 40.863281 Z M 16 34.113281 " clip-rule="nonzero"/></clipPath></defs><g clip-path="url(#74c36d8a29)"><path fill="#a8bc9c" d="M 23.007812 38.714844 C 22.828125 39.023438 22.648438 39.328125 22.589844 39.636719 C 22.46875 40.25 23.425781 40.496094 23.960938 40.738281 C 24.019531 40.738281 24.082031 40.800781 24.140625 40.800781 C 24.140625 40.800781 47.527344 40.800781 47.527344 40.800781 C 47.945312 40.554688 48.84375 40.1875 49.019531 39.757812 C 49.257812 39.265625 48.542969 38.714844 48.066406 38.59375 C 47.46875 38.410156 46.871094 38.53125 46.214844 38.53125 C 44.007812 38.652344 41.859375 38.222656 39.773438 37.609375 C 37.683594 36.996094 35.65625 36.261719 33.507812 35.832031 C 31.359375 35.402344 29.09375 35.277344 27.003906 35.890625 C 25.691406 36.261719 24.4375 36.996094 23.601562 37.980469 C 23.425781 38.164062 23.1875 38.410156 23.007812 38.714844 Z M 23.007812 38.714844 " fill-opacity="1" fill-rule="nonzero"/></g><g clip-path="url(#3a6903ebad)"><path fill="#90ad82" d="M 23.304688 40.738281 C 24.738281 40.863281 26.167969 40.738281 27.601562 40.738281 C 30.941406 40.738281 34.222656 40.738281 37.566406 40.738281 C 41.265625 40.738281 44.964844 40.738281 48.664062 40.738281 C 48.78125 40.738281 48.902344 40.738281 49.082031 40.738281 C 50.394531 40.738281 51.765625 40.738281 53.078125 40.738281 C 53.734375 40.738281 54.390625 40.738281 55.046875 40.738281 C 55.40625 40.738281 55.703125 40.738281 56.0625 40.738281 C 56.359375 40.738281 56.597656 40.738281 56.597656 40.433594 C 56.597656 40.3125 56.539062 40.1875 56.539062 40.066406 C 55.882812 38.46875 54.09375 38.222656 52.660156 37.609375 C 49.617188 36.382812 46.8125 34.113281 43.53125 34.113281 C 41.203125 34.113281 39.117188 35.21875 36.910156 36.078125 C 33.148438 37.550781 29.152344 38.101562 25.15625 38.652344 C 24.617188 38.714844 24.082031 38.839844 23.664062 39.144531 C 23.066406 39.695312 23.304688 40.125 23.304688 40.738281 Z M 23.304688 40.738281 " fill-opacity="1" fill-rule="nonzero"/></g><g clip-path="url(#9c9af9348b)"><path fill="#7f9e6f" d="M 16.027344 40.800781 L 57.792969 40.800781 C 57.671875 40.554688 57.554688 40.371094 57.433594 40.1875 C 57.074219 39.574219 56.71875 39.082031 56.480469 38.714844 C 55.226562 37.058594 53.496094 35.832031 51.707031 35.277344 C 48.363281 34.234375 44.84375 35.09375 41.621094 36.382812 C 41.265625 36.507812 40.90625 36.691406 40.546875 36.875 C 37.921875 37.980469 35.296875 39.265625 32.492188 39.082031 C 32.015625 39.082031 31.539062 38.960938 31.121094 38.898438 C 29.570312 38.59375 28.078125 37.917969 26.585938 37.304688 C 24.675781 36.507812 22.589844 35.832031 20.621094 36.199219 C 19.726562 36.382812 18.828125 36.75 18.054688 37.425781 C 17.101562 38.164062 16.382812 39.265625 16.144531 40.617188 C 16.027344 40.617188 16.027344 40.679688 16.027344 40.800781 Z M 16.027344 40.800781 " fill-opacity="1" fill-rule="nonzero"/></g></svg>