<svg xmlns="http://www.w3.org/2000/svg" xmlns:xlink="http://www.w3.org/1999/xlink" width="100" zoomAndPan="magnify" viewBox="0 0 75 74.999997" height="100" preserveAspectRatio="xMidYMid meet" version="1.0"><defs><g/><clipPath id="b46caacdd4"><path d="M 14.699219 18.21875 L 60.445312 18.21875 L 60.445312 56.46875 L 14.699219 56.46875 Z M 14.699219 18.21875 " clip-rule="nonzero"/></clipPath></defs><g clip-path="url(#b46caacdd4)"><path fill="#ffffff" d="M 59.960938 28.132812 C 59.898438 27.058594 60.292969 25.859375 59.582031 24.925781 C 58.332031 24.582031 57.085938 24.234375 55.835938 23.929688 C 55.769531 22.378906 55.890625 20.820312 55.777344 19.273438 C 55.597656 18.21875 54.3125 18.585938 53.566406 18.578125 C 47.105469 18.902344 41.152344 22.558594 37.355469 27.695312 C 33.269531 22.128906 26.570312 18.289062 19.554688 18.578125 C 19.417969 18.695312 19.132812 18.933594 18.992188 19.050781 C 18.777344 20.660156 18.980469 22.304688 18.890625 23.925781 C 17.472656 24.496094 15.371094 24.40625 14.695312 26.046875 C 14.964844 26.691406 15.023438 27.390625 14.996094 28.089844 C 14.933594 36.300781 15.054688 44.507812 14.9375 52.71875 C 14.832031 53.335938 14.945312 54.429688 15.835938 54.238281 C 18.703125 53.195312 21.796875 52.816406 24.839844 52.992188 C 28.980469 53.316406 33.28125 54.289062 36.683594 56.769531 C 37.011719 56.769531 37.671875 56.769531 38 56.773438 C 39.882812 55.328125 42.167969 54.539062 44.421875 53.890625 C 49.257812 52.535156 54.480469 52.660156 59.230469 54.285156 C 60.246094 54.113281 59.972656 53 59.980469 52.265625 C 59.9375 44.222656 59.976562 36.179688 59.960938 28.132812 Z M 16.722656 52.015625 C 16.75 43.535156 16.71875 35.050781 16.734375 26.574219 C 17.460938 26.316406 18.1875 26.058594 18.917969 25.804688 C 18.902344 32.574219 18.90625 39.347656 18.914062 46.117188 C 18.820312 47.351562 20.359375 47.132812 21.160156 47.210938 C 25.953125 47.410156 30.3125 49.847656 33.792969 53.011719 C 28.421875 50.84375 22.304688 50.351562 16.722656 52.015625 Z M 40.109375 53.449219 C 42.765625 50.847656 45.828125 48.515625 49.46875 47.511719 C 51.34375 46.875 53.328125 46.816406 55.277344 46.628906 C 55.910156 46.550781 55.777344 45.765625 55.824219 45.324219 C 55.820312 38.847656 55.816406 32.371094 55.820312 25.894531 C 56.601562 26.128906 57.382812 26.367188 58.167969 26.597656 C 58.277344 35.078125 58.171875 43.558594 58.222656 52.039062 C 52.265625 50.390625 45.757812 50.976562 40.109375 53.449219 Z M 40.109375 53.449219 " fill-opacity="1" fill-rule="nonzero"/></g><g fill="#000000" fill-opacity="1"><g transform="translate(23.055, 38.277359)"><g><path d="M 0.359375 -0.0625 C 0.472656 -0.0625 0.566406 -0.101562 0.640625 -0.1875 C 0.722656 -0.269531 0.769531 -0.367188 0.78125 -0.484375 L 0.78125 -4.09375 C 0.769531 -4.207031 0.722656 -4.300781 0.640625 -4.375 C 0.566406 -4.457031 0.472656 -4.5 0.359375 -4.5 L 0.28125 -4.5 L 0.28125 -4.578125 L 2.265625 -4.578125 L 2.25 -4.5 L 2.171875 -4.5 C 2.054688 -4.5 1.957031 -4.457031 1.875 -4.375 C 1.789062 -4.300781 1.75 -4.207031 1.75 -4.09375 L 1.75 -0.28125 L 2.609375 -0.28125 C 2.929688 -0.28125 3.195312 -0.367188 3.40625 -0.546875 C 3.625 -0.734375 3.785156 -0.992188 3.890625 -1.328125 L 3.953125 -1.328125 L 3.65625 0 L 0.28125 0 L 0.28125 -0.0625 Z M 0.359375 -0.0625 "/></g></g></g><g fill="#000000" fill-opacity="1"><g transform="translate(27.081621, 38.277359)"><g><path d="M 3.296875 0 L 0.21875 0 L 0.21875 -0.0625 L 0.296875 -0.0625 C 0.398438 -0.0625 0.484375 -0.09375 0.546875 -0.15625 C 0.617188 -0.226562 0.65625 -0.3125 0.65625 -0.40625 L 0.65625 -3.515625 C 0.65625 -3.609375 0.617188 -3.6875 0.546875 -3.75 C 0.484375 -3.820312 0.398438 -3.859375 0.296875 -3.859375 L 0.21875 -3.859375 L 0.21875 -3.921875 L 2.515625 -3.921875 C 2.640625 -3.921875 2.769531 -3.929688 2.90625 -3.953125 C 3.039062 -3.972656 3.140625 -3.992188 3.203125 -4.015625 L 3.203125 -2.984375 L 3.140625 -2.984375 L 3.140625 -3.03125 C 3.140625 -3.226562 3.085938 -3.378906 2.984375 -3.484375 C 2.878906 -3.597656 2.734375 -3.65625 2.546875 -3.65625 L 1.59375 -3.65625 L 1.59375 -2.078125 L 2.34375 -2.078125 C 2.488281 -2.078125 2.609375 -2.125 2.703125 -2.21875 C 2.796875 -2.3125 2.84375 -2.4375 2.84375 -2.59375 L 2.84375 -2.625 L 2.90625 -2.625 L 2.90625 -1.25 L 2.84375 -1.25 L 2.84375 -1.296875 C 2.84375 -1.492188 2.765625 -1.640625 2.609375 -1.734375 C 2.535156 -1.785156 2.445312 -1.8125 2.34375 -1.8125 L 1.59375 -1.8125 L 1.59375 -0.265625 L 2.390625 -0.265625 C 2.648438 -0.265625 2.875 -0.34375 3.0625 -0.5 C 3.257812 -0.664062 3.398438 -0.898438 3.484375 -1.203125 L 3.546875 -1.203125 Z M 3.296875 0 "/></g></g></g><g fill="#000000" fill-opacity="1"><g transform="translate(30.761796, 38.277359)"><g><path d="M 4.375 0 L 2.34375 0 L 2.34375 -0.0625 L 2.421875 -0.0625 C 2.503906 -0.0625 2.5625 -0.0859375 2.59375 -0.140625 C 2.632812 -0.203125 2.65625 -0.25 2.65625 -0.28125 C 2.65625 -0.320312 2.644531 -0.359375 2.625 -0.390625 L 1.875 -1.546875 L 1.046875 -0.390625 C 1.015625 -0.359375 1 -0.320312 1 -0.28125 C 1 -0.25 1.015625 -0.203125 1.046875 -0.140625 C 1.085938 -0.0859375 1.148438 -0.0625 1.234375 -0.0625 L 1.3125 -0.0625 L 1.3125 0 L -0.125 0 L -0.125 -0.0625 L -0.046875 -0.0625 C 0.160156 -0.0625 0.347656 -0.160156 0.515625 -0.359375 L 1.671875 -1.875 L 0.59375 -3.5625 C 0.519531 -3.65625 0.429688 -3.726562 0.328125 -3.78125 C 0.234375 -3.832031 0.132812 -3.859375 0.03125 -3.859375 L -0.046875 -3.859375 L -0.046875 -3.921875 L 1.953125 -3.921875 L 1.953125 -3.859375 L 1.890625 -3.859375 C 1.804688 -3.859375 1.742188 -3.828125 1.703125 -3.765625 C 1.671875 -3.710938 1.65625 -3.664062 1.65625 -3.625 C 1.65625 -3.59375 1.664062 -3.5625 1.6875 -3.53125 L 2.375 -2.453125 L 3.078125 -3.53125 C 3.097656 -3.5625 3.109375 -3.59375 3.109375 -3.625 C 3.109375 -3.664062 3.085938 -3.710938 3.046875 -3.765625 C 3.015625 -3.828125 2.957031 -3.859375 2.875 -3.859375 L 2.8125 -3.859375 L 2.8125 -3.921875 L 4.234375 -3.921875 L 4.234375 -3.859375 L 4.15625 -3.859375 C 4.039062 -3.859375 3.9375 -3.832031 3.84375 -3.78125 C 3.75 -3.726562 3.664062 -3.65625 3.59375 -3.5625 L 2.59375 -2.109375 L 3.734375 -0.359375 C 3.816406 -0.242188 3.910156 -0.164062 4.015625 -0.125 C 4.128906 -0.0820312 4.222656 -0.0625 4.296875 -0.0625 L 4.375 -0.0625 Z M 4.375 0 "/></g></g></g><g fill="#000000" fill-opacity="1"><g transform="translate(35.010664, 38.277359)"><g><path d="M 0.21875 -0.0625 L 0.296875 -0.0625 C 0.398438 -0.0625 0.488281 -0.09375 0.5625 -0.15625 C 0.632812 -0.226562 0.671875 -0.3125 0.671875 -0.40625 L 0.671875 -3.5 C 0.671875 -3.601562 0.632812 -3.6875 0.5625 -3.75 C 0.488281 -3.820312 0.398438 -3.859375 0.296875 -3.859375 L 0.21875 -3.859375 L 0.21875 -3.921875 L 2.078125 -3.921875 L 2.078125 -3.859375 L 2 -3.859375 C 1.894531 -3.859375 1.804688 -3.820312 1.734375 -3.75 C 1.660156 -3.6875 1.625 -3.609375 1.625 -3.515625 L 1.625 -0.40625 C 1.625 -0.3125 1.660156 -0.226562 1.734375 -0.15625 C 1.804688 -0.09375 1.894531 -0.0625 2 -0.0625 L 2.078125 -0.0625 L 2.078125 0 L 0.21875 0 Z M 0.21875 -0.0625 "/></g></g></g><g fill="#000000" fill-opacity="1"><g transform="translate(37.31159, 38.277359)"><g><path d="M 2.578125 0.078125 C 1.835938 0.078125 1.257812 -0.0976562 0.84375 -0.453125 C 0.425781 -0.816406 0.21875 -1.316406 0.21875 -1.953125 C 0.21875 -2.597656 0.425781 -3.097656 0.84375 -3.453125 C 1.257812 -3.816406 1.835938 -4 2.578125 -4 C 3.148438 -4 3.640625 -3.898438 4.046875 -3.703125 L 4.046875 -2.671875 L 4 -2.671875 C 3.882812 -3.054688 3.710938 -3.332031 3.484375 -3.5 C 3.265625 -3.664062 2.984375 -3.75 2.640625 -3.75 C 2.179688 -3.75 1.828125 -3.585938 1.578125 -3.265625 C 1.335938 -2.953125 1.21875 -2.519531 1.21875 -1.96875 C 1.21875 -1.425781 1.335938 -0.992188 1.578125 -0.671875 C 1.828125 -0.335938 2.164062 -0.171875 2.59375 -0.171875 C 2.894531 -0.171875 3.144531 -0.21875 3.34375 -0.3125 C 3.550781 -0.414062 3.710938 -0.570312 3.828125 -0.78125 C 3.941406 -0.988281 4.03125 -1.273438 4.09375 -1.640625 L 4.140625 -1.640625 L 4.21875 -0.65625 C 4.082031 -0.425781 3.875 -0.242188 3.59375 -0.109375 C 3.320312 0.015625 2.984375 0.078125 2.578125 0.078125 Z M 2.578125 0.078125 "/></g></g></g><g fill="#000000" fill-opacity="1"><g transform="translate(41.769634, 38.277359)"><g><path d="M 0.234375 -1.953125 C 0.234375 -2.585938 0.441406 -3.085938 0.859375 -3.453125 C 1.273438 -3.816406 1.832031 -4 2.53125 -4 C 3.226562 -4 3.789062 -3.816406 4.21875 -3.453125 C 4.644531 -3.085938 4.859375 -2.585938 4.859375 -1.953125 C 4.859375 -1.328125 4.644531 -0.832031 4.21875 -0.46875 C 3.789062 -0.101562 3.226562 0.078125 2.53125 0.078125 C 1.84375 0.078125 1.285156 -0.101562 0.859375 -0.46875 C 0.441406 -0.832031 0.234375 -1.328125 0.234375 -1.953125 Z M 1.234375 -1.953125 C 1.234375 -1.410156 1.347656 -0.976562 1.578125 -0.65625 C 1.816406 -0.332031 2.132812 -0.171875 2.53125 -0.171875 C 2.9375 -0.171875 3.253906 -0.332031 3.484375 -0.65625 C 3.722656 -0.976562 3.84375 -1.410156 3.84375 -1.953125 C 3.84375 -2.503906 3.722656 -2.941406 3.484375 -3.265625 C 3.253906 -3.585938 2.9375 -3.75 2.53125 -3.75 C 2.132812 -3.75 1.816406 -3.585938 1.578125 -3.265625 C 1.347656 -2.941406 1.234375 -2.503906 1.234375 -1.953125 Z M 1.234375 -1.953125 "/></g></g></g><g fill="#000000" fill-opacity="1"><g transform="translate(46.848665, 38.277359)"><g><path d="M 3.125 -3.921875 L 4.953125 -3.921875 L 4.953125 -3.859375 L 4.84375 -3.859375 C 4.75 -3.859375 4.664062 -3.828125 4.59375 -3.765625 C 4.53125 -3.703125 4.492188 -3.625 4.484375 -3.53125 L 4.484375 -0.671875 C 4.484375 -0.398438 4.503906 -0.175781 4.546875 0 L 4.546875 0.078125 L 4.5 0.078125 L 1.5 -2.5625 L 1.5 -0.390625 C 1.5 -0.296875 1.53125 -0.21875 1.59375 -0.15625 C 1.664062 -0.09375 1.753906 -0.0625 1.859375 -0.0625 L 1.96875 -0.0625 L 1.96875 0 L 0.140625 0 L 0.140625 -0.0625 L 0.234375 -0.0625 C 0.335938 -0.0625 0.421875 -0.09375 0.484375 -0.15625 C 0.554688 -0.21875 0.59375 -0.296875 0.59375 -0.390625 L 0.59375 -3.265625 C 0.59375 -3.523438 0.578125 -3.742188 0.546875 -3.921875 L 0.53125 -4.015625 L 0.59375 -4 L 3.578125 -1.375 L 3.578125 -3.515625 C 3.578125 -3.609375 3.546875 -3.6875 3.484375 -3.75 C 3.421875 -3.820312 3.335938 -3.859375 3.234375 -3.859375 L 3.125 -3.859375 Z M 3.125 -3.921875 "/></g></g></g></svg>