<svg xmlns="http://www.w3.org/2000/svg" xmlns:xlink="http://www.w3.org/1999/xlink" width="50" zoomAndPan="magnify" viewBox="0 0 37.5 37.499999" height="50" preserveAspectRatio="xMidYMid meet" version="1.0"><defs><g/><clipPath id="51a09d47c5"><path d="M 7.699219 5.707031 L 29.160156 5.707031 L 29.160156 31.609375 L 7.699219 31.609375 Z M 7.699219 5.707031 " clip-rule="nonzero"/></clipPath><clipPath id="bc705f3ffa"><path d="M 15.972656 19.464844 L 21.03125 19.464844 L 21.03125 24.523438 L 15.972656 24.523438 Z M 15.972656 19.464844 " clip-rule="nonzero"/></clipPath><clipPath id="84fdfcc3ce"><path d="M 18.503906 19.464844 C 17.105469 19.464844 15.972656 20.597656 15.972656 21.992188 C 15.972656 23.390625 17.105469 24.523438 18.503906 24.523438 C 19.898438 24.523438 21.03125 23.390625 21.03125 21.992188 C 21.03125 20.597656 19.898438 19.464844 18.503906 19.464844 Z M 18.503906 19.464844 " clip-rule="nonzero"/></clipPath><clipPath id="b855f9bdfa"><path d="M 15.972656 19.464844 L 21.027344 19.464844 L 21.027344 24.519531 L 15.972656 24.519531 Z M 15.972656 19.464844 " clip-rule="nonzero"/></clipPath><clipPath id="d66884c63f"><path d="M 18.5 19.464844 C 17.105469 19.464844 15.972656 20.59375 15.972656 21.992188 C 15.972656 23.386719 17.105469 24.519531 18.5 24.519531 C 19.894531 24.519531 21.027344 23.386719 21.027344 21.992188 C 21.027344 20.59375 19.894531 19.464844 18.5 19.464844 Z M 18.5 19.464844 " clip-rule="nonzero"/></clipPath><clipPath id="5bb32d4215"><path d="M 20.292969 15.144531 L 25.351562 15.144531 L 25.351562 20.203125 L 20.292969 20.203125 Z M 20.292969 15.144531 " clip-rule="nonzero"/></clipPath><clipPath id="84f26abbbb"><path d="M 22.820312 15.144531 C 21.425781 15.144531 20.292969 16.277344 20.292969 17.675781 C 20.292969 19.070312 21.425781 20.203125 22.820312 20.203125 C 24.21875 20.203125 25.351562 19.070312 25.351562 17.675781 C 25.351562 16.277344 24.21875 15.144531 22.820312 15.144531 Z M 22.820312 15.144531 " clip-rule="nonzero"/></clipPath><clipPath id="80dc7d7b77"><path d="M 20.292969 15.144531 L 25.347656 15.144531 L 25.347656 20.199219 L 20.292969 20.199219 Z M 20.292969 15.144531 " clip-rule="nonzero"/></clipPath><clipPath id="d9005fd48c"><path d="M 22.820312 15.144531 C 21.425781 15.144531 20.292969 16.277344 20.292969 17.671875 C 20.292969 19.066406 21.425781 20.199219 22.820312 20.199219 C 24.214844 20.199219 25.347656 19.066406 25.347656 17.671875 C 25.347656 16.277344 24.214844 15.144531 22.820312 15.144531 Z M 22.820312 15.144531 " clip-rule="nonzero"/></clipPath><clipPath id="92b4e04a4d"><path d="M 11.65625 15.144531 L 16.714844 15.144531 L 16.714844 20.203125 L 11.65625 20.203125 Z M 11.65625 15.144531 " clip-rule="nonzero"/></clipPath><clipPath id="6d8d633628"><path d="M 14.183594 15.144531 C 12.789062 15.144531 11.65625 16.277344 11.65625 17.675781 C 11.65625 19.070312 12.789062 20.203125 14.183594 20.203125 C 15.582031 20.203125 16.714844 19.070312 16.714844 17.675781 C 16.714844 16.277344 15.582031 15.144531 14.183594 15.144531 Z M 14.183594 15.144531 " clip-rule="nonzero"/></clipPath><clipPath id="398d0d1d3f"><path d="M 11.65625 15.144531 L 16.707031 15.144531 L 16.707031 20.199219 L 11.65625 20.199219 Z M 11.65625 15.144531 " clip-rule="nonzero"/></clipPath><clipPath id="2a039e2d4e"><path d="M 14.183594 15.144531 C 12.785156 15.144531 11.65625 16.277344 11.65625 17.671875 C 11.65625 19.066406 12.785156 20.199219 14.183594 20.199219 C 15.578125 20.199219 16.707031 19.066406 16.707031 17.671875 C 16.707031 16.277344 15.578125 15.144531 14.183594 15.144531 Z M 14.183594 15.144531 " clip-rule="nonzero"/></clipPath><clipPath id="cd1d12e673"><path d="M 15.972656 10.851562 L 21.03125 10.851562 L 21.03125 15.914062 L 15.972656 15.914062 Z M 15.972656 10.851562 " clip-rule="nonzero"/></clipPath><clipPath id="5102d2879a"><path d="M 18.503906 10.851562 C 17.105469 10.851562 15.972656 11.984375 15.972656 13.382812 C 15.972656 14.78125 17.105469 15.914062 18.503906 15.914062 C 19.898438 15.914062 21.03125 14.78125 21.03125 13.382812 C 21.03125 11.984375 19.898438 10.851562 18.503906 10.851562 Z M 18.503906 10.851562 " clip-rule="nonzero"/></clipPath><clipPath id="20a0d860c2"><path d="M 15.972656 10.851562 L 21.027344 10.851562 L 21.027344 15.90625 L 15.972656 15.90625 Z M 15.972656 10.851562 " clip-rule="nonzero"/></clipPath><clipPath id="76ac50244b"><path d="M 18.5 10.851562 C 17.105469 10.851562 15.972656 11.984375 15.972656 13.378906 C 15.972656 14.777344 17.105469 15.90625 18.5 15.90625 C 19.894531 15.90625 21.027344 14.777344 21.027344 13.378906 C 21.027344 11.984375 19.894531 10.851562 18.5 10.851562 Z M 18.5 10.851562 " clip-rule="nonzero"/></clipPath></defs><g clip-path="url(#51a09d47c5)"><path fill="#000000" d="M 28.929688 9.476562 C 28.609375 9.113281 28.082031 9.207031 27.660156 9.109375 C 24.589844 8.59375 21.707031 7.316406 18.953125 5.886719 C 18.824219 5.820312 18.683594 5.769531 18.546875 5.71875 L 18.351562 5.71875 C 17.871094 5.863281 17.449219 6.144531 16.996094 6.355469 C 14.582031 7.5625 12.046875 8.605469 9.386719 9.082031 C 9.003906 9.160156 8.601562 9.152344 8.226562 9.269531 C 7.929688 9.402344 7.710938 9.71875 7.730469 10.054688 C 7.699219 11.925781 7.765625 13.796875 7.910156 15.664062 C 8.117188 18.035156 8.453125 20.421875 9.234375 22.679688 C 9.613281 23.726562 10.097656 24.753906 10.828125 25.597656 C 12.8125 27.992188 15.28125 29.957031 17.984375 31.453125 C 18.101562 31.511719 18.21875 31.558594 18.34375 31.597656 L 18.515625 31.597656 C 18.996094 31.457031 19.394531 31.132812 19.835938 30.902344 C 21.929688 29.636719 23.84375 28.066406 25.492188 26.246094 C 25.992188 25.671875 26.503906 25.09375 26.859375 24.417969 C 27.691406 22.914062 28.128906 21.230469 28.453125 19.550781 C 29.019531 16.492188 29.164062 13.371094 29.148438 10.265625 C 29.15625 9.988281 29.136719 9.683594 28.929688 9.476562 Z M 27.761719 18.863281 C 27.425781 20.75 26.988281 22.667969 25.992188 24.316406 C 25.109375 25.621094 23.972656 26.71875 22.808594 27.753906 C 21.464844 28.921875 19.988281 29.921875 18.4375 30.785156 C 15.71875 29.28125 13.226562 27.304688 11.261719 24.859375 C 10.246094 23.539062 9.769531 21.894531 9.390625 20.292969 C 8.65625 16.925781 8.484375 13.457031 8.53125 10.015625 C 12.039062 9.613281 15.316406 8.144531 18.4375 6.53125 C 21.554688 8.144531 24.839844 9.613281 28.347656 10.015625 C 28.390625 12.972656 28.253906 15.945312 27.761719 18.863281 Z M 27.761719 18.863281 " fill-opacity="1" fill-rule="nonzero"/></g><path fill="#000000" d="M 10.105469 11.421875 C 10.164062 14.605469 10.34375 17.824219 11.171875 20.90625 C 11.492188 22.042969 11.910156 23.199219 12.707031 24.089844 C 14.308594 26.039062 16.296875 27.632812 18.4375 28.929688 C 20.714844 27.550781 22.820312 25.828125 24.472656 23.707031 C 25.257812 22.613281 25.628906 21.28125 25.9375 19.980469 C 26.554688 17.175781 26.71875 14.289062 26.765625 11.421875 C 23.851562 10.851562 21.082031 9.691406 18.4375 8.347656 C 15.789062 9.691406 13.023438 10.851562 10.105469 11.421875 Z M 10.105469 11.421875 " fill-opacity="1" fill-rule="nonzero"/><g fill="#000000" fill-opacity="1"><g transform="translate(1.823983, 34.53947)"><g><path d="M 2.09375 0.0625 C 1.53125 0.0625 1.078125 -0.0976562 0.734375 -0.421875 C 0.390625 -0.742188 0.21875 -1.179688 0.21875 -1.734375 C 0.21875 -2.285156 0.390625 -2.722656 0.734375 -3.046875 C 1.078125 -3.367188 1.539062 -3.53125 2.125 -3.53125 C 2.382812 -3.53125 2.632812 -3.503906 2.875 -3.453125 C 3.125 -3.398438 3.328125 -3.335938 3.484375 -3.265625 L 3.484375 -2.40625 L 3.453125 -2.40625 C 3.359375 -2.726562 3.207031 -2.957031 3 -3.09375 C 2.800781 -3.238281 2.554688 -3.3125 2.265625 -3.3125 C 1.867188 -3.3125 1.5625 -3.171875 1.34375 -2.890625 C 1.132812 -2.609375 1.03125 -2.21875 1.03125 -1.71875 C 1.03125 -1.226562 1.125 -0.84375 1.3125 -0.5625 C 1.507812 -0.28125 1.789062 -0.140625 2.15625 -0.140625 C 2.414062 -0.140625 2.628906 -0.210938 2.796875 -0.359375 C 2.890625 -0.429688 2.953125 -0.519531 2.984375 -0.625 L 2.984375 -1.375 C 2.984375 -1.445312 2.960938 -1.503906 2.921875 -1.546875 C 2.878906 -1.585938 2.816406 -1.609375 2.734375 -1.609375 L 2.65625 -1.609375 L 2.65625 -1.65625 L 4.046875 -1.65625 L 4.046875 -1.609375 L 3.96875 -1.609375 C 3.882812 -1.609375 3.820312 -1.585938 3.78125 -1.546875 C 3.738281 -1.503906 3.71875 -1.445312 3.71875 -1.375 L 3.71875 -0.5625 C 3.59375 -0.394531 3.378906 -0.25 3.078125 -0.125 C 2.785156 0 2.457031 0.0625 2.09375 0.0625 Z M 2.09375 0.0625 "/></g></g></g><g fill="#000000" fill-opacity="1"><g transform="translate(5.94901, 34.53947)"><g><path d="M 3.640625 -0.046875 L 3.6875 -0.046875 L 3.6875 0 L 2.109375 0 L 2.109375 -0.046875 L 2.15625 -0.046875 C 2.226562 -0.046875 2.28125 -0.0664062 2.3125 -0.109375 C 2.34375 -0.160156 2.359375 -0.203125 2.359375 -0.234375 C 2.359375 -0.273438 2.351562 -0.316406 2.34375 -0.359375 L 2.09375 -0.96875 L 0.9375 -0.96875 L 0.6875 -0.359375 C 0.664062 -0.316406 0.65625 -0.273438 0.65625 -0.234375 C 0.65625 -0.203125 0.671875 -0.160156 0.703125 -0.109375 C 0.742188 -0.0664062 0.800781 -0.046875 0.875 -0.046875 L 0.921875 -0.046875 L 0.921875 0 L -0.140625 0 L -0.140625 -0.046875 L -0.09375 -0.046875 C -0.0195312 -0.046875 0.0507812 -0.0664062 0.125 -0.109375 C 0.207031 -0.160156 0.273438 -0.234375 0.328125 -0.328125 L 1.46875 -2.90625 C 1.613281 -3.226562 1.691406 -3.445312 1.703125 -3.5625 L 1.75 -3.5625 L 3.21875 -0.328125 C 3.269531 -0.234375 3.332031 -0.160156 3.40625 -0.109375 C 3.476562 -0.0664062 3.554688 -0.046875 3.640625 -0.046875 Z M 1.03125 -1.171875 L 2.015625 -1.171875 L 1.53125 -2.390625 Z M 1.03125 -1.171875 "/></g></g></g><g fill="#000000" fill-opacity="1"><g transform="translate(9.481926, 34.53947)"><g><path d="M 4.671875 -0.046875 L 4.75 -0.046875 L 4.75 0 L 3.28125 0 L 3.28125 -0.046875 L 3.34375 -0.046875 C 3.40625 -0.046875 3.453125 -0.0664062 3.484375 -0.109375 C 3.523438 -0.148438 3.546875 -0.195312 3.546875 -0.25 L 3.34375 -2.046875 L 2.421875 -0.453125 C 2.296875 -0.242188 2.234375 -0.0625 2.234375 0.09375 L 2.1875 0.09375 L 0.90625 -2.03125 L 0.71875 -0.25 C 0.71875 -0.195312 0.734375 -0.148438 0.765625 -0.109375 C 0.804688 -0.0664062 0.851562 -0.046875 0.90625 -0.046875 L 0.984375 -0.046875 L 0.984375 0 L -0.046875 0 L -0.046875 -0.046875 L 0.03125 -0.046875 C 0.125 -0.046875 0.203125 -0.0703125 0.265625 -0.125 C 0.335938 -0.1875 0.378906 -0.265625 0.390625 -0.359375 L 0.8125 -3.53125 L 0.84375 -3.53125 L 2.375 -1 L 3.84375 -3.53125 L 3.890625 -3.53125 L 4.3125 -0.359375 C 4.332031 -0.265625 4.375 -0.1875 4.4375 -0.125 C 4.507812 -0.0703125 4.585938 -0.046875 4.671875 -0.046875 Z M 4.671875 -0.046875 "/></g></g></g><g fill="#000000" fill-opacity="1"><g transform="translate(14.184259, 34.53947)"><g><path d="M 0.265625 -0.046875 C 0.359375 -0.046875 0.429688 -0.078125 0.484375 -0.140625 C 0.546875 -0.203125 0.582031 -0.273438 0.59375 -0.359375 L 0.59375 -3.109375 C 0.582031 -3.191406 0.554688 -3.253906 0.515625 -3.296875 C 0.429688 -3.367188 0.347656 -3.40625 0.265625 -3.40625 L 0.203125 -3.40625 L 0.203125 -3.453125 L 2.09375 -3.453125 C 2.257812 -3.453125 2.394531 -3.460938 2.5 -3.484375 C 2.601562 -3.515625 2.664062 -3.535156 2.6875 -3.546875 L 2.6875 -2.6875 L 2.640625 -2.6875 L 2.640625 -2.734375 C 2.640625 -2.941406 2.566406 -3.085938 2.421875 -3.171875 C 2.347656 -3.210938 2.257812 -3.238281 2.15625 -3.25 L 1.328125 -3.25 L 1.328125 -1.8125 L 1.984375 -1.8125 C 2.097656 -1.8125 2.195312 -1.847656 2.28125 -1.921875 C 2.363281 -2.003906 2.40625 -2.109375 2.40625 -2.234375 L 2.40625 -2.28125 L 2.453125 -2.28125 L 2.453125 -1.140625 L 2.40625 -1.140625 L 2.40625 -1.171875 C 2.40625 -1.296875 2.363281 -1.394531 2.28125 -1.46875 C 2.207031 -1.550781 2.109375 -1.59375 1.984375 -1.59375 L 1.328125 -1.59375 L 1.328125 -0.21875 L 1.96875 -0.21875 C 2.207031 -0.21875 2.410156 -0.285156 2.578125 -0.421875 C 2.742188 -0.554688 2.863281 -0.75 2.9375 -1 L 2.984375 -1 L 2.765625 0 L 0.203125 0 L 0.203125 -0.046875 Z M 0.265625 -0.046875 "/></g></g></g><g fill="#000000" fill-opacity="1"><g transform="translate(17.297765, 34.53947)"><g><path d="M 4.03125 -3.40625 C 3.914062 -3.40625 3.828125 -3.359375 3.765625 -3.265625 C 3.742188 -3.210938 3.734375 -3.160156 3.734375 -3.109375 L 3.734375 -0.5625 C 3.734375 -0.34375 3.742188 -0.15625 3.765625 0 L 3.78125 0.0625 L 3.75 0.0625 L 1.25 -2.3125 L 1.25 -0.34375 C 1.25 -0.257812 1.273438 -0.1875 1.328125 -0.125 C 1.390625 -0.0703125 1.460938 -0.046875 1.546875 -0.046875 L 1.640625 -0.046875 L 1.640625 0 L 0.140625 0 L 0.140625 -0.046875 L 0.234375 -0.046875 C 0.316406 -0.046875 0.390625 -0.0703125 0.453125 -0.125 C 0.515625 -0.1875 0.546875 -0.257812 0.546875 -0.34375 L 0.546875 -2.90625 C 0.546875 -3.125 0.53125 -3.304688 0.5 -3.453125 L 0.484375 -3.53125 L 0.53125 -3.53125 L 3.03125 -1.15625 L 3.03125 -3.109375 C 3.019531 -3.191406 2.984375 -3.257812 2.921875 -3.3125 C 2.867188 -3.375 2.800781 -3.40625 2.71875 -3.40625 L 2.625 -3.40625 L 2.625 -3.453125 L 4.125 -3.453125 L 4.125 -3.40625 Z M 4.03125 -3.40625 "/></g></g></g><g fill="#000000" fill-opacity="1"><g transform="translate(21.565881, 34.53947)"><g><path d="M 0.265625 -0.046875 C 0.359375 -0.046875 0.429688 -0.078125 0.484375 -0.140625 C 0.546875 -0.203125 0.582031 -0.273438 0.59375 -0.359375 L 0.59375 -3.109375 C 0.582031 -3.191406 0.554688 -3.253906 0.515625 -3.296875 C 0.429688 -3.367188 0.347656 -3.40625 0.265625 -3.40625 L 0.203125 -3.40625 L 0.203125 -3.453125 L 2.09375 -3.453125 C 2.257812 -3.453125 2.394531 -3.460938 2.5 -3.484375 C 2.601562 -3.515625 2.664062 -3.535156 2.6875 -3.546875 L 2.6875 -2.6875 L 2.640625 -2.6875 L 2.640625 -2.734375 C 2.640625 -2.941406 2.566406 -3.085938 2.421875 -3.171875 C 2.347656 -3.210938 2.257812 -3.238281 2.15625 -3.25 L 1.328125 -3.25 L 1.328125 -1.8125 L 1.984375 -1.8125 C 2.097656 -1.8125 2.195312 -1.847656 2.28125 -1.921875 C 2.363281 -2.003906 2.40625 -2.109375 2.40625 -2.234375 L 2.40625 -2.28125 L 2.453125 -2.28125 L 2.453125 -1.140625 L 2.40625 -1.140625 L 2.40625 -1.171875 C 2.40625 -1.296875 2.363281 -1.394531 2.28125 -1.46875 C 2.207031 -1.550781 2.109375 -1.59375 1.984375 -1.59375 L 1.328125 -1.59375 L 1.328125 -0.21875 L 1.96875 -0.21875 C 2.207031 -0.21875 2.410156 -0.285156 2.578125 -0.421875 C 2.742188 -0.554688 2.863281 -0.75 2.9375 -1 L 2.984375 -1 L 2.765625 0 L 0.203125 0 L 0.203125 -0.046875 Z M 0.265625 -0.046875 "/></g></g></g><g fill="#000000" fill-opacity="1"><g transform="translate(24.679387, 34.53947)"><g><path d="M 2.109375 -0.046875 C 2.179688 -0.046875 2.238281 -0.078125 2.28125 -0.140625 C 2.300781 -0.179688 2.3125 -0.21875 2.3125 -0.25 C 2.3125 -0.28125 2.300781 -0.3125 2.28125 -0.34375 L 1.59375 -1.421875 L 0.859375 -0.359375 C 0.835938 -0.328125 0.828125 -0.289062 0.828125 -0.25 C 0.828125 -0.21875 0.835938 -0.1875 0.859375 -0.15625 C 0.910156 -0.0820312 0.96875 -0.046875 1.03125 -0.046875 L 1.09375 -0.046875 L 1.09375 0 L -0.125 0 L -0.125 -0.046875 L -0.046875 -0.046875 C 0.140625 -0.046875 0.300781 -0.140625 0.4375 -0.328125 L 1.40625 -1.703125 L 0.5 -3.109375 C 0.445312 -3.191406 0.375 -3.257812 0.28125 -3.3125 C 0.1875 -3.375 0.09375 -3.40625 0 -3.40625 L -0.0625 -3.40625 L -0.0625 -3.453125 L 1.609375 -3.453125 L 1.609375 -3.40625 L 1.546875 -3.40625 C 1.472656 -3.40625 1.414062 -3.375 1.375 -3.3125 C 1.351562 -3.269531 1.34375 -3.234375 1.34375 -3.203125 C 1.34375 -3.171875 1.351562 -3.140625 1.375 -3.109375 L 1.984375 -2.15625 L 2.59375 -3.09375 C 2.613281 -3.132812 2.625 -3.171875 2.625 -3.203125 C 2.625 -3.234375 2.613281 -3.265625 2.59375 -3.296875 C 2.550781 -3.367188 2.492188 -3.40625 2.421875 -3.40625 L 2.359375 -3.40625 L 2.359375 -3.453125 L 3.578125 -3.453125 L 3.578125 -3.40625 L 3.5 -3.40625 C 3.40625 -3.40625 3.3125 -3.378906 3.21875 -3.328125 C 3.132812 -3.273438 3.066406 -3.207031 3.015625 -3.125 L 2.171875 -1.875 L 3.171875 -0.328125 C 3.222656 -0.253906 3.289062 -0.1875 3.375 -0.125 C 3.46875 -0.0703125 3.5625 -0.046875 3.65625 -0.046875 L 3.734375 -0.046875 L 3.734375 0 L 2.046875 0 L 2.046875 -0.046875 Z M 2.109375 -0.046875 "/></g></g></g><g fill="#000000" fill-opacity="1"><g transform="translate(28.27645, 34.53947)"><g><path d="M 3.90625 -3.40625 L 3.8125 -3.40625 C 3.75 -3.40625 3.691406 -3.382812 3.640625 -3.34375 C 3.585938 -3.300781 3.5625 -3.242188 3.5625 -3.171875 L 3.5625 -1.25 C 3.5625 -0.84375 3.429688 -0.519531 3.171875 -0.28125 C 2.921875 -0.0507812 2.578125 0.0625 2.140625 0.0625 C 1.617188 0.0625 1.21875 -0.0507812 0.9375 -0.28125 C 0.664062 -0.507812 0.53125 -0.832031 0.53125 -1.25 L 0.53125 -3.15625 C 0.519531 -3.257812 0.472656 -3.332031 0.390625 -3.375 C 0.347656 -3.394531 0.304688 -3.40625 0.265625 -3.40625 L 0.1875 -3.40625 L 0.1875 -3.453125 L 1.609375 -3.453125 L 1.609375 -3.40625 L 1.53125 -3.40625 C 1.457031 -3.40625 1.394531 -3.382812 1.34375 -3.34375 C 1.300781 -3.300781 1.273438 -3.242188 1.265625 -3.171875 L 1.265625 -1.28125 C 1.265625 -0.9375 1.347656 -0.660156 1.515625 -0.453125 C 1.691406 -0.242188 1.929688 -0.140625 2.234375 -0.140625 C 2.535156 -0.140625 2.769531 -0.234375 2.9375 -0.421875 C 3.113281 -0.617188 3.203125 -0.882812 3.203125 -1.21875 L 3.203125 -3.171875 C 3.203125 -3.265625 3.160156 -3.332031 3.078125 -3.375 C 3.035156 -3.394531 2.992188 -3.40625 2.953125 -3.40625 L 2.875 -3.40625 L 2.875 -3.453125 L 3.90625 -3.453125 Z M 3.90625 -3.40625 "/></g></g></g><g fill="#000000" fill-opacity="1"><g transform="translate(32.327462, 34.53947)"><g><path d="M 0.25 -0.453125 C 0.25 -0.691406 0.300781 -0.894531 0.40625 -1.0625 L 0.4375 -1.0625 C 0.4375 -1.039062 0.4375 -1.015625 0.4375 -0.984375 C 0.4375 -0.753906 0.515625 -0.554688 0.671875 -0.390625 C 0.835938 -0.222656 1.066406 -0.140625 1.359375 -0.140625 C 1.578125 -0.140625 1.742188 -0.191406 1.859375 -0.296875 C 1.984375 -0.398438 2.046875 -0.535156 2.046875 -0.703125 C 2.046875 -0.796875 2.015625 -0.878906 1.953125 -0.953125 C 1.898438 -1.023438 1.800781 -1.109375 1.65625 -1.203125 L 0.796875 -1.765625 C 0.484375 -1.984375 0.328125 -2.25 0.328125 -2.5625 C 0.328125 -2.59375 0.328125 -2.625 0.328125 -2.65625 C 0.347656 -2.914062 0.445312 -3.125 0.625 -3.28125 C 0.8125 -3.445312 1.0625 -3.53125 1.375 -3.53125 C 1.550781 -3.53125 1.773438 -3.507812 2.046875 -3.46875 L 2.34375 -3.46875 L 2.28125 -2.75 L 2.234375 -2.75 C 2.234375 -2.914062 2.171875 -3.050781 2.046875 -3.15625 C 1.921875 -3.257812 1.753906 -3.3125 1.546875 -3.3125 C 1.285156 -3.3125 1.097656 -3.234375 0.984375 -3.078125 C 0.921875 -3.003906 0.890625 -2.925781 0.890625 -2.84375 C 0.890625 -2.769531 0.90625 -2.707031 0.9375 -2.65625 C 0.976562 -2.570312 1.078125 -2.484375 1.234375 -2.390625 L 2.1875 -1.765625 C 2.476562 -1.578125 2.625 -1.328125 2.625 -1.015625 C 2.625 -0.660156 2.503906 -0.390625 2.265625 -0.203125 C 2.023438 -0.0234375 1.707031 0.0625 1.3125 0.0625 C 1.09375 0.0625 0.890625 0.0351562 0.703125 -0.015625 C 0.515625 -0.0664062 0.375 -0.140625 0.28125 -0.234375 C 0.257812 -0.296875 0.25 -0.367188 0.25 -0.453125 Z M 0.25 -0.453125 "/></g></g></g><g clip-path="url(#bc705f3ffa)"><g clip-path="url(#84fdfcc3ce)"><path fill="#75b235" d="M 15.972656 19.464844 L 21.03125 19.464844 L 21.03125 24.523438 L 15.972656 24.523438 Z M 15.972656 19.464844 " fill-opacity="1" fill-rule="nonzero"/></g></g><g clip-path="url(#b855f9bdfa)"><g clip-path="url(#d66884c63f)"><path stroke-linecap="butt" transform="matrix(0.740131, 0, 0, 0.740131, 15.973923, 19.46395)" fill="none" stroke-linejoin="miter" d="M 3.413011 0.00120718 C 1.528844 0.00120718 -0.00171211 1.526485 -0.00171211 3.41593 C -0.00171211 5.300097 1.528844 6.830653 3.413011 6.830653 C 5.297177 6.830653 6.827733 5.300097 6.827733 3.41593 C 6.827733 1.526485 5.297177 0.00120718 3.413011 0.00120718 Z M 3.413011 0.00120718 " stroke="#5f9825" stroke-width="2" stroke-opacity="1" stroke-miterlimit="4"/></g></g><g clip-path="url(#5bb32d4215)"><g clip-path="url(#84f26abbbb)"><path fill="#cb302b" d="M 20.292969 15.144531 L 25.351562 15.144531 L 25.351562 20.203125 L 20.292969 20.203125 Z M 20.292969 15.144531 " fill-opacity="1" fill-rule="nonzero"/></g></g><g clip-path="url(#80dc7d7b77)"><g clip-path="url(#d9005fd48c)"><path stroke-linecap="butt" transform="matrix(0.740131, 0, 0, 0.740131, 20.292699, 15.145175)" fill="none" stroke-linejoin="miter" d="M 3.415087 -0.000869197 C 1.53092 -0.000869197 0.000363954 1.529687 0.000363954 3.413853 C 0.000363954 5.29802 1.53092 6.828576 3.415087 6.828576 C 5.299254 6.828576 6.829809 5.29802 6.829809 3.413853 C 6.829809 1.529687 5.299254 -0.000869197 3.415087 -0.000869197 Z M 3.415087 -0.000869197 " stroke="#a31d18" stroke-width="2" stroke-opacity="1" stroke-miterlimit="4"/></g></g><g clip-path="url(#92b4e04a4d)"><g clip-path="url(#6d8d633628)"><path fill="#3295de" d="M 11.65625 15.144531 L 16.714844 15.144531 L 16.714844 20.203125 L 11.65625 20.203125 Z M 11.65625 15.144531 " fill-opacity="1" fill-rule="nonzero"/></g></g><g clip-path="url(#398d0d1d3f)"><g clip-path="url(#2a039e2d4e)"><path stroke-linecap="butt" transform="matrix(0.740131, 0, 0, 0.740131, 11.655148, 15.145175)" fill="none" stroke-linejoin="miter" d="M 3.416212 -0.000869197 C 1.526767 -0.000869197 0.00148929 1.529687 0.00148929 3.413853 C 0.00148929 5.29802 1.526767 6.828576 3.416212 6.828576 C 5.300379 6.828576 6.825657 5.29802 6.825657 3.413853 C 6.825657 1.529687 5.300379 -0.000869197 3.416212 -0.000869197 Z M 3.416212 -0.000869197 " stroke="#1c7dc5" stroke-width="2" stroke-opacity="1" stroke-miterlimit="4"/></g></g><g clip-path="url(#cd1d12e673)"><g clip-path="url(#5102d2879a)"><path fill="#e8ca16" d="M 15.972656 10.851562 L 21.03125 10.851562 L 21.03125 15.914062 L 15.972656 15.914062 Z M 15.972656 10.851562 " fill-opacity="1" fill-rule="nonzero"/></g></g><g clip-path="url(#20a0d860c2)"><g clip-path="url(#76ac50244b)"><path stroke-linecap="butt" transform="matrix(0.740131, 0, 0, 0.740131, 15.973923, 10.853436)" fill="none" stroke-linejoin="miter" d="M 3.413011 -0.00253169 C 1.528844 -0.00253169 -0.00171211 1.528024 -0.00171211 3.412191 C -0.00171211 5.301636 1.528844 6.826914 3.413011 6.826914 C 5.297177 6.826914 6.827733 5.301636 6.827733 3.412191 C 6.827733 1.528024 5.297177 -0.00253169 3.413011 -0.00253169 Z M 3.413011 -0.00253169 " stroke="#d5bb20" stroke-width="2" stroke-opacity="1" stroke-miterlimit="4"/></g></g></svg>