<svg xmlns="http://www.w3.org/2000/svg" xmlns:xlink="http://www.w3.org/1999/xlink" width="100" zoomAndPan="magnify" viewBox="0 0 75 74.999997" height="100" preserveAspectRatio="xMidYMid meet" version="1.0"><defs><clipPath id="58a46b5653"><path d="M 18 21.964844 L 35 21.964844 L 35 35 L 18 35 Z M 18 21.964844 " clip-rule="nonzero"/></clipPath><clipPath id="74286af707"><path d="M 2.523438 33 L 21 33 L 21 48.214844 L 2.523438 48.214844 Z M 2.523438 33 " clip-rule="nonzero"/></clipPath><clipPath id="54bbbeb9a0"><path d="M 51 34 L 72.273438 34 L 72.273438 46 L 51 46 Z M 51 34 " clip-rule="nonzero"/></clipPath></defs><g clip-path="url(#58a46b5653)"><path fill="#ffffff" d="M 33.738281 30.3125 C 33.785156 30.347656 33.832031 30.386719 33.878906 30.421875 C 33.910156 30.445312 33.941406 30.46875 33.972656 30.492188 C 34.203125 30.664062 34.464844 30.863281 34.777344 30.769531 L 34.78125 30.765625 C 34.863281 30.695312 34.90625 30.601562 34.90625 30.488281 C 34.902344 30.34375 34.847656 30.222656 34.734375 30.125 C 34.609375 29.996094 34.476562 29.867188 34.347656 29.742188 C 33.925781 29.359375 33.546875 28.9375 33.214844 28.472656 C 32.9375 28.046875 32.710938 27.597656 32.535156 27.121094 C 32.460938 26.949219 32.390625 26.769531 32.3125 26.597656 C 32.070312 26.050781 31.65625 25.617188 31.253906 25.199219 C 31.019531 24.960938 30.792969 24.707031 30.585938 24.445312 C 30.351562 24.160156 30.132812 23.851562 29.917969 23.550781 C 29.59375 23.066406 29.230469 22.613281 28.820312 22.195312 C 28.691406 22.046875 28.527344 21.96875 28.332031 21.964844 L 28.324219 21.964844 C 28.175781 21.960938 28.046875 22.015625 27.945312 22.128906 C 27.589844 22.46875 27.257812 22.832031 26.945312 23.214844 C 26.78125 23.410156 26.609375 23.613281 26.433594 23.804688 C 25.472656 24.90625 24.347656 25.878906 23.261719 26.820312 C 22.839844 27.1875 22.40625 27.566406 21.984375 27.945312 C 21.609375 28.277344 21.417969 28.738281 21.234375 29.183594 C 21.171875 29.335938 21.105469 29.492188 21.035156 29.640625 C 20.917969 29.894531 20.800781 30.15625 20.691406 30.40625 C 20.367188 31.121094 20.035156 31.859375 19.671875 32.570312 C 19.574219 32.792969 19.363281 32.921875 19.15625 33.046875 C 18.90625 33.199219 18.648438 33.359375 18.605469 33.691406 C 18.527344 33.957031 18.554688 34.347656 18.730469 34.515625 C 18.796875 34.578125 18.875 34.609375 18.964844 34.609375 C 19.019531 34.609375 19.074219 34.597656 19.125 34.582031 C 19.742188 34.367188 20.257812 33.945312 20.757812 33.535156 C 20.839844 33.472656 20.921875 33.40625 21 33.339844 C 21.371094 32.996094 21.761719 32.683594 22.179688 32.398438 C 22.621094 32.101562 23.03125 31.769531 23.414062 31.402344 L 23.421875 31.394531 L 23.414062 31.390625 C 23.207031 31.265625 22.980469 31.191406 22.738281 31.171875 C 22.601562 31.152344 22.46875 31.125 22.335938 31.082031 C 22.558594 30.695312 22.828125 30.351562 23.15625 30.046875 C 23.195312 30.007812 23.238281 29.964844 23.277344 29.921875 C 23.933594 29.292969 24.636719 28.6875 25.3125 28.101562 C 25.925781 27.570312 26.5625 27.023438 27.164062 26.457031 C 26.804688 27.320312 26.425781 27.957031 25.984375 28.464844 C 25.695312 28.765625 25.707031 29.167969 25.722656 29.554688 C 25.753906 29.824219 25.730469 30.089844 25.652344 30.351562 C 25.375 30.757812 25.058594 31.140625 24.753906 31.515625 C 24.308594 32.023438 23.910156 32.570312 23.558594 33.144531 L 23.550781 33.164062 L 23.570312 33.15625 C 24.628906 32.667969 25.339844 31.730469 26.027344 30.828125 C 26.277344 30.5 26.53125 30.164062 26.800781 29.855469 C 27.3125 29.128906 27.972656 28.585938 28.78125 28.222656 C 29.027344 28.296875 29.273438 28.378906 29.511719 28.457031 C 30.121094 28.65625 30.75 28.859375 31.386719 29 L 31.394531 29 L 31.394531 28.992188 C 31.324219 28.566406 31.226562 28.136719 31.136719 27.726562 C 31.0625 27.402344 30.988281 27.070312 30.925781 26.742188 C 31.226562 27.160156 31.5 27.59375 31.757812 28.042969 C 31.933594 28.339844 32.113281 28.644531 32.304688 28.9375 C 32.675781 29.496094 33.21875 29.910156 33.738281 30.3125 Z M 33.738281 30.3125 " fill-opacity="1" fill-rule="nonzero"/></g><path fill="#ffffff" d="M 40.433594 33.273438 C 40.042969 34.238281 39.488281 35.140625 38.953125 36.011719 C 38.484375 36.738281 38.058594 37.492188 37.675781 38.273438 L 37.667969 38.289062 L 37.683594 38.28125 C 38.066406 38.101562 38.351562 37.785156 38.628906 37.480469 C 38.730469 37.371094 38.835938 37.253906 38.945312 37.148438 C 39.417969 36.613281 39.917969 36.085938 40.398438 35.574219 C 41.054688 34.875 41.738281 34.152344 42.363281 33.40625 L 42.363281 33.398438 C 42.324219 33.054688 42.265625 32.703125 42.214844 32.367188 C 42.144531 31.925781 42.070312 31.46875 42.03125 31.011719 C 43.019531 31.464844 43.835938 32.191406 44.628906 32.898438 C 44.875 33.117188 45.125 33.339844 45.378906 33.554688 L 45.394531 33.566406 L 45.390625 33.546875 C 45.273438 32.933594 45.101562 32.335938 44.867188 31.757812 C 44.769531 31.492188 44.667969 31.214844 44.582031 30.9375 C 44.53125 30.78125 44.476562 30.621094 44.425781 30.46875 C 44.238281 29.933594 44.046875 29.378906 44.089844 28.800781 C 44.375 28.980469 44.621094 29.199219 44.828125 29.460938 C 44.933594 29.578125 45.039062 29.699219 45.15625 29.808594 C 45.292969 29.96875 45.445312 30.121094 45.59375 30.269531 C 45.867188 30.527344 46.109375 30.804688 46.324219 31.109375 C 46.375 31.324219 46.398438 31.539062 46.394531 31.757812 C 46.378906 32.042969 46.425781 32.3125 46.53125 32.578125 C 46.820312 32.867188 47.125 33.128906 47.457031 33.367188 C 47.785156 33.605469 48.097656 33.871094 48.382812 34.160156 C 48.535156 34.480469 48.667969 34.816406 48.796875 35.140625 C 48.871094 35.316406 48.941406 35.503906 49.019531 35.683594 C 48.855469 35.664062 48.691406 35.640625 48.535156 35.617188 C 48.367188 35.589844 48.195312 35.5625 48.023438 35.546875 L 48.007812 35.542969 L 48.019531 35.558594 C 48.234375 35.789062 48.460938 36.003906 48.703125 36.207031 C 48.828125 36.3125 48.957031 36.425781 49.082031 36.539062 C 49.136719 36.589844 49.195312 36.640625 49.25 36.691406 C 49.488281 36.90625 49.734375 37.128906 50.054688 37.210938 L 50.066406 37.214844 L 50.0625 37.203125 C 49.992188 36.964844 49.898438 36.742188 49.769531 36.53125 C 49.628906 36.300781 49.527344 36.050781 49.464844 35.789062 C 50.054688 36.25 50.609375 36.742188 51.136719 37.273438 L 51.144531 37.285156 L 51.148438 37.269531 C 51.148438 37.125 51.148438 36.980469 51.148438 36.839844 C 51.148438 36.703125 51.148438 36.5625 51.152344 36.425781 C 51.425781 36.613281 51.695312 36.824219 51.953125 37.03125 C 52.378906 37.390625 52.835938 37.707031 53.324219 37.96875 L 53.328125 37.972656 C 53.445312 37.980469 53.519531 37.929688 53.5625 37.824219 C 53.609375 37.667969 53.570312 37.539062 53.449219 37.433594 C 52.945312 36.855469 52.421875 36.308594 51.839844 35.703125 C 51.585938 35.464844 51.296875 35.285156 50.972656 35.160156 C 50.621094 35 50.257812 34.832031 50.015625 34.5 C 49.347656 33.628906 48.734375 32.71875 48.175781 31.777344 C 47.449219 30.609375 46.699219 29.402344 45.746094 28.371094 C 45.347656 27.945312 44.9375 27.519531 44.542969 27.105469 C 43.832031 26.359375 43.097656 25.585938 42.382812 24.820312 C 42.269531 24.714844 42.164062 24.597656 42.0625 24.488281 C 41.863281 24.253906 41.640625 24.046875 41.398438 23.859375 C 41.320312 23.792969 41.226562 23.765625 41.125 23.777344 C 40.902344 23.808594 40.722656 24.0625 40.585938 24.246094 L 40.578125 24.253906 C 39.925781 25.210938 39.226562 26.109375 38.445312 27.097656 C 38.15625 27.46875 37.871094 27.859375 37.597656 28.238281 C 37.042969 29.039062 36.433594 29.796875 35.769531 30.511719 C 35.238281 31.09375 34.664062 31.625 34.042969 32.109375 C 33.324219 32.703125 32.578125 33.320312 32.007812 34.085938 C 31.777344 34.421875 31.613281 34.78125 31.507812 35.171875 C 31.414062 35.5 31.28125 35.808594 31.113281 36.105469 C 31.058594 36.199219 31 36.292969 30.945312 36.386719 C 30.542969 37.054688 30.128906 37.742188 29.589844 38.316406 C 29.226562 38.699219 28.742188 38.90625 28.269531 39.105469 C 28.179688 39.144531 28.089844 39.183594 28.003906 39.222656 C 27.625 39.367188 27.421875 39.714844 27.230469 40.054688 C 27.191406 40.121094 27.148438 40.191406 27.109375 40.257812 C 26.730469 40.917969 26.289062 41.550781 25.863281 42.167969 C 25.554688 42.613281 25.234375 43.074219 24.9375 43.539062 L 24.917969 43.578125 L 24.949219 43.546875 C 25.683594 42.914062 26.371094 42.207031 27.035156 41.519531 C 27.40625 41.136719 27.789062 40.742188 28.175781 40.363281 C 28.675781 40.132812 29.148438 39.851562 29.585938 39.519531 C 29.792969 39.378906 30.003906 39.230469 30.21875 39.097656 C 30.363281 38.992188 30.515625 38.890625 30.664062 38.792969 C 30.984375 38.601562 31.28125 38.375 31.550781 38.113281 L 31.554688 38.109375 L 31.550781 38.105469 C 31.386719 37.886719 31.207031 37.683594 31.015625 37.492188 C 31.160156 37.132812 31.429688 36.847656 31.6875 36.578125 C 31.761719 36.5 31.839844 36.421875 31.910156 36.339844 C 33.003906 35.179688 34.246094 33.859375 35.496094 32.589844 C 35.550781 32.535156 35.605469 32.480469 35.65625 32.425781 C 35.851562 32.191406 36.085938 32.007812 36.363281 31.875 C 36.28125 32.359375 36.050781 32.800781 35.828125 33.230469 C 35.589844 33.6875 35.34375 34.164062 35.28125 34.6875 L 35.28125 34.699219 L 35.289062 34.695312 C 35.316406 34.679688 35.339844 34.667969 35.363281 34.652344 C 35.5 34.574219 35.632812 34.484375 35.757812 34.382812 C 36.398438 33.816406 37.019531 33.203125 37.621094 32.613281 C 38.199219 32.046875 38.796875 31.457031 39.410156 30.910156 C 38.898438 31.75 38.308594 32.554688 37.742188 33.335938 C 37.140625 34.152344 36.523438 35 35.996094 35.886719 L 35.996094 35.890625 C 36.023438 35.941406 36.054688 35.992188 36.085938 36.039062 C 36.195312 36.199219 36.3125 36.378906 36.167969 36.546875 C 35.386719 37.742188 34.5 38.894531 33.644531 40.011719 C 33.324219 40.433594 32.988281 40.871094 32.664062 41.300781 L 32.675781 41.3125 C 33.503906 40.453125 34.34375 39.578125 35.15625 38.730469 C 36.878906 36.933594 38.660156 35.078125 40.433594 33.273438 Z M 40.433594 33.273438 " fill-opacity="1" fill-rule="nonzero"/><path fill="#ffffff" d="M 26.335938 36.039062 L 26.335938 36.046875 L 26.347656 36.042969 C 26.652344 35.929688 26.867188 35.6875 27.078125 35.453125 C 27.132812 35.394531 27.1875 35.332031 27.242188 35.273438 C 27.398438 35.09375 27.5625 34.917969 27.71875 34.742188 C 28.179688 34.246094 28.652344 33.726562 28.992188 33.125 C 29.125 32.878906 29.234375 32.621094 29.324219 32.355469 C 29.410156 32.097656 29.515625 31.847656 29.644531 31.609375 C 29.921875 31.839844 30.183594 32.089844 30.433594 32.351562 C 30.855469 32.785156 31.296875 33.230469 31.851562 33.515625 L 31.863281 33.519531 L 31.859375 33.507812 C 31.796875 33.230469 31.679688 32.984375 31.503906 32.761719 C 31.460938 32.691406 31.410156 32.621094 31.367188 32.554688 C 31.070312 32.109375 30.78125 31.648438 30.503906 31.203125 C 30.148438 30.636719 29.785156 30.054688 29.398438 29.5 C 29.386719 29.492188 29.378906 29.480469 29.371094 29.46875 C 29.234375 29.304688 29.046875 29.082031 28.820312 29.195312 C 28.339844 29.386719 27.941406 29.738281 27.558594 30.078125 C 27.464844 30.160156 27.371094 30.246094 27.277344 30.324219 C 26.003906 31.472656 24.832031 32.753906 23.695312 33.996094 C 23.332031 34.390625 22.957031 34.800781 22.582031 35.199219 C 22.453125 35.355469 22.3125 35.507812 22.175781 35.65625 C 21.808594 36.058594 21.429688 36.472656 21.191406 36.972656 L 21.183594 36.988281 L 21.203125 36.980469 C 21.660156 36.722656 22.078125 36.410156 22.453125 36.042969 C 22.550781 35.957031 22.648438 35.867188 22.746094 35.78125 C 23.074219 35.496094 23.398438 35.191406 23.710938 34.898438 C 24.410156 34.246094 25.132812 33.570312 25.941406 33.03125 C 25.875 33.460938 25.636719 33.832031 25.40625 34.191406 C 25.15625 34.578125 24.898438 34.976562 24.855469 35.445312 L 24.855469 35.457031 L 24.863281 35.453125 C 25.460938 35.125 25.976562 34.664062 26.476562 34.222656 C 26.882812 33.84375 27.3125 33.496094 27.765625 33.183594 C 27.59375 33.636719 27.367188 34.066406 27.089844 34.464844 C 26.78125 34.953125 26.460938 35.457031 26.335938 36.039062 Z M 26.335938 36.039062 " fill-opacity="1" fill-rule="nonzero"/><g clip-path="url(#74286af707)"><path fill="#ffffff" d="M 18.484375 40.914062 C 19.003906 40.492188 19.539062 40.058594 20.191406 39.84375 L 20.195312 39.839844 C 20.386719 39.242188 20.421875 38.636719 20.304688 38.023438 C 20.171875 37.601562 19.890625 37.253906 19.617188 36.917969 C 19.492188 36.769531 19.367188 36.613281 19.253906 36.453125 C 18.9375 36.027344 18.65625 35.578125 18.410156 35.105469 C 18.148438 34.59375 17.839844 34.113281 17.484375 33.660156 C 17.335938 33.464844 17.140625 33.347656 16.898438 33.3125 C 16.75 33.300781 16.625 33.347656 16.519531 33.449219 C 16.179688 33.761719 15.859375 34.09375 15.5625 34.445312 C 15.375 34.652344 15.1875 34.871094 14.988281 35.070312 C 14.207031 35.917969 13.300781 36.65625 12.425781 37.371094 C 11.503906 38.121094 10.550781 38.894531 9.742188 39.796875 C 9.625 39.921875 9.507812 40.050781 9.394531 40.171875 C 8.894531 40.714844 8.378906 41.277344 7.714844 41.625 C 7.523438 41.714844 7.328125 41.777344 7.121094 41.804688 C 6.789062 41.871094 6.445312 41.941406 6.242188 42.246094 C 6.015625 42.578125 5.808594 42.921875 5.625 43.277344 C 5.511719 43.488281 5.394531 43.703125 5.273438 43.910156 C 4.867188 44.570312 4.421875 45.199219 3.929688 45.800781 C 3.449219 46.390625 3.007812 47.007812 2.609375 47.65625 L 2.589844 47.691406 L 2.621094 47.664062 C 3.199219 47.164062 3.746094 46.605469 4.277344 46.066406 C 4.5 45.839844 4.726562 45.609375 4.957031 45.382812 C 5.042969 45.296875 5.132812 45.207031 5.21875 45.117188 C 5.570312 44.75 5.9375 44.367188 6.464844 44.300781 L 6.46875 44.296875 L 6.46875 44.292969 C 6.585938 43.628906 7.117188 43.265625 7.632812 42.910156 C 7.789062 42.800781 7.949219 42.691406 8.09375 42.574219 C 8.324219 42.417969 8.550781 42.246094 8.769531 42.078125 C 9.164062 41.753906 9.585938 41.472656 10.035156 41.222656 C 10.015625 41.699219 9.828125 42.144531 9.648438 42.574219 C 9.542969 42.816406 9.449219 43.0625 9.371094 43.3125 C 9.277344 43.6875 8.992188 43.941406 8.71875 44.1875 C 8.625 44.269531 8.53125 44.355469 8.445312 44.441406 C 8.191406 44.6875 7.921875 44.933594 7.664062 45.167969 C 7.066406 45.699219 6.5 46.261719 5.96875 46.855469 L 5.941406 46.886719 L 5.976562 46.867188 C 6.464844 46.554688 6.933594 46.207031 7.375 45.835938 C 7.625 45.636719 7.878906 45.429688 8.140625 45.238281 C 8.355469 45.058594 8.578125 44.878906 8.792969 44.703125 C 9.859375 43.839844 10.960938 42.945312 11.90625 41.925781 L 11.914062 41.914062 L 11.902344 41.914062 C 11.789062 41.910156 11.671875 41.910156 11.558594 41.910156 C 11.339844 41.90625 11.109375 41.90625 10.886719 41.886719 C 11.023438 41.507812 11.296875 41.203125 11.558594 40.90625 C 11.601562 40.859375 11.644531 40.8125 11.683594 40.765625 C 12.492188 39.933594 13.335938 39.148438 14.226562 38.410156 C 14.753906 37.953125 15.300781 37.484375 15.816406 37 C 15.550781 37.769531 15.21875 38.507812 14.816406 39.21875 C 14.785156 39.433594 14.777344 39.648438 14.789062 39.867188 C 14.796875 40.265625 14.804688 40.675781 14.546875 41.003906 C 14.480469 41.097656 14.410156 41.191406 14.339844 41.285156 C 13.9375 41.796875 13.589844 42.347656 13.300781 42.929688 L 13.292969 42.953125 L 13.3125 42.9375 C 13.867188 42.539062 14.378906 42.089844 14.847656 41.589844 C 15.03125 41.402344 15.222656 41.210938 15.414062 41.03125 C 15.855469 40.546875 16.449219 40.261719 17.023438 39.988281 C 17.253906 39.878906 17.492188 39.765625 17.714844 39.640625 C 17.433594 40.121094 17.128906 40.582031 16.796875 41.027344 C 15.914062 42.242188 14.6875 43.144531 13.507812 44.019531 C 13.175781 44.265625 12.832031 44.515625 12.503906 44.773438 C 11.882812 45.25 11.234375 45.714844 10.609375 46.164062 C 9.710938 46.8125 8.777344 47.484375 7.90625 48.199219 L 7.914062 48.210938 L 7.929688 48.199219 C 11.277344 46.035156 14.738281 43.800781 17.953125 41.332031 C 18.132812 41.199219 18.308594 41.054688 18.484375 40.914062 Z M 18.484375 40.914062 " fill-opacity="1" fill-rule="nonzero"/></g><path fill="#ffffff" d="M 52.554688 42.988281 C 52.316406 42.828125 52.070312 42.664062 51.832031 42.5 C 51.742188 42.441406 51.648438 42.378906 51.558594 42.316406 C 51.074219 41.996094 50.570312 41.664062 50.285156 41.144531 C 50.238281 41.0625 50.195312 40.980469 50.152344 40.902344 C 49.910156 40.453125 49.660156 39.992188 49.21875 39.714844 C 48.824219 39.488281 48.410156 39.304688 47.980469 39.160156 C 47.4375 38.957031 46.875 38.746094 46.414062 38.371094 C 46.035156 37.914062 45.847656 37.347656 45.664062 36.796875 C 45.488281 36.265625 45.304688 35.714844 44.945312 35.261719 C 44.414062 34.609375 43.558594 34.414062 42.933594 34.363281 C 42.53125 34.371094 42.257812 34.6875 42.015625 34.964844 C 41.96875 35.019531 41.925781 35.066406 41.882812 35.117188 C 41.371094 35.742188 40.863281 36.386719 40.371094 37.007812 C 39.945312 37.550781 39.5 38.109375 39.058594 38.65625 C 38.816406 38.914062 38.789062 39.261719 38.765625 39.597656 C 38.761719 39.683594 38.753906 39.769531 38.746094 39.855469 C 37.917969 40.503906 37.105469 41.195312 36.316406 41.863281 C 36.046875 42.09375 35.765625 42.332031 35.492188 42.566406 C 35.355469 42.691406 35.210938 42.8125 35.070312 42.929688 C 34.75 43.175781 34.460938 43.460938 34.210938 43.78125 L 34.191406 43.808594 L 34.21875 43.792969 C 35.382812 43.054688 36.535156 42.257812 37.652344 41.484375 C 37.960938 41.269531 38.28125 41.050781 38.597656 40.832031 C 40.015625 39.871094 41.332031 38.785156 42.550781 37.578125 C 42.578125 37.554688 42.601562 37.527344 42.628906 37.503906 C 42.71875 37.402344 42.828125 37.324219 42.953125 37.269531 C 43.289062 37.394531 43.601562 37.5625 43.886719 37.777344 C 44.007812 37.859375 44.132812 37.945312 44.257812 38.019531 C 44.894531 38.453125 45.539062 38.898438 46.164062 39.332031 C 47.585938 40.324219 49.058594 41.347656 50.566406 42.261719 C 50.8125 42.398438 51.058594 42.535156 51.300781 42.671875 C 52.273438 43.242188 53.273438 43.753906 54.300781 44.214844 L 54.351562 44.238281 L 54.308594 44.203125 C 53.738281 43.777344 53.136719 43.375 52.554688 42.988281 Z M 52.554688 42.988281 " fill-opacity="1" fill-rule="nonzero"/><g clip-path="url(#54bbbeb9a0)"><path fill="#ffffff" d="M 72.179688 45.457031 C 71.816406 45.136719 71.417969 44.84375 71.035156 44.5625 C 70.835938 44.414062 70.628906 44.257812 70.425781 44.101562 C 70.351562 44.050781 70.277344 43.996094 70.207031 43.941406 C 69.617188 43.511719 69.007812 43.066406 68.253906 43.046875 C 67.667969 43.023438 67.238281 42.632812 66.820312 42.257812 C 66.785156 42.222656 66.75 42.191406 66.714844 42.160156 C 66.636719 42.089844 66.554688 42.019531 66.472656 41.957031 C 66.269531 41.800781 66.058594 41.636719 65.992188 41.375 C 65.851562 40.902344 65.457031 40.617188 65.078125 40.34375 C 64.941406 40.246094 64.800781 40.144531 64.675781 40.035156 C 64.019531 39.542969 63.433594 38.972656 62.925781 38.332031 C 62.160156 37.449219 61.226562 36.730469 60.324219 36.035156 C 59.902344 35.703125 59.460938 35.363281 59.042969 35.011719 C 58.675781 34.6875 58.332031 34.59375 58.046875 34.742188 C 57.765625 34.925781 57.511719 35.140625 57.285156 35.382812 C 57.03125 35.65625 56.746094 35.886719 56.425781 36.078125 C 56.230469 36.160156 56.03125 36.230469 55.828125 36.285156 C 55.484375 36.386719 55.128906 36.492188 54.847656 36.734375 C 54.425781 37.085938 54.152344 37.566406 53.886719 38.035156 C 53.78125 38.222656 53.671875 38.414062 53.554688 38.597656 C 53.1875 39.15625 52.773438 39.671875 52.3125 40.152344 C 52.183594 40.292969 52.050781 40.441406 51.921875 40.585938 C 51.902344 40.613281 51.878906 40.636719 51.859375 40.664062 C 51.675781 40.839844 51.554688 41.050781 51.492188 41.296875 C 51.484375 41.433594 51.542969 41.527344 51.667969 41.578125 C 51.800781 41.640625 51.921875 41.617188 52.027344 41.511719 C 52.40625 41.183594 52.78125 40.832031 53.140625 40.492188 C 53.550781 40.105469 53.972656 39.703125 54.410156 39.332031 C 54.570312 39.164062 54.757812 39.128906 54.972656 39.226562 L 54.976562 39.226562 C 55.335938 38.914062 55.691406 38.582031 56.03125 38.261719 C 56.621094 37.691406 57.238281 37.152344 57.890625 36.648438 L 57.933594 36.683594 C 58.066406 36.78125 58.191406 36.886719 58.308594 37 C 59.183594 37.957031 60.34375 39.203125 61.558594 40.390625 C 61.679688 40.503906 61.800781 40.621094 61.917969 40.734375 C 62.386719 41.191406 62.875 41.664062 63.445312 42.011719 L 63.464844 42.023438 L 63.453125 42.003906 C 63.027344 41.140625 62.425781 40.367188 61.839844 39.621094 C 61.589844 39.296875 61.328125 38.960938 61.085938 38.625 C 61.914062 39.101562 62.707031 39.667969 63.476562 40.21875 C 63.640625 40.335938 63.8125 40.457031 63.980469 40.578125 C 64.0625 40.648438 64.160156 40.714844 64.253906 40.777344 C 64.488281 40.941406 64.730469 41.109375 64.839844 41.386719 C 64.753906 41.40625 64.671875 41.425781 64.585938 41.445312 C 64.445312 41.476562 64.296875 41.511719 64.15625 41.546875 L 64.144531 41.550781 L 64.152344 41.558594 C 64.703125 42.101562 65.363281 42.53125 66 42.945312 C 66.128906 43.027344 66.261719 43.113281 66.386719 43.199219 C 66.488281 43.261719 66.59375 43.324219 66.691406 43.386719 C 67.15625 43.699219 67.644531 43.960938 68.15625 44.175781 C 68.34375 44.269531 68.535156 44.207031 68.71875 44.148438 C 68.921875 44.082031 69.113281 44.023438 69.304688 44.148438 C 69.53125 44.257812 69.765625 44.371094 69.988281 44.480469 C 70.695312 44.824219 71.425781 45.183594 72.171875 45.46875 L 72.203125 45.480469 Z M 72.179688 45.457031 " fill-opacity="1" fill-rule="nonzero"/></g><path fill="#ffffff" d="M 55.855469 40.292969 C 56.347656 39.792969 56.851562 39.277344 57.226562 38.675781 L 57.246094 38.644531 L 57.21875 38.667969 C 56.761719 39.046875 56.332031 39.449219 55.925781 39.878906 C 55.746094 40.0625 55.558594 40.25 55.371094 40.433594 C 55.242188 40.570312 55.105469 40.710938 54.972656 40.847656 C 54.4375 41.390625 53.886719 41.957031 53.488281 42.621094 L 53.46875 42.65625 L 53.5 42.628906 C 53.921875 42.257812 54.328125 41.847656 54.71875 41.453125 C 54.902344 41.269531 55.09375 41.078125 55.285156 40.890625 C 55.46875 40.6875 55.664062 40.488281 55.855469 40.292969 Z M 55.855469 40.292969 " fill-opacity="1" fill-rule="nonzero"/><path fill="#ffffff" d="M 46.601562 41.574219 C 46.246094 41.269531 45.878906 40.949219 45.527344 40.628906 C 45.316406 40.402344 45.15625 40.144531 45.042969 39.855469 C 44.890625 39.535156 44.734375 39.199219 44.429688 38.984375 C 43.996094 38.78125 43.625 39.089844 43.300781 39.359375 C 43.207031 39.4375 43.117188 39.515625 43.027344 39.574219 L 43.027344 39.578125 C 42.632812 39.867188 42.253906 40.191406 41.886719 40.507812 C 41.167969 41.125 40.421875 41.765625 39.535156 42.164062 C 38.738281 42.53125 38.027344 43.03125 37.410156 43.65625 C 37.171875 43.90625 36.949219 44.171875 36.742188 44.449219 C 36.574219 44.667969 36.402344 44.890625 36.21875 45.09375 C 35.796875 45.558594 35.230469 45.820312 34.679688 46.078125 C 34.058594 46.367188 33.414062 46.664062 32.988281 47.246094 L 32.96875 47.273438 L 32.996094 47.257812 C 33.164062 47.160156 33.324219 47.050781 33.480469 46.9375 C 33.648438 46.808594 33.824219 46.695312 34.007812 46.589844 C 34.246094 46.464844 34.5 46.351562 34.742188 46.242188 C 35.183594 46.054688 35.605469 45.832031 36.007812 45.570312 C 36.429688 45.257812 36.828125 44.914062 37.207031 44.546875 C 37.699219 44.085938 38.210938 43.605469 38.816406 43.265625 C 39.0625 43.121094 39.324219 42.992188 39.574219 42.863281 C 39.867188 42.71875 40.167969 42.566406 40.453125 42.394531 C 41.074219 42.015625 41.683594 41.59375 42.269531 41.183594 C 42.617188 40.941406 42.976562 40.691406 43.332031 40.453125 C 43.53125 40.292969 43.730469 40.289062 43.9375 40.4375 C 44.6875 40.871094 45.417969 41.363281 46.128906 41.839844 C 46.882812 42.34375 47.664062 42.871094 48.464844 43.328125 L 48.503906 43.347656 L 48.476562 43.316406 C 47.882812 42.699219 47.257812 42.121094 46.601562 41.574219 Z M 46.601562 41.574219 " fill-opacity="1" fill-rule="nonzero"/><path fill="#ffffff" d="M 25.433594 45.078125 C 25.269531 44.9375 25.09375 44.796875 24.925781 44.660156 C 24.421875 44.25 23.898438 43.824219 23.488281 43.300781 C 23.152344 42.851562 22.949219 42.324219 22.757812 41.8125 C 22.628906 41.449219 22.476562 41.101562 22.300781 40.757812 C 22.003906 40.148438 21.265625 39.976562 20.65625 39.894531 C 20.257812 39.808594 19.949219 40.105469 19.726562 40.375 C 19.34375 40.8125 18.945312 41.246094 18.5625 41.667969 C 18.148438 42.125 17.71875 42.59375 17.308594 43.070312 C 17.152344 43.234375 17.140625 43.460938 17.128906 43.679688 C 17.125 43.746094 17.125 43.8125 17.117188 43.875 C 16.867188 44.113281 16.597656 44.34375 16.339844 44.5625 C 15.824219 45.003906 15.289062 45.460938 14.882812 46.015625 L 14.863281 46.042969 L 14.890625 46.027344 C 16.710938 44.949219 18.425781 43.71875 20.027344 42.332031 C 20.066406 42.308594 20.097656 42.28125 20.132812 42.253906 C 20.246094 42.15625 20.371094 42.050781 20.507812 42.160156 C 21.113281 42.507812 21.691406 42.898438 22.246094 43.324219 C 22.5 43.515625 22.765625 43.707031 23.027344 43.890625 C 24.984375 45.308594 26.519531 46.34375 28.007812 47.257812 L 28.015625 47.25 C 27.511719 46.785156 26.972656 46.347656 26.449219 45.921875 C 26.113281 45.648438 25.769531 45.367188 25.433594 45.078125 Z M 25.433594 45.078125 " fill-opacity="1" fill-rule="nonzero"/><path fill="#ffffff" d="M 57.320312 41.230469 C 57.113281 41.097656 56.953125 41.257812 56.808594 41.402344 C 56.769531 41.4375 56.734375 41.472656 56.703125 41.5 C 56.558594 41.652344 56.40625 41.804688 56.261719 41.953125 C 55.859375 42.347656 55.480469 42.769531 55.132812 43.21875 L 55.117188 43.238281 L 55.140625 43.226562 C 55.507812 43.042969 55.859375 42.832031 56.191406 42.589844 C 56.554688 42.328125 56.933594 42.105469 57.335938 41.914062 C 57.703125 42.019531 58.058594 42.164062 58.398438 42.34375 C 58.640625 42.464844 58.890625 42.574219 59.144531 42.671875 L 59.175781 42.683594 L 59.148438 42.660156 C 58.585938 42.128906 57.972656 41.652344 57.320312 41.230469 Z M 57.320312 41.230469 " fill-opacity="1" fill-rule="nonzero"/><path fill="#ffffff" d="M 23.058594 45.234375 C 22.761719 44.992188 22.453125 44.746094 22.171875 44.476562 C 22.039062 44.320312 21.929688 44.144531 21.84375 43.960938 C 21.734375 43.710938 21.582031 43.496094 21.382812 43.316406 C 21.121094 43.140625 20.828125 43.324219 20.710938 43.414062 C 20.238281 43.742188 19.789062 44.109375 19.351562 44.46875 C 19.035156 44.726562 18.707031 44.996094 18.375 45.246094 C 18.117188 45.429688 17.847656 45.589844 17.566406 45.726562 C 17.371094 45.824219 17.167969 45.929688 16.980469 46.046875 C 16.25 46.488281 15.707031 47.164062 15.179688 47.816406 C 15.140625 47.863281 15.105469 47.910156 15.066406 47.960938 L 15.042969 47.988281 L 15.074219 47.96875 C 15.414062 47.75 15.730469 47.503906 16.03125 47.234375 C 16.441406 46.886719 16.867188 46.527344 17.371094 46.300781 C 18.347656 45.847656 19.257812 45.28125 20.101562 44.609375 C 20.148438 44.582031 20.195312 44.546875 20.242188 44.511719 C 20.445312 44.359375 20.675781 44.191406 20.914062 44.351562 C 21.445312 44.65625 21.972656 44.996094 22.480469 45.328125 C 23.105469 45.734375 23.75 46.152344 24.417969 46.515625 L 24.449219 46.53125 L 24.425781 46.503906 C 24.015625 46.035156 23.558594 45.609375 23.058594 45.234375 Z M 23.058594 45.234375 " fill-opacity="1" fill-rule="nonzero"/></svg>