<svg xmlns="http://www.w3.org/2000/svg" xmlns:xlink="http://www.w3.org/1999/xlink" width="50" zoomAndPan="magnify" viewBox="0 0 37.5 37.499999" height="50" preserveAspectRatio="xMidYMid meet" version="1.0"><defs><clipPath id="f003b50097"><path d="M 4.507812 4.507812 L 32.5 4.507812 L 32.5 32.5 L 4.507812 32.5 Z M 4.507812 4.507812 " clip-rule="nonzero"/></clipPath><clipPath id="4bb963ffd8"><path d="M 18.503906 4.507812 C 10.773438 4.507812 4.507812 10.773438 4.507812 18.503906 C 4.507812 26.234375 10.773438 32.5 18.503906 32.5 C 26.234375 32.5 32.5 26.234375 32.5 18.503906 C 32.5 10.773438 26.234375 4.507812 18.503906 4.507812 Z M 18.503906 4.507812 " clip-rule="nonzero"/></clipPath><radialGradient gradientTransform="matrix(1, 0, 0, 1, 4.506991, 4.506992)" gradientUnits="userSpaceOnUse" r="19.793716" cx="13.996297" id="bc6a5ce81a" cy="13.996297" fx="13.996297" fy="13.996297"><stop stop-opacity="1" stop-color="rgb(100%, 56.314087%, 8.181763%)" offset="0"/><stop stop-opacity="1" stop-color="rgb(100%, 55.992126%, 8.151245%)" offset="0.015625"/><stop stop-opacity="1" stop-color="rgb(100%, 55.714417%, 8.125305%)" offset="0.0273438"/><stop stop-opacity="1" stop-color="rgb(100%, 55.438232%, 8.099365%)" offset="0.0390625"/><stop stop-opacity="1" stop-color="rgb(100%, 55.162048%, 8.073425%)" offset="0.0507812"/><stop stop-opacity="1" stop-color="rgb(100%, 54.885864%, 8.047485%)" offset="0.0625"/><stop stop-opacity="1" stop-color="rgb(100%, 54.608154%, 8.023071%)" offset="0.0742188"/><stop stop-opacity="1" stop-color="rgb(100%, 54.33197%, 7.997131%)" offset="0.0859375"/><stop stop-opacity="1" stop-color="rgb(100%, 54.055786%, 7.971191%)" offset="0.0976562"/><stop stop-opacity="1" stop-color="rgb(100%, 53.779602%, 7.945251%)" offset="0.109375"/><stop stop-opacity="1" stop-color="rgb(100%, 53.501892%, 7.919312%)" offset="0.121094"/><stop stop-opacity="1" stop-color="rgb(100%, 53.225708%, 7.893372%)" offset="0.132812"/><stop stop-opacity="1" stop-color="rgb(100%, 52.949524%, 7.867432%)" offset="0.144531"/><stop stop-opacity="1" stop-color="rgb(100%, 52.67334%, 7.841492%)" offset="0.15625"/><stop stop-opacity="1" stop-color="rgb(100%, 52.39563%, 7.815552%)" offset="0.167969"/><stop stop-opacity="1" stop-color="rgb(100%, 52.119446%, 7.789612%)" offset="0.179688"/><stop stop-opacity="1" stop-color="rgb(100%, 51.843262%, 7.765198%)" offset="0.191406"/><stop stop-opacity="1" stop-color="rgb(100%, 51.567078%, 7.739258%)" offset="0.203125"/><stop stop-opacity="1" stop-color="rgb(100%, 51.289368%, 7.713318%)" offset="0.214844"/><stop stop-opacity="1" stop-color="rgb(100%, 51.013184%, 7.687378%)" offset="0.226562"/><stop stop-opacity="1" stop-color="rgb(100%, 50.737%, 7.661438%)" offset="0.238281"/><stop stop-opacity="1" stop-color="rgb(100%, 50.460815%, 7.635498%)" offset="0.25"/><stop stop-opacity="1" stop-color="rgb(100%, 50.230408%, 7.614136%)" offset="0.261719"/><stop stop-opacity="1" stop-color="rgb(100%, 50.045776%, 7.597351%)" offset="0.269531"/><stop stop-opacity="1" stop-color="rgb(100%, 49.861145%, 7.580566%)" offset="0.277344"/><stop stop-opacity="1" stop-color="rgb(100%, 49.676514%, 7.562256%)" offset="0.285156"/><stop stop-opacity="1" stop-color="rgb(100%, 49.491882%, 7.545471%)" offset="0.292969"/><stop stop-opacity="1" stop-color="rgb(100%, 49.307251%, 7.528687%)" offset="0.300781"/><stop stop-opacity="1" stop-color="rgb(100%, 49.124146%, 7.511902%)" offset="0.308594"/><stop stop-opacity="1" stop-color="rgb(100%, 48.939514%, 7.493591%)" offset="0.316406"/><stop stop-opacity="1" stop-color="rgb(100%, 48.754883%, 7.476807%)" offset="0.324219"/><stop stop-opacity="1" stop-color="rgb(100%, 48.570251%, 7.460022%)" offset="0.332031"/><stop stop-opacity="1" stop-color="rgb(100%, 48.38562%, 7.441711%)" offset="0.339844"/><stop stop-opacity="1" stop-color="rgb(100%, 48.200989%, 7.424927%)" offset="0.347656"/><stop stop-opacity="1" stop-color="rgb(100%, 48.017883%, 7.408142%)" offset="0.355469"/><stop stop-opacity="1" stop-color="rgb(100%, 47.833252%, 7.391357%)" offset="0.363281"/><stop stop-opacity="1" stop-color="rgb(100%, 47.648621%, 7.373047%)" offset="0.371094"/><stop stop-opacity="1" stop-color="rgb(100%, 47.372437%, 7.348633%)" offset="0.378906"/><stop stop-opacity="1" stop-color="rgb(100%, 47.003174%, 7.313538%)" offset="0.394531"/><stop stop-opacity="1" stop-color="rgb(100%, 46.635437%, 7.279968%)" offset="0.410156"/><stop stop-opacity="1" stop-color="rgb(100%, 46.266174%, 7.244873%)" offset="0.425781"/><stop stop-opacity="1" stop-color="rgb(100%, 45.896912%, 7.211304%)" offset="0.441406"/><stop stop-opacity="1" stop-color="rgb(100%, 45.529175%, 7.176208%)" offset="0.457031"/><stop stop-opacity="1" stop-color="rgb(100%, 45.159912%, 7.141113%)" offset="0.472656"/><stop stop-opacity="1" stop-color="rgb(100%, 44.883728%, 7.115173%)" offset="0.488281"/><stop stop-opacity="1" stop-color="rgb(100%, 44.685364%, 7.084656%)" offset="0.496094"/><stop stop-opacity="1" stop-color="rgb(100%, 44.400024%, 7.006836%)" offset="0.503906"/><stop stop-opacity="1" stop-color="rgb(100%, 44.041443%, 6.896973%)" offset="0.515625"/><stop stop-opacity="1" stop-color="rgb(100%, 43.682861%, 6.787109%)" offset="0.527344"/><stop stop-opacity="1" stop-color="rgb(100%, 43.32428%, 6.677246%)" offset="0.539062"/><stop stop-opacity="1" stop-color="rgb(100%, 42.965698%, 6.567383%)" offset="0.550781"/><stop stop-opacity="1" stop-color="rgb(100%, 42.607117%, 6.455994%)" offset="0.5625"/><stop stop-opacity="1" stop-color="rgb(100%, 42.248535%, 6.34613%)" offset="0.574219"/><stop stop-opacity="1" stop-color="rgb(100%, 41.889954%, 6.236267%)" offset="0.585938"/><stop stop-opacity="1" stop-color="rgb(100%, 41.531372%, 6.126404%)" offset="0.597656"/><stop stop-opacity="1" stop-color="rgb(100%, 41.172791%, 6.016541%)" offset="0.609375"/><stop stop-opacity="1" stop-color="rgb(100%, 40.814209%, 5.905151%)" offset="0.621094"/><stop stop-opacity="1" stop-color="rgb(100%, 40.515137%, 5.813599%)" offset="0.632812"/><stop stop-opacity="1" stop-color="rgb(100%, 40.275574%, 5.740356%)" offset="0.640625"/><stop stop-opacity="1" stop-color="rgb(100%, 40.037537%, 5.667114%)" offset="0.648438"/><stop stop-opacity="1" stop-color="rgb(100%, 39.797974%, 5.593872%)" offset="0.65625"/><stop stop-opacity="1" stop-color="rgb(100%, 39.558411%, 5.52063%)" offset="0.664062"/><stop stop-opacity="1" stop-color="rgb(100%, 39.320374%, 5.447388%)" offset="0.671875"/><stop stop-opacity="1" stop-color="rgb(100%, 39.080811%, 5.37262%)" offset="0.679688"/><stop stop-opacity="1" stop-color="rgb(100%, 38.841248%, 5.299377%)" offset="0.6875"/><stop stop-opacity="1" stop-color="rgb(100%, 38.60321%, 5.226135%)" offset="0.695312"/><stop stop-opacity="1" stop-color="rgb(100%, 38.363647%, 5.152893%)" offset="0.703125"/><stop stop-opacity="1" stop-color="rgb(100%, 38.124084%, 5.079651%)" offset="0.710938"/><stop stop-opacity="1" stop-color="rgb(100%, 37.886047%, 5.006409%)" offset="0.71875"/><stop stop-opacity="1" stop-color="rgb(100%, 37.646484%, 4.933167%)" offset="0.726562"/><stop stop-opacity="1" stop-color="rgb(100%, 37.406921%, 4.859924%)" offset="0.734375"/><stop stop-opacity="1" stop-color="rgb(100%, 37.168884%, 4.785156%)" offset="0.742188"/><stop stop-opacity="1" stop-color="rgb(100%, 36.929321%, 4.711914%)" offset="0.75"/><stop stop-opacity="1" stop-color="rgb(100%, 36.630249%, 4.620361%)" offset="0.757812"/><stop stop-opacity="1" stop-color="rgb(100%, 36.271667%, 4.510498%)" offset="0.769531"/><stop stop-opacity="1" stop-color="rgb(100%, 35.913086%, 4.400635%)" offset="0.78125"/><stop stop-opacity="1" stop-color="rgb(100%, 35.554504%, 4.290771%)" offset="0.792969"/><stop stop-opacity="1" stop-color="rgb(100%, 35.195923%, 4.179382%)" offset="0.804688"/><stop stop-opacity="1" stop-color="rgb(100%, 34.896851%, 4.08783%)" offset="0.816406"/><stop stop-opacity="1" stop-color="rgb(100%, 34.658813%, 4.014587%)" offset="0.824219"/><stop stop-opacity="1" stop-color="rgb(100%, 34.41925%, 3.941345%)" offset="0.832031"/><stop stop-opacity="1" stop-color="rgb(100%, 34.179688%, 3.868103%)" offset="0.839844"/><stop stop-opacity="1" stop-color="rgb(100%, 33.94165%, 3.794861%)" offset="0.847656"/><stop stop-opacity="1" stop-color="rgb(100%, 33.702087%, 3.721619%)" offset="0.855469"/><stop stop-opacity="1" stop-color="rgb(100%, 33.462524%, 3.646851%)" offset="0.863281"/><stop stop-opacity="1" stop-color="rgb(100%, 33.224487%, 3.573608%)" offset="0.871094"/><stop stop-opacity="1" stop-color="rgb(100%, 32.925415%, 3.482056%)" offset="0.878906"/><stop stop-opacity="1" stop-color="rgb(100%, 32.565308%, 3.372192%)" offset="0.890625"/><stop stop-opacity="1" stop-color="rgb(100%, 32.206726%, 3.262329%)" offset="0.902344"/><stop stop-opacity="1" stop-color="rgb(100%, 31.90918%, 3.170776%)" offset="0.914062"/><stop stop-opacity="1" stop-color="rgb(100%, 31.669617%, 3.097534%)" offset="0.921875"/><stop stop-opacity="1" stop-color="rgb(100%, 31.430054%, 3.022766%)" offset="0.929688"/><stop stop-opacity="1" stop-color="rgb(100%, 31.192017%, 2.949524%)" offset="0.9375"/><stop stop-opacity="1" stop-color="rgb(100%, 30.892944%, 2.857971%)" offset="0.945312"/><stop stop-opacity="1" stop-color="rgb(100%, 30.593872%, 2.766418%)" offset="0.957031"/><stop stop-opacity="1" stop-color="rgb(100%, 30.354309%, 2.693176%)" offset="0.964844"/><stop stop-opacity="1" stop-color="rgb(100%, 30.055237%, 2.601624%)" offset="0.972656"/><stop stop-opacity="1" stop-color="rgb(100%, 29.75769%, 2.508545%)" offset="0.984375"/><stop stop-opacity="1" stop-color="rgb(100%, 29.518127%, 2.435303%)" offset="0.992188"/><stop stop-opacity="1" stop-color="rgb(100%, 29.399109%, 2.398682%)" offset="1"/></radialGradient><clipPath id="0a65f46af7"><path d="M 14.964844 14.089844 L 28.015625 14.089844 L 28.015625 25.5625 L 14.964844 25.5625 Z M 14.964844 14.089844 " clip-rule="nonzero"/></clipPath><clipPath id="173c8eee59"><path d="M 11.492188 14.964844 L 22.964844 14.964844 L 22.964844 28.015625 L 11.492188 28.015625 Z M 11.492188 14.964844 " clip-rule="nonzero"/></clipPath><clipPath id="85afc353bc"><path d="M 10 17 L 31.722656 17 L 31.722656 31.886719 L 10 31.886719 Z M 10 17 " clip-rule="nonzero"/></clipPath><clipPath id="51aeccc1f0"><path d="M 15 7 L 31.722656 7 L 31.722656 28 L 15 28 Z M 15 7 " clip-rule="nonzero"/></clipPath><clipPath id="b6c0be7850"><path d="M 10 5.242188 L 28 5.242188 L 28 24 L 10 24 Z M 10 5.242188 " clip-rule="nonzero"/></clipPath><clipPath id="f6d0dec482"><path d="M 5.273438 7 L 26 7 L 26 24 L 5.273438 24 Z M 5.273438 7 " clip-rule="nonzero"/></clipPath><clipPath id="42440c6480"><path d="M 6.898438 10.449219 L 19.167969 10.449219 L 19.167969 31.757812 L 6.898438 31.757812 Z M 6.898438 10.449219 " clip-rule="nonzero"/></clipPath></defs><g clip-path="url(#f003b50097)"><g clip-path="url(#4bb963ffd8)"><path fill="url(#bc6a5ce81a)" d="M 4.507812 4.507812 L 4.507812 32.5 L 32.5 32.5 L 32.5 4.507812 Z M 4.507812 4.507812 " fill-rule="nonzero"/></g></g><g clip-path="url(#0a65f46af7)"><path fill="#ff860e" d="M 28.015625 18.4375 C 28.015625 16.804688 27.464844 15.296875 26.535156 14.09375 C 26.941406 14.738281 27.238281 15.464844 27.398438 16.253906 C 28.066406 19.535156 26.132812 22.738281 23.015625 23.730469 C 25.640625 22.476562 27.183594 19.558594 26.578125 16.578125 C 26.535156 16.363281 26.480469 16.148438 26.414062 15.941406 C 26.445312 16.207031 26.460938 16.476562 26.460938 16.746094 C 26.460938 20.671875 23.277344 23.855469 19.351562 23.855469 C 17.699219 23.855469 16.175781 23.289062 14.96875 22.339844 C 16.242188 24.269531 18.425781 25.546875 20.910156 25.546875 C 24.835938 25.546875 28.015625 22.363281 28.015625 18.4375 " fill-opacity="1" fill-rule="nonzero"/></g><g clip-path="url(#173c8eee59)"><path fill="#ff860e" d="M 18.605469 28.015625 C 20.242188 28.015625 21.75 27.464844 22.953125 26.535156 C 22.308594 26.941406 21.582031 27.238281 20.789062 27.398438 C 17.511719 28.066406 14.308594 26.132812 13.316406 23.015625 C 14.566406 25.640625 17.484375 27.183594 20.464844 26.578125 C 20.683594 26.535156 20.898438 26.480469 21.105469 26.414062 C 20.839844 26.445312 20.570312 26.460938 20.300781 26.460938 C 16.375 26.460938 13.191406 23.277344 13.191406 19.351562 C 13.191406 17.699219 13.757812 16.175781 14.703125 14.96875 C 12.773438 16.242188 11.5 18.425781 11.5 20.910156 C 11.5 24.835938 14.683594 28.015625 18.605469 28.015625 " fill-opacity="1" fill-rule="nonzero"/></g><path fill="#ff860e" d="M 9.03125 18.605469 C 9.03125 20.242188 9.582031 21.75 10.511719 22.953125 C 10.105469 22.308594 9.808594 21.582031 9.648438 20.789062 C 8.980469 17.511719 10.914062 14.308594 14.03125 13.316406 C 11.402344 14.566406 9.863281 17.484375 10.46875 20.46875 C 10.511719 20.683594 10.566406 20.898438 10.632812 21.105469 C 10.601562 20.839844 10.585938 20.570312 10.585938 20.300781 C 10.585938 16.375 13.769531 13.191406 17.691406 13.191406 C 19.347656 13.191406 20.867188 13.757812 22.074219 14.703125 C 20.804688 12.773438 18.621094 11.5 16.136719 11.5 C 12.210938 11.5 9.03125 14.683594 9.03125 18.605469 " fill-opacity="1" fill-rule="nonzero"/><path fill="#ff860e" d="M 18.4375 9.03125 C 16.804688 9.03125 15.296875 9.582031 14.09375 10.511719 C 14.738281 10.105469 15.464844 9.808594 16.253906 9.648438 C 19.535156 8.980469 22.738281 10.914062 23.730469 14.03125 C 22.476562 11.402344 19.558594 9.863281 16.578125 10.46875 C 16.363281 10.511719 16.148438 10.566406 15.941406 10.632812 C 16.207031 10.601562 16.476562 10.585938 16.746094 10.585938 C 20.671875 10.585938 23.855469 13.769531 23.855469 17.691406 C 23.855469 19.347656 23.289062 20.867188 22.339844 22.074219 C 24.269531 20.804688 25.546875 18.621094 25.546875 16.136719 C 25.546875 12.210938 22.363281 9.03125 18.4375 9.03125 " fill-opacity="1" fill-rule="nonzero"/><g clip-path="url(#85afc353bc)"><path fill="#ff860e" d="M 15.933594 29.996094 C 16.328125 30.101562 16.730469 30.1875 17.140625 30.253906 C 18.59375 30.480469 20.058594 30.414062 21.496094 30.054688 C 21.910156 29.953125 22.316406 29.828125 22.710938 29.679688 C 21.679688 29.8125 20.640625 29.800781 19.605469 29.636719 C 18.203125 29.417969 16.871094 28.933594 15.648438 28.199219 C 14.425781 27.464844 13.375 26.515625 12.519531 25.382812 C 11.636719 24.207031 11.007812 22.878906 10.648438 21.441406 C 10.363281 20.300781 10.265625 19.140625 10.347656 17.984375 C 10.355469 18.171875 10.367188 18.359375 10.382812 18.546875 C 10.503906 19.960938 10.894531 21.320312 11.542969 22.59375 C 12.1875 23.863281 13.0625 24.980469 14.132812 25.910156 C 15.246094 26.871094 16.523438 27.59375 17.933594 28.050781 C 19.34375 28.507812 20.800781 28.675781 22.265625 28.550781 C 23.683594 28.429688 25.042969 28.039062 26.3125 27.390625 C 27.585938 26.746094 28.699219 25.871094 29.628906 24.800781 C 30.316406 24.007812 30.878906 23.132812 31.3125 22.1875 C 31.226562 22.601562 31.121094 23.011719 30.988281 23.417969 C 30.53125 24.828125 29.808594 26.105469 28.84375 27.214844 C 27.914062 28.289062 26.796875 29.160156 25.527344 29.808594 C 24.257812 30.457031 22.894531 30.847656 21.480469 30.96875 C 20.015625 31.09375 18.558594 30.925781 17.148438 30.46875 C 16.730469 30.332031 16.328125 30.175781 15.933594 29.996094 " fill-opacity="1" fill-rule="nonzero"/></g><g clip-path="url(#51aeccc1f0)"><path fill="#ff7814" d="M 28.707031 24.726562 C 28.929688 24.386719 29.136719 24.03125 29.324219 23.664062 C 29.992188 22.351562 30.382812 20.9375 30.484375 19.457031 C 30.515625 19.03125 30.519531 18.605469 30.5 18.183594 C 30.308594 19.207031 29.976562 20.195312 29.5 21.125 C 28.859375 22.394531 27.988281 23.507812 26.910156 24.445312 C 25.835938 25.378906 24.609375 26.089844 23.265625 26.550781 C 21.875 27.027344 20.417969 27.214844 18.941406 27.113281 C 17.765625 27.03125 16.632812 26.765625 15.558594 26.328125 C 15.738281 26.378906 15.917969 26.429688 16.101562 26.46875 C 17.484375 26.792969 18.902344 26.839844 20.308594 26.617188 C 21.71875 26.394531 23.046875 25.910156 24.265625 25.175781 C 25.523438 24.417969 26.605469 23.425781 27.476562 22.226562 C 28.347656 21.027344 28.957031 19.691406 29.289062 18.257812 C 29.613281 16.875 29.660156 15.460938 29.4375 14.050781 C 29.214844 12.644531 28.730469 11.3125 27.996094 10.097656 C 27.457031 9.199219 26.800781 8.394531 26.03125 7.691406 C 26.398438 7.898438 26.757812 8.128906 27.101562 8.378906 C 28.300781 9.25 29.292969 10.332031 30.054688 11.589844 C 30.785156 12.808594 31.273438 14.136719 31.496094 15.546875 C 31.71875 16.953125 31.667969 18.371094 31.347656 19.753906 C 31.015625 21.1875 30.402344 22.519531 29.53125 23.71875 C 29.273438 24.074219 29 24.410156 28.707031 24.726562 " fill-opacity="1" fill-rule="nonzero"/></g><g clip-path="url(#b6c0be7850)"><path fill="#ff9510" d="M 27.644531 10.953125 C 27.386719 10.632812 27.113281 10.328125 26.820312 10.035156 C 25.78125 8.996094 24.554688 8.191406 23.179688 7.632812 C 22.785156 7.472656 22.382812 7.339844 21.976562 7.226562 C 22.890625 7.722656 23.722656 8.34375 24.464844 9.085938 C 25.472656 10.085938 26.261719 11.261719 26.820312 12.574219 C 27.378906 13.886719 27.671875 15.273438 27.695312 16.691406 C 27.71875 18.164062 27.449219 19.605469 26.894531 20.980469 C 26.453125 22.070312 25.851562 23.066406 25.105469 23.953125 C 25.207031 23.796875 25.308594 23.640625 25.40625 23.480469 C 26.140625 22.261719 26.625 20.933594 26.847656 19.523438 C 27.070312 18.117188 27.019531 16.699219 26.699219 15.316406 C 26.367188 13.882812 25.757812 12.550781 24.886719 11.351562 C 24.015625 10.152344 22.933594 9.160156 21.671875 8.398438 C 20.457031 7.667969 19.125 7.183594 17.71875 6.957031 C 16.308594 6.734375 14.894531 6.785156 13.511719 7.105469 C 12.492188 7.34375 11.523438 7.722656 10.613281 8.234375 C 10.925781 7.945312 11.253906 7.679688 11.601562 7.425781 C 12.800781 6.554688 14.132812 5.945312 15.566406 5.613281 C 16.949219 5.292969 18.367188 5.242188 19.773438 5.464844 C 21.183594 5.6875 22.511719 6.171875 23.730469 6.90625 C 24.988281 7.664062 26.070312 8.65625 26.941406 9.855469 C 27.199219 10.210938 27.433594 10.578125 27.644531 10.953125 " fill-opacity="1" fill-rule="nonzero"/></g><g clip-path="url(#f6d0dec482)"><path fill="#ff7814" d="M 14.214844 7.707031 C 13.832031 7.851562 13.457031 8.019531 13.089844 8.207031 C 11.78125 8.875 10.632812 9.789062 9.679688 10.925781 C 9.40625 11.253906 9.152344 11.59375 8.917969 11.945312 C 9.675781 11.230469 10.523438 10.628906 11.457031 10.152344 C 12.71875 9.507812 14.082031 9.117188 15.503906 8.992188 C 16.921875 8.867188 18.332031 9.015625 19.6875 9.433594 C 21.09375 9.863281 22.382812 10.566406 23.519531 11.519531 C 24.421875 12.277344 25.183594 13.15625 25.792969 14.140625 C 25.679688 13.992188 25.5625 13.847656 25.4375 13.707031 C 24.507812 12.632812 23.390625 11.761719 22.121094 11.113281 C 20.851562 10.464844 19.488281 10.078125 18.074219 9.953125 C 16.609375 9.828125 15.152344 9.996094 13.742188 10.453125 C 12.332031 10.914062 11.054688 11.632812 9.941406 12.597656 C 8.867188 13.527344 7.996094 14.644531 7.347656 15.914062 C 6.703125 17.183594 6.3125 18.546875 6.191406 19.960938 C 6.101562 21.003906 6.160156 22.042969 6.367188 23.0625 C 6.191406 22.679688 6.035156 22.28125 5.902344 21.875 C 5.445312 20.464844 5.277344 19.007812 5.40625 17.542969 C 5.527344 16.128906 5.917969 14.765625 6.5625 13.496094 C 7.210938 12.226562 8.082031 11.109375 9.15625 10.179688 C 10.269531 9.214844 11.546875 8.496094 12.957031 8.039062 C 13.371094 7.902344 13.792969 7.792969 14.214844 7.707031 " fill-opacity="1" fill-rule="nonzero"/></g><g clip-path="url(#42440c6480)"><path fill="#ff7814" d="M 6.980469 19.476562 C 7 19.882812 7.039062 20.292969 7.105469 20.699219 C 7.335938 22.152344 7.851562 23.527344 8.636719 24.785156 C 8.863281 25.144531 9.109375 25.492188 9.375 25.824219 C 8.925781 24.882812 8.617188 23.890625 8.453125 22.855469 C 8.226562 21.453125 8.277344 20.039062 8.597656 18.648438 C 8.917969 17.257812 9.496094 15.964844 10.3125 14.804688 C 11.15625 13.597656 12.222656 12.589844 13.480469 11.804688 C 14.476562 11.179688 15.546875 10.726562 16.675781 10.453125 C 16.5 10.515625 16.324219 10.582031 16.152344 10.65625 C 14.84375 11.210938 13.667969 12 12.660156 13.011719 C 11.652344 14.019531 10.863281 15.191406 10.308594 16.5 C 9.734375 17.855469 9.445312 19.292969 9.445312 20.777344 C 9.445312 22.257812 9.734375 23.695312 10.308594 25.050781 C 10.863281 26.359375 11.652344 27.535156 12.660156 28.542969 C 13.667969 29.550781 14.84375 30.34375 16.152344 30.894531 C 17.117188 31.304688 18.121094 31.566406 19.15625 31.6875 C 18.738281 31.734375 18.3125 31.757812 17.886719 31.757812 C 16.402344 31.757812 14.964844 31.46875 13.609375 30.894531 C 12.300781 30.34375 11.128906 29.550781 10.121094 28.542969 C 9.113281 27.535156 8.320312 26.359375 7.765625 25.050781 C 7.195312 23.695312 6.902344 22.257812 6.902344 20.777344 C 6.902344 20.339844 6.929688 19.90625 6.980469 19.476562 " fill-opacity="1" fill-rule="nonzero"/></g></svg>