<svg xmlns="http://www.w3.org/2000/svg" xmlns:xlink="http://www.w3.org/1999/xlink" width="50" zoomAndPan="magnify" viewBox="0 0 37.5 37.499999" height="50" preserveAspectRatio="xMidYMid meet" version="1.0"><defs><filter x="0%" y="0%" width="100%" height="100%" id="923fd274f8"><feColorMatrix values="0 0 0 0 1 0 0 0 0 1 0 0 0 0 1 0 0 0 1 0" color-interpolation-filters="sRGB"/></filter><mask id="384ae1d5ad"><g filter="url(#923fd274f8)"><rect x="-3.75" width="45" fill="#000000" y="-3.75" height="44.999999" fill-opacity="0.78"/></g></mask><clipPath id="019eaec5f6"><path d="M 0.453125 0.1875 L 14.332031 0.1875 L 14.332031 12.773438 L 0.453125 12.773438 Z M 0.453125 0.1875 " clip-rule="nonzero"/></clipPath><clipPath id="f39f9e0e40"><rect x="0" width="15" y="0" height="14"/></clipPath><mask id="51bb5d09bf"><g filter="url(#923fd274f8)"><rect x="-3.75" width="45" fill="#000000" y="-3.75" height="44.999999" fill-opacity="0.78"/></g></mask><clipPath id="e3688ca200"><path d="M 0.390625 0.628906 L 28.40625 0.628906 L 28.40625 28.648438 L 0.390625 28.648438 Z M 0.390625 0.628906 " clip-rule="nonzero"/></clipPath><clipPath id="3f6f07121a"><path d="M 0.390625 14.636719 C 0.390625 22.375 6.660156 28.648438 14.398438 28.648438 C 22.132812 28.648438 28.40625 22.375 28.40625 14.636719 C 28.40625 6.902344 22.132812 0.628906 14.398438 0.628906 C 6.660156 0.628906 0.390625 6.902344 0.390625 14.636719 Z M 0.390625 14.636719 " clip-rule="nonzero"/></clipPath><radialGradient gradientTransform="matrix(0, -1, 1, 0, 0.388699, 28.646913)" gradientUnits="userSpaceOnUse" r="19.811455" cx="14.00884" id="32d096c7a9" cy="14.00884" fx="14.00884" fy="14.00884"><stop stop-opacity="1" stop-color="rgb(41.845703%, 2.415466%, 2.415466%)" offset="0"/><stop stop-opacity="1" stop-color="rgb(41.577148%, 2.445984%, 2.445984%)" offset="0.015625"/><stop stop-opacity="1" stop-color="rgb(41.348267%, 2.471924%, 2.471924%)" offset="0.0273438"/><stop stop-opacity="1" stop-color="rgb(41.117859%, 2.497864%, 2.497864%)" offset="0.0390625"/><stop stop-opacity="1" stop-color="rgb(40.888977%, 2.523804%, 2.523804%)" offset="0.0507812"/><stop stop-opacity="1" stop-color="rgb(40.658569%, 2.548218%, 2.548218%)" offset="0.0625"/><stop stop-opacity="1" stop-color="rgb(40.429688%, 2.574158%, 2.574158%)" offset="0.0742188"/><stop stop-opacity="1" stop-color="rgb(40.19928%, 2.600098%, 2.600098%)" offset="0.0859375"/><stop stop-opacity="1" stop-color="rgb(39.970398%, 2.626038%, 2.626038%)" offset="0.0976562"/><stop stop-opacity="1" stop-color="rgb(39.73999%, 2.651978%, 2.651978%)" offset="0.109375"/><stop stop-opacity="1" stop-color="rgb(39.511108%, 2.677917%, 2.677917%)" offset="0.121094"/><stop stop-opacity="1" stop-color="rgb(39.280701%, 2.703857%, 2.703857%)" offset="0.132812"/><stop stop-opacity="1" stop-color="rgb(39.051819%, 2.729797%, 2.729797%)" offset="0.144531"/><stop stop-opacity="1" stop-color="rgb(38.821411%, 2.755737%, 2.755737%)" offset="0.15625"/><stop stop-opacity="1" stop-color="rgb(38.592529%, 2.781677%, 2.781677%)" offset="0.167969"/><stop stop-opacity="1" stop-color="rgb(38.362122%, 2.806091%, 2.806091%)" offset="0.179688"/><stop stop-opacity="1" stop-color="rgb(38.131714%, 2.832031%, 2.832031%)" offset="0.191406"/><stop stop-opacity="1" stop-color="rgb(37.902832%, 2.857971%, 2.857971%)" offset="0.203125"/><stop stop-opacity="1" stop-color="rgb(37.672424%, 2.883911%, 2.883911%)" offset="0.214844"/><stop stop-opacity="1" stop-color="rgb(37.443542%, 2.909851%, 2.909851%)" offset="0.226562"/><stop stop-opacity="1" stop-color="rgb(37.213135%, 2.935791%, 2.935791%)" offset="0.238281"/><stop stop-opacity="1" stop-color="rgb(36.984253%, 2.961731%, 2.961731%)" offset="0.25"/><stop stop-opacity="1" stop-color="rgb(36.677551%, 2.996826%, 2.996826%)" offset="0.261719"/><stop stop-opacity="1" stop-color="rgb(36.294556%, 3.039551%, 3.039551%)" offset="0.28125"/><stop stop-opacity="1" stop-color="rgb(35.91156%, 3.082275%, 3.082275%)" offset="0.300781"/><stop stop-opacity="1" stop-color="rgb(35.528564%, 3.125%, 3.125%)" offset="0.320312"/><stop stop-opacity="1" stop-color="rgb(35.145569%, 3.167725%, 3.167725%)" offset="0.339844"/><stop stop-opacity="1" stop-color="rgb(34.764099%, 3.211975%, 3.211975%)" offset="0.359375"/><stop stop-opacity="1" stop-color="rgb(34.41925%, 3.250122%, 3.250122%)" offset="0.378906"/><stop stop-opacity="1" stop-color="rgb(34.112549%, 3.283691%, 3.283691%)" offset="0.394531"/><stop stop-opacity="1" stop-color="rgb(33.805847%, 3.318787%, 3.318787%)" offset="0.410156"/><stop stop-opacity="1" stop-color="rgb(33.500671%, 3.352356%, 3.352356%)" offset="0.425781"/><stop stop-opacity="1" stop-color="rgb(33.19397%, 3.387451%, 3.387451%)" offset="0.441406"/><stop stop-opacity="1" stop-color="rgb(32.887268%, 3.421021%, 3.421021%)" offset="0.457031"/><stop stop-opacity="1" stop-color="rgb(32.582092%, 3.456116%, 3.456116%)" offset="0.472656"/><stop stop-opacity="1" stop-color="rgb(32.351685%, 3.482056%, 3.482056%)" offset="0.488281"/><stop stop-opacity="1" stop-color="rgb(32.110596%, 3.48053%, 3.48053%)" offset="0.496094"/><stop stop-opacity="1" stop-color="rgb(31.820679%, 3.457642%, 3.457642%)" offset="0.503906"/><stop stop-opacity="1" stop-color="rgb(31.570435%, 3.430176%, 3.430176%)" offset="0.507812"/><stop stop-opacity="1" stop-color="rgb(31.318665%, 3.404236%, 3.404236%)" offset="0.511719"/><stop stop-opacity="1" stop-color="rgb(31.066895%, 3.37677%, 3.37677%)" offset="0.515625"/><stop stop-opacity="1" stop-color="rgb(30.815125%, 3.349304%, 3.349304%)" offset="0.519531"/><stop stop-opacity="1" stop-color="rgb(30.563354%, 3.321838%, 3.321838%)" offset="0.523438"/><stop stop-opacity="1" stop-color="rgb(30.311584%, 3.294373%, 3.294373%)" offset="0.527344"/><stop stop-opacity="1" stop-color="rgb(30.059814%, 3.266907%, 3.266907%)" offset="0.53125"/><stop stop-opacity="1" stop-color="rgb(29.808044%, 3.239441%, 3.239441%)" offset="0.535156"/><stop stop-opacity="1" stop-color="rgb(29.5578%, 3.211975%, 3.211975%)" offset="0.539062"/><stop stop-opacity="1" stop-color="rgb(29.30603%, 3.184509%, 3.184509%)" offset="0.542969"/><stop stop-opacity="1" stop-color="rgb(29.05426%, 3.157043%, 3.157043%)" offset="0.546875"/><stop stop-opacity="1" stop-color="rgb(28.80249%, 3.129578%, 3.129578%)" offset="0.550781"/><stop stop-opacity="1" stop-color="rgb(28.55072%, 3.102112%, 3.102112%)" offset="0.554688"/><stop stop-opacity="1" stop-color="rgb(28.29895%, 3.074646%, 3.074646%)" offset="0.558594"/><stop stop-opacity="1" stop-color="rgb(28.04718%, 3.048706%, 3.048706%)" offset="0.5625"/><stop stop-opacity="1" stop-color="rgb(27.796936%, 3.02124%, 3.02124%)" offset="0.566406"/><stop stop-opacity="1" stop-color="rgb(27.545166%, 2.993774%, 2.993774%)" offset="0.570312"/><stop stop-opacity="1" stop-color="rgb(27.293396%, 2.966309%, 2.966309%)" offset="0.574219"/><stop stop-opacity="1" stop-color="rgb(27.041626%, 2.938843%, 2.938843%)" offset="0.578125"/><stop stop-opacity="1" stop-color="rgb(26.789856%, 2.911377%, 2.911377%)" offset="0.582031"/><stop stop-opacity="1" stop-color="rgb(26.538086%, 2.883911%, 2.883911%)" offset="0.585938"/><stop stop-opacity="1" stop-color="rgb(26.286316%, 2.856445%, 2.856445%)" offset="0.589844"/><stop stop-opacity="1" stop-color="rgb(26.034546%, 2.828979%, 2.828979%)" offset="0.59375"/><stop stop-opacity="1" stop-color="rgb(25.784302%, 2.801514%, 2.801514%)" offset="0.597656"/><stop stop-opacity="1" stop-color="rgb(25.532532%, 2.774048%, 2.774048%)" offset="0.601562"/><stop stop-opacity="1" stop-color="rgb(25.280762%, 2.746582%, 2.746582%)" offset="0.605469"/><stop stop-opacity="1" stop-color="rgb(25.028992%, 2.720642%, 2.720642%)" offset="0.609375"/><stop stop-opacity="1" stop-color="rgb(24.777222%, 2.693176%, 2.693176%)" offset="0.613281"/><stop stop-opacity="1" stop-color="rgb(24.525452%, 2.66571%, 2.66571%)" offset="0.617188"/><stop stop-opacity="1" stop-color="rgb(24.273682%, 2.638245%, 2.638245%)" offset="0.621094"/><stop stop-opacity="1" stop-color="rgb(24.023438%, 2.610779%, 2.610779%)" offset="0.625"/><stop stop-opacity="1" stop-color="rgb(23.771667%, 2.583313%, 2.583313%)" offset="0.628906"/><stop stop-opacity="1" stop-color="rgb(23.519897%, 2.555847%, 2.555847%)" offset="0.632812"/><stop stop-opacity="1" stop-color="rgb(23.268127%, 2.528381%, 2.528381%)" offset="0.636719"/><stop stop-opacity="1" stop-color="rgb(23.016357%, 2.500916%, 2.500916%)" offset="0.640625"/><stop stop-opacity="1" stop-color="rgb(22.764587%, 2.47345%, 2.47345%)" offset="0.644531"/><stop stop-opacity="1" stop-color="rgb(22.512817%, 2.445984%, 2.445984%)" offset="0.648438"/><stop stop-opacity="1" stop-color="rgb(22.262573%, 2.418518%, 2.418518%)" offset="0.652344"/><stop stop-opacity="1" stop-color="rgb(22.010803%, 2.391052%, 2.391052%)" offset="0.65625"/><stop stop-opacity="1" stop-color="rgb(21.759033%, 2.365112%, 2.365112%)" offset="0.660156"/><stop stop-opacity="1" stop-color="rgb(21.507263%, 2.337646%, 2.337646%)" offset="0.664062"/><stop stop-opacity="1" stop-color="rgb(21.255493%, 2.310181%, 2.310181%)" offset="0.667969"/><stop stop-opacity="1" stop-color="rgb(21.003723%, 2.282715%, 2.282715%)" offset="0.671875"/><stop stop-opacity="1" stop-color="rgb(20.751953%, 2.255249%, 2.255249%)" offset="0.675781"/><stop stop-opacity="1" stop-color="rgb(20.500183%, 2.227783%, 2.227783%)" offset="0.679688"/><stop stop-opacity="1" stop-color="rgb(20.249939%, 2.200317%, 2.200317%)" offset="0.683594"/><stop stop-opacity="1" stop-color="rgb(19.998169%, 2.172852%, 2.172852%)" offset="0.6875"/><stop stop-opacity="1" stop-color="rgb(19.746399%, 2.145386%, 2.145386%)" offset="0.691406"/><stop stop-opacity="1" stop-color="rgb(19.494629%, 2.11792%, 2.11792%)" offset="0.695312"/><stop stop-opacity="1" stop-color="rgb(19.242859%, 2.090454%, 2.090454%)" offset="0.699219"/><stop stop-opacity="1" stop-color="rgb(18.991089%, 2.062988%, 2.062988%)" offset="0.703125"/><stop stop-opacity="1" stop-color="rgb(18.739319%, 2.037048%, 2.037048%)" offset="0.707031"/><stop stop-opacity="1" stop-color="rgb(18.489075%, 2.009583%, 2.009583%)" offset="0.710938"/><stop stop-opacity="1" stop-color="rgb(18.237305%, 1.982117%, 1.982117%)" offset="0.714844"/><stop stop-opacity="1" stop-color="rgb(17.985535%, 1.954651%, 1.954651%)" offset="0.71875"/><stop stop-opacity="1" stop-color="rgb(17.733765%, 1.927185%, 1.927185%)" offset="0.722656"/><stop stop-opacity="1" stop-color="rgb(17.481995%, 1.899719%, 1.899719%)" offset="0.726562"/><stop stop-opacity="1" stop-color="rgb(17.230225%, 1.872253%, 1.872253%)" offset="0.730469"/><stop stop-opacity="1" stop-color="rgb(16.978455%, 1.844788%, 1.844788%)" offset="0.734375"/><stop stop-opacity="1" stop-color="rgb(16.72821%, 1.817322%, 1.817322%)" offset="0.738281"/><stop stop-opacity="1" stop-color="rgb(16.47644%, 1.789856%, 1.789856%)" offset="0.742188"/><stop stop-opacity="1" stop-color="rgb(16.22467%, 1.76239%, 1.76239%)" offset="0.746094"/><stop stop-opacity="1" stop-color="rgb(15.9729%, 1.734924%, 1.734924%)" offset="0.75"/><stop stop-opacity="1" stop-color="rgb(15.72113%, 1.707458%, 1.707458%)" offset="0.753906"/><stop stop-opacity="1" stop-color="rgb(15.46936%, 1.681519%, 1.681519%)" offset="0.757812"/><stop stop-opacity="1" stop-color="rgb(15.21759%, 1.654053%, 1.654053%)" offset="0.761719"/><stop stop-opacity="1" stop-color="rgb(14.96582%, 1.626587%, 1.626587%)" offset="0.765625"/><stop stop-opacity="1" stop-color="rgb(14.715576%, 1.599121%, 1.599121%)" offset="0.769531"/><stop stop-opacity="1" stop-color="rgb(14.463806%, 1.571655%, 1.571655%)" offset="0.773438"/><stop stop-opacity="1" stop-color="rgb(14.212036%, 1.544189%, 1.544189%)" offset="0.777344"/><stop stop-opacity="1" stop-color="rgb(13.960266%, 1.516724%, 1.516724%)" offset="0.78125"/><stop stop-opacity="1" stop-color="rgb(13.708496%, 1.489258%, 1.489258%)" offset="0.785156"/><stop stop-opacity="1" stop-color="rgb(13.456726%, 1.461792%, 1.461792%)" offset="0.789062"/><stop stop-opacity="1" stop-color="rgb(13.204956%, 1.434326%, 1.434326%)" offset="0.792969"/><stop stop-opacity="1" stop-color="rgb(12.954712%, 1.40686%, 1.40686%)" offset="0.796875"/><stop stop-opacity="1" stop-color="rgb(12.702942%, 1.379395%, 1.379395%)" offset="0.800781"/><stop stop-opacity="1" stop-color="rgb(12.451172%, 1.353455%, 1.353455%)" offset="0.804688"/><stop stop-opacity="1" stop-color="rgb(12.199402%, 1.325989%, 1.325989%)" offset="0.808594"/><stop stop-opacity="1" stop-color="rgb(11.947632%, 1.298523%, 1.298523%)" offset="0.8125"/><stop stop-opacity="1" stop-color="rgb(11.695862%, 1.271057%, 1.271057%)" offset="0.816406"/><stop stop-opacity="1" stop-color="rgb(11.444092%, 1.243591%, 1.243591%)" offset="0.820312"/><stop stop-opacity="1" stop-color="rgb(11.193848%, 1.216125%, 1.216125%)" offset="0.824219"/><stop stop-opacity="1" stop-color="rgb(10.942078%, 1.18866%, 1.18866%)" offset="0.828125"/><stop stop-opacity="1" stop-color="rgb(10.690308%, 1.161194%, 1.161194%)" offset="0.832031"/><stop stop-opacity="1" stop-color="rgb(10.438538%, 1.133728%, 1.133728%)" offset="0.835938"/><stop stop-opacity="1" stop-color="rgb(10.186768%, 1.106262%, 1.106262%)" offset="0.839844"/><stop stop-opacity="1" stop-color="rgb(9.934998%, 1.078796%, 1.078796%)" offset="0.84375"/><stop stop-opacity="1" stop-color="rgb(9.683228%, 1.051331%, 1.051331%)" offset="0.847656"/><stop stop-opacity="1" stop-color="rgb(9.431458%, 1.023865%, 1.023865%)" offset="0.851562"/><stop stop-opacity="1" stop-color="rgb(9.181213%, 0.997925%, 0.997925%)" offset="0.855469"/><stop stop-opacity="1" stop-color="rgb(8.929443%, 0.970459%, 0.970459%)" offset="0.859375"/><stop stop-opacity="1" stop-color="rgb(8.677673%, 0.942993%, 0.942993%)" offset="0.863281"/><stop stop-opacity="1" stop-color="rgb(8.425903%, 0.915527%, 0.915527%)" offset="0.867188"/><stop stop-opacity="1" stop-color="rgb(8.174133%, 0.888062%, 0.888062%)" offset="0.871094"/><stop stop-opacity="1" stop-color="rgb(7.922363%, 0.860596%, 0.860596%)" offset="0.875"/><stop stop-opacity="1" stop-color="rgb(7.670593%, 0.83313%, 0.83313%)" offset="0.878906"/><stop stop-opacity="1" stop-color="rgb(7.420349%, 0.805664%, 0.805664%)" offset="0.882812"/><stop stop-opacity="1" stop-color="rgb(7.168579%, 0.778198%, 0.778198%)" offset="0.886719"/><stop stop-opacity="1" stop-color="rgb(6.916809%, 0.750732%, 0.750732%)" offset="0.890625"/><stop stop-opacity="1" stop-color="rgb(6.665039%, 0.723267%, 0.723267%)" offset="0.894531"/><stop stop-opacity="1" stop-color="rgb(6.413269%, 0.695801%, 0.695801%)" offset="0.898438"/><stop stop-opacity="1" stop-color="rgb(6.161499%, 0.669861%, 0.669861%)" offset="0.902344"/><stop stop-opacity="1" stop-color="rgb(5.909729%, 0.642395%, 0.642395%)" offset="0.90625"/><stop stop-opacity="1" stop-color="rgb(5.659485%, 0.614929%, 0.614929%)" offset="0.910156"/><stop stop-opacity="1" stop-color="rgb(5.407715%, 0.587463%, 0.587463%)" offset="0.914062"/><stop stop-opacity="1" stop-color="rgb(5.155945%, 0.559998%, 0.559998%)" offset="0.917969"/><stop stop-opacity="1" stop-color="rgb(4.904175%, 0.532532%, 0.532532%)" offset="0.921875"/><stop stop-opacity="1" stop-color="rgb(4.652405%, 0.505066%, 0.505066%)" offset="0.925781"/><stop stop-opacity="1" stop-color="rgb(4.400635%, 0.4776%, 0.4776%)" offset="0.929688"/><stop stop-opacity="1" stop-color="rgb(4.148865%, 0.450134%, 0.450134%)" offset="0.933594"/><stop stop-opacity="1" stop-color="rgb(3.897095%, 0.422668%, 0.422668%)" offset="0.9375"/><stop stop-opacity="1" stop-color="rgb(3.646851%, 0.395203%, 0.395203%)" offset="0.941406"/><stop stop-opacity="1" stop-color="rgb(3.395081%, 0.367737%, 0.367737%)" offset="0.945312"/><stop stop-opacity="1" stop-color="rgb(3.143311%, 0.340271%, 0.340271%)" offset="0.949219"/><stop stop-opacity="1" stop-color="rgb(2.891541%, 0.314331%, 0.314331%)" offset="0.953125"/><stop stop-opacity="1" stop-color="rgb(2.639771%, 0.286865%, 0.286865%)" offset="0.957031"/><stop stop-opacity="1" stop-color="rgb(2.388%, 0.259399%, 0.259399%)" offset="0.960938"/><stop stop-opacity="1" stop-color="rgb(2.13623%, 0.231934%, 0.231934%)" offset="0.964844"/><stop stop-opacity="1" stop-color="rgb(1.885986%, 0.204468%, 0.204468%)" offset="0.96875"/><stop stop-opacity="1" stop-color="rgb(1.634216%, 0.177002%, 0.177002%)" offset="0.972656"/><stop stop-opacity="1" stop-color="rgb(1.382446%, 0.149536%, 0.149536%)" offset="0.976562"/><stop stop-opacity="1" stop-color="rgb(1.130676%, 0.12207%, 0.12207%)" offset="0.980469"/><stop stop-opacity="1" stop-color="rgb(0.878906%, 0.0946045%, 0.0946045%)" offset="0.984375"/><stop stop-opacity="1" stop-color="rgb(0.627136%, 0.0671387%, 0.0671387%)" offset="0.988281"/><stop stop-opacity="1" stop-color="rgb(0.375366%, 0.0396729%, 0.0396729%)" offset="0.992188"/><stop stop-opacity="1" stop-color="rgb(0.125122%, 0.012207%, 0.012207%)" offset="0.996094"/><stop stop-opacity="1" stop-color="rgb(0%, 0%, 0%)" offset="1"/></radialGradient><clipPath id="2edff0f804"><rect x="0" width="29" y="0" height="29"/></clipPath><mask id="e107f2ae29"><g filter="url(#923fd274f8)"><rect x="-3.75" width="45" fill="#000000" y="-3.75" height="44.999999" fill-opacity="0.78"/></g></mask><clipPath id="642681075b"><path d="M 0.367188 16 L 27 16 L 27 32 L 0.367188 32 Z M 0.367188 16 " clip-rule="nonzero"/></clipPath><clipPath id="d28efeadd3"><path d="M 0.367188 3 L 21 3 L 21 28 L 0.367188 28 Z M 0.367188 3 " clip-rule="nonzero"/></clipPath><clipPath id="eb6b3ec707"><path d="M 5 0.421875 L 27 0.421875 L 27 24 L 5 24 Z M 5 0.421875 " clip-rule="nonzero"/></clipPath><clipPath id="eac43213b6"><path d="M 7 3 L 32.578125 3 L 32.578125 23 L 7 23 Z M 7 3 " clip-rule="nonzero"/></clipPath><clipPath id="175102aedc"><path d="M 15.679688 6.792969 L 30.6875 6.792969 L 30.6875 32.859375 L 15.679688 32.859375 Z M 15.679688 6.792969 " clip-rule="nonzero"/></clipPath><clipPath id="e607182c98"><rect x="0" width="33" y="0" height="34"/></clipPath><mask id="f0fe3c3d16"><g filter="url(#923fd274f8)"><rect x="-3.75" width="45" fill="#000000" y="-3.75" height="44.999999" fill-opacity="0.78"/></g></mask><clipPath id="1e73c4a3e5"><path d="M 0.238281 9 L 16 9 L 16 19 L 0.238281 19 Z M 0.238281 9 " clip-rule="nonzero"/></clipPath><clipPath id="a5898a91e3"><path d="M 0.238281 2 L 12 2 L 12 17 L 0.238281 17 Z M 0.238281 2 " clip-rule="nonzero"/></clipPath><clipPath id="aeef806840"><path d="M 3 0.792969 L 16 0.792969 L 16 14 L 3 14 Z M 3 0.792969 " clip-rule="nonzero"/></clipPath><clipPath id="1378a9976d"><path d="M 4 2 L 18.710938 2 L 18.710938 14 L 4 14 Z M 4 2 " clip-rule="nonzero"/></clipPath><clipPath id="c1935f08ea"><path d="M 9.03125 4.441406 L 17.625 4.441406 L 17.625 19.296875 L 9.03125 19.296875 Z M 9.03125 4.441406 " clip-rule="nonzero"/></clipPath><clipPath id="b9b287c65f"><rect x="0" width="19" y="0" height="20"/></clipPath><mask id="56ddc5a0bf"><g filter="url(#923fd274f8)"><rect x="-3.75" width="45" fill="#000000" y="-3.75" height="44.999999" fill-opacity="0.78"/></g></mask><clipPath id="c78985bdf3"><path d="M 1 1 L 6 1 L 6 9 L 1 9 Z M 1 1 " clip-rule="nonzero"/></clipPath><clipPath id="94280db5a8"><path d="M 10.398438 2.542969 L 8.542969 10.46875 L 0.613281 8.613281 L 2.472656 0.6875 Z M 10.398438 2.542969 " clip-rule="nonzero"/></clipPath><clipPath id="ec355273f5"><path d="M 10.398438 2.542969 L 8.542969 10.46875 L 0.613281 8.613281 L 2.472656 0.6875 Z M 10.398438 2.542969 " clip-rule="nonzero"/></clipPath><clipPath id="7bf31ea34e"><path d="M 2 1 L 10 1 L 10 6 L 2 6 Z M 2 1 " clip-rule="nonzero"/></clipPath><clipPath id="22b1ca7456"><path d="M 10.398438 2.542969 L 8.542969 10.46875 L 0.613281 8.613281 L 2.472656 0.6875 Z M 10.398438 2.542969 " clip-rule="nonzero"/></clipPath><clipPath id="9c791be299"><path d="M 10.398438 2.542969 L 8.542969 10.46875 L 0.613281 8.613281 L 2.472656 0.6875 Z M 10.398438 2.542969 " clip-rule="nonzero"/></clipPath><clipPath id="f8270c17a9"><path d="M 4 2 L 10 2 L 10 9 L 4 9 Z M 4 2 " clip-rule="nonzero"/></clipPath><clipPath id="2ef1862b77"><path d="M 10.398438 2.542969 L 8.542969 10.46875 L 0.613281 8.613281 L 2.472656 0.6875 Z M 10.398438 2.542969 " clip-rule="nonzero"/></clipPath><clipPath id="2549a184e1"><path d="M 10.398438 2.542969 L 8.542969 10.46875 L 0.613281 8.613281 L 2.472656 0.6875 Z M 10.398438 2.542969 " clip-rule="nonzero"/></clipPath><clipPath id="8b24d07ed4"><path d="M 3 3 L 9 3 L 9 10 L 3 10 Z M 3 3 " clip-rule="nonzero"/></clipPath><clipPath id="543941f502"><path d="M 10.398438 2.542969 L 8.542969 10.46875 L 0.613281 8.613281 L 2.472656 0.6875 Z M 10.398438 2.542969 " clip-rule="nonzero"/></clipPath><clipPath id="3d6f356f1d"><path d="M 10.398438 2.542969 L 8.542969 10.46875 L 0.613281 8.613281 L 2.472656 0.6875 Z M 10.398438 2.542969 " clip-rule="nonzero"/></clipPath><clipPath id="d1a862aeb8"><path d="M 1 4 L 8 4 L 8 10 L 1 10 Z M 1 4 " clip-rule="nonzero"/></clipPath><clipPath id="916d8df0a5"><path d="M 10.398438 2.542969 L 8.542969 10.46875 L 0.613281 8.613281 L 2.472656 0.6875 Z M 10.398438 2.542969 " clip-rule="nonzero"/></clipPath><clipPath id="71f078f4b9"><path d="M 10.398438 2.542969 L 8.542969 10.46875 L 0.613281 8.613281 L 2.472656 0.6875 Z M 10.398438 2.542969 " clip-rule="nonzero"/></clipPath><clipPath id="186bb957e5"><path d="M 7.90625 6.015625 L 7.027344 9.765625 L 0.511719 8.238281 L 1.390625 4.488281 Z M 7.90625 6.015625 " clip-rule="nonzero"/></clipPath><clipPath id="829861aaa4"><path d="M 7.90625 6.015625 L 7.027344 9.765625 L 0.511719 8.238281 L 1.390625 4.488281 Z M 7.90625 6.015625 " clip-rule="nonzero"/></clipPath><clipPath id="d3c68c4066"><rect x="0" width="11" y="0" height="11"/></clipPath></defs><g mask="url(#384ae1d5ad)"><g transform="matrix(1, 0, 0, 1, 11, 12)"><g clip-path="url(#f39f9e0e40)"><g clip-path="url(#019eaec5f6)"><path fill="#7b0e0e" d="M 7.867188 5.886719 C 7.886719 5.867188 7.90625 5.847656 7.929688 5.832031 C 7.9375 5.824219 7.949219 5.820312 7.960938 5.8125 C 7.972656 5.804688 7.988281 5.800781 8 5.796875 C 8.078125 5.769531 8.164062 5.773438 8.242188 5.800781 C 8.316406 5.828125 8.386719 5.875 8.445312 5.933594 C 8.5 5.992188 8.546875 6.058594 8.574219 6.132812 C 8.605469 6.210938 8.621094 6.289062 8.625 6.371094 C 8.628906 6.449219 8.621094 6.53125 8.601562 6.609375 C 8.582031 6.6875 8.554688 6.761719 8.515625 6.832031 C 8.4375 6.972656 8.332031 7.097656 8.203125 7.1875 C 8.074219 7.28125 7.925781 7.347656 7.773438 7.382812 C 7.617188 7.417969 7.457031 7.429688 7.300781 7.410156 C 7.144531 7.390625 6.992188 7.34375 6.847656 7.277344 C 6.707031 7.210938 6.574219 7.125 6.460938 7.019531 C 6.34375 6.914062 6.246094 6.792969 6.164062 6.65625 C 6.140625 6.625 6.121094 6.589844 6.105469 6.554688 C 6.09375 6.539062 6.085938 6.519531 6.078125 6.503906 C 6.070312 6.484375 6.058594 6.46875 6.054688 6.449219 C 6.019531 6.378906 5.992188 6.304688 5.972656 6.230469 C 5.925781 6.082031 5.902344 5.929688 5.894531 5.773438 C 5.890625 5.617188 5.898438 5.460938 5.929688 5.308594 C 5.992188 5.003906 6.121094 4.714844 6.304688 4.46875 C 6.398438 4.34375 6.503906 4.226562 6.621094 4.125 C 6.679688 4.074219 6.738281 4.027344 6.800781 3.984375 C 6.863281 3.941406 6.929688 3.898438 7 3.859375 C 7.265625 3.703125 7.558594 3.605469 7.867188 3.566406 C 8.175781 3.527344 8.484375 3.542969 8.785156 3.613281 C 9.082031 3.683594 9.363281 3.804688 9.621094 3.976562 C 9.75 4.058594 9.875 4.15625 9.988281 4.257812 C 10.101562 4.359375 10.207031 4.472656 10.300781 4.59375 C 10.488281 4.832031 10.636719 5.101562 10.738281 5.390625 C 10.789062 5.53125 10.828125 5.683594 10.859375 5.832031 C 10.890625 5.984375 10.910156 6.136719 10.917969 6.289062 C 10.945312 6.898438 10.785156 7.511719 10.476562 8.039062 C 10.324219 8.300781 10.132812 8.546875 9.914062 8.753906 C 9.859375 8.808594 9.800781 8.859375 9.742188 8.90625 C 9.683594 8.957031 9.621094 9.003906 9.5625 9.050781 C 9.441406 9.140625 9.3125 9.21875 9.175781 9.292969 C 9.039062 9.367188 8.90625 9.433594 8.761719 9.488281 C 8.726562 9.503906 8.691406 9.515625 8.65625 9.527344 C 8.640625 9.535156 8.621094 9.542969 8.601562 9.546875 L 8.550781 9.566406 C 8.476562 9.585938 8.402344 9.609375 8.328125 9.628906 C 8.179688 9.664062 8.027344 9.691406 7.878906 9.710938 C 7.800781 9.71875 7.726562 9.726562 7.652344 9.730469 C 7.574219 9.734375 7.496094 9.738281 7.421875 9.734375 C 7.117188 9.734375 6.8125 9.695312 6.515625 9.617188 C 6.21875 9.539062 5.933594 9.429688 5.664062 9.289062 C 5.53125 9.214844 5.402344 9.136719 5.277344 9.046875 C 5.152344 8.960938 5.027344 8.863281 4.914062 8.761719 C 4.683594 8.5625 4.480469 8.335938 4.304688 8.085938 C 4.214844 7.960938 4.132812 7.828125 4.058594 7.695312 C 3.984375 7.5625 3.917969 7.425781 3.859375 7.285156 C 3.800781 7.144531 3.75 7 3.707031 6.851562 C 3.683594 6.78125 3.664062 6.703125 3.648438 6.628906 C 3.628906 6.554688 3.613281 6.480469 3.597656 6.402344 C 3.542969 6.101562 3.523438 5.792969 3.53125 5.488281 C 3.542969 5.183594 3.589844 4.878906 3.664062 4.582031 C 3.820312 3.992188 4.09375 3.417969 4.46875 2.933594 C 4.515625 2.871094 4.566406 2.8125 4.613281 2.753906 C 4.636719 2.726562 4.664062 2.695312 4.691406 2.667969 L 4.726562 2.625 L 4.769531 2.582031 L 4.847656 2.5 L 4.929688 2.421875 C 4.957031 2.394531 4.984375 2.367188 5.015625 2.34375 C 5.042969 2.316406 5.070312 2.289062 5.101562 2.265625 C 5.335938 2.066406 5.589844 1.886719 5.859375 1.734375 C 6.128906 1.582031 6.410156 1.453125 6.703125 1.355469 C 6.992188 1.257812 7.296875 1.191406 7.605469 1.148438 C 7.914062 1.105469 8.222656 1.09375 8.53125 1.109375 C 8.839844 1.128906 9.148438 1.175781 9.453125 1.25 C 10.0625 1.394531 10.640625 1.644531 11.148438 1.996094 C 11.40625 2.171875 11.644531 2.375 11.867188 2.59375 C 12.085938 2.816406 12.289062 3.058594 12.472656 3.316406 C 12.65625 3.570312 12.816406 3.839844 12.953125 4.121094 C 13.085938 4.402344 13.195312 4.699219 13.28125 5.003906 C 13.449219 5.609375 13.519531 6.242188 13.480469 6.875 C 13.441406 7.507812 13.300781 8.132812 13.058594 8.71875 C 12.941406 9.015625 12.796875 9.296875 12.628906 9.570312 C 12.460938 9.839844 12.273438 10.097656 12.066406 10.34375 C 11.855469 10.585938 11.632812 10.8125 11.390625 11.019531 C 11.144531 11.226562 10.882812 11.414062 10.609375 11.582031 C 10.335938 11.75 10.050781 11.898438 9.753906 12.019531 C 9.605469 12.082031 9.453125 12.136719 9.300781 12.1875 C 9.144531 12.238281 8.988281 12.285156 8.832031 12.324219 C 8.207031 12.480469 7.554688 12.539062 6.90625 12.503906 C 6.257812 12.464844 5.613281 12.324219 5 12.097656 C 4.382812 11.875 3.796875 11.5625 3.269531 11.167969 C 2.742188 10.773438 2.277344 10.292969 1.875 9.765625 C 1.675781 9.496094 1.492188 9.21875 1.332031 8.925781 C 1.171875 8.632812 1.03125 8.328125 0.910156 8.015625 C 0.671875 7.390625 0.519531 6.730469 0.453125 6.054688 C 0.464844 6.734375 0.578125 7.410156 0.78125 8.0625 C 0.886719 8.386719 1.007812 8.707031 1.15625 9.015625 C 1.304688 9.324219 1.480469 9.625 1.667969 9.910156 C 2.050781 10.480469 2.515625 11.003906 3.050781 11.445312 C 3.585938 11.886719 4.191406 12.246094 4.835938 12.511719 C 5.480469 12.78125 6.164062 12.957031 6.863281 13.023438 C 7.566406 13.09375 8.277344 13.050781 8.96875 12.902344 C 9.140625 12.867188 9.3125 12.820312 9.480469 12.773438 C 9.648438 12.722656 9.816406 12.667969 9.984375 12.605469 C 10.316406 12.476562 10.636719 12.324219 10.945312 12.144531 C 11.25 11.96875 11.546875 11.773438 11.824219 11.546875 C 12.105469 11.324219 12.363281 11.074219 12.601562 10.8125 C 12.835938 10.546875 13.054688 10.261719 13.25 9.960938 C 13.445312 9.660156 13.617188 9.34375 13.757812 9.015625 C 14.046875 8.355469 14.21875 7.648438 14.273438 6.929688 C 14.332031 6.214844 14.269531 5.484375 14.082031 4.785156 C 13.988281 4.4375 13.871094 4.09375 13.71875 3.765625 C 13.566406 3.433594 13.382812 3.117188 13.175781 2.820312 C 12.96875 2.527344 12.738281 2.242188 12.484375 1.984375 C 12.230469 1.726562 11.949219 1.488281 11.652344 1.277344 C 11.351562 1.066406 11.03125 0.886719 10.699219 0.734375 C 10.363281 0.585938 10.019531 0.46875 9.664062 0.378906 C 9.3125 0.292969 8.953125 0.234375 8.585938 0.214844 C 8.21875 0.191406 7.847656 0.207031 7.484375 0.257812 C 7.125 0.304688 6.765625 0.382812 6.417969 0.5 C 6.066406 0.613281 5.726562 0.765625 5.410156 0.949219 C 5.09375 1.128906 4.792969 1.34375 4.511719 1.582031 C 4.476562 1.613281 4.441406 1.644531 4.410156 1.675781 C 4.375 1.703125 4.339844 1.734375 4.308594 1.769531 L 4.207031 1.863281 L 4.019531 2.066406 C 3.988281 2.101562 3.957031 2.136719 3.925781 2.171875 C 3.871094 2.242188 3.808594 2.3125 3.753906 2.386719 C 3.53125 2.679688 3.339844 2.996094 3.175781 3.328125 C 3.019531 3.65625 2.890625 4.003906 2.796875 4.363281 C 2.710938 4.722656 2.65625 5.089844 2.648438 5.460938 C 2.640625 5.832031 2.667969 6.203125 2.738281 6.566406 C 2.773438 6.746094 2.8125 6.925781 2.867188 7.101562 C 2.921875 7.277344 2.984375 7.453125 3.058594 7.625 C 3.128906 7.796875 3.214844 7.960938 3.304688 8.121094 C 3.351562 8.203125 3.398438 8.28125 3.449219 8.355469 C 3.472656 8.394531 3.5 8.433594 3.527344 8.472656 C 3.550781 8.511719 3.578125 8.546875 3.605469 8.585938 C 3.824219 8.886719 4.078125 9.164062 4.359375 9.402344 C 4.5 9.523438 4.648438 9.632812 4.800781 9.738281 C 4.953125 9.84375 5.113281 9.9375 5.277344 10.023438 C 5.609375 10.195312 5.964844 10.324219 6.320312 10.410156 C 6.679688 10.496094 7.054688 10.539062 7.425781 10.535156 C 7.515625 10.53125 7.609375 10.527344 7.703125 10.523438 C 7.792969 10.515625 7.886719 10.503906 7.980469 10.492188 C 8.164062 10.46875 8.347656 10.429688 8.523438 10.382812 C 8.613281 10.355469 8.703125 10.332031 8.789062 10.300781 C 8.8125 10.292969 8.832031 10.285156 8.855469 10.277344 C 8.878906 10.269531 8.898438 10.261719 8.921875 10.253906 C 8.964844 10.238281 9.007812 10.222656 9.050781 10.203125 C 9.222656 10.132812 9.390625 10.046875 9.550781 9.957031 C 9.707031 9.863281 9.867188 9.761719 10.011719 9.648438 C 10.085938 9.589844 10.15625 9.53125 10.226562 9.46875 C 10.296875 9.410156 10.363281 9.347656 10.429688 9.28125 C 10.695312 9.015625 10.914062 8.714844 11.097656 8.390625 C 11.1875 8.226562 11.265625 8.058594 11.332031 7.886719 C 11.394531 7.710938 11.449219 7.535156 11.492188 7.355469 C 11.574219 6.992188 11.601562 6.617188 11.574219 6.246094 C 11.558594 6.0625 11.53125 5.878906 11.488281 5.699219 C 11.449219 5.519531 11.394531 5.34375 11.328125 5.167969 C 11.195312 4.824219 11.003906 4.496094 10.761719 4.214844 C 10.640625 4.070312 10.511719 3.941406 10.367188 3.820312 C 10.226562 3.703125 10.078125 3.59375 9.921875 3.5 C 9.605469 3.308594 9.257812 3.167969 8.894531 3.097656 C 8.710938 3.0625 8.527344 3.042969 8.34375 3.042969 C 8.25 3.039062 8.15625 3.042969 8.066406 3.050781 C 7.976562 3.058594 7.882812 3.070312 7.792969 3.085938 C 7.429688 3.144531 7.074219 3.277344 6.765625 3.476562 C 6.6875 3.523438 6.613281 3.578125 6.542969 3.632812 C 6.46875 3.6875 6.398438 3.75 6.332031 3.8125 C 6.199219 3.941406 6.082031 4.082031 5.976562 4.234375 C 5.769531 4.535156 5.628906 4.886719 5.578125 5.246094 C 5.546875 5.429688 5.542969 5.613281 5.5625 5.792969 C 5.578125 5.976562 5.617188 6.15625 5.675781 6.328125 C 5.707031 6.414062 5.742188 6.5 5.785156 6.578125 C 5.792969 6.601562 5.804688 6.621094 5.816406 6.640625 C 5.828125 6.660156 5.839844 6.679688 5.851562 6.699219 C 5.875 6.738281 5.898438 6.777344 5.921875 6.8125 C 6.027344 6.960938 6.152344 7.097656 6.289062 7.214844 C 6.570312 7.445312 6.921875 7.589844 7.28125 7.613281 C 7.464844 7.625 7.644531 7.601562 7.816406 7.554688 C 7.992188 7.5 8.152344 7.417969 8.292969 7.304688 C 8.429688 7.191406 8.542969 7.042969 8.617188 6.882812 C 8.65625 6.800781 8.683594 6.714844 8.695312 6.628906 C 8.710938 6.542969 8.714844 6.453125 8.707031 6.363281 C 8.699219 6.273438 8.671875 6.1875 8.636719 6.109375 C 8.597656 6.027344 8.542969 5.957031 8.476562 5.898438 C 8.414062 5.839844 8.332031 5.792969 8.25 5.773438 C 8.164062 5.75 8.074219 5.753906 7.992188 5.785156 C 7.980469 5.792969 7.96875 5.796875 7.957031 5.804688 C 7.945312 5.8125 7.933594 5.820312 7.925781 5.828125 C 7.902344 5.847656 7.882812 5.867188 7.867188 5.886719 " fill-opacity="1" fill-rule="nonzero"/></g></g></g></g><g mask="url(#51bb5d09bf)"><g transform="matrix(1, 0, 0, 1, 4, 4)"><g clip-path="url(#2edff0f804)"><g clip-path="url(#e3688ca200)"><g clip-path="url(#3f6f07121a)"><path fill="url(#32d096c7a9)" d="M 0.390625 28.648438 L 28.40625 28.648438 L 28.40625 0.628906 L 0.390625 0.628906 Z M 0.390625 28.648438 " fill-rule="nonzero"/></g></g></g></g></g><g mask="url(#e107f2ae29)"><g transform="matrix(1, 0, 0, 1, 2, 2)"><g clip-path="url(#e607182c98)"><g clip-path="url(#642681075b)"><path fill="#520909" d="M 19.632812 30.703125 C 19.152344 30.835938 18.660156 30.941406 18.160156 31.019531 C 16.382812 31.296875 14.589844 31.21875 12.832031 30.777344 C 12.324219 30.652344 11.828125 30.496094 11.34375 30.316406 C 12.605469 30.480469 13.878906 30.464844 15.144531 30.265625 C 16.859375 29.996094 18.488281 29.40625 19.984375 28.507812 C 21.480469 27.609375 22.765625 26.449219 23.808594 25.058594 C 24.890625 23.621094 25.660156 22 26.101562 20.242188 C 26.449219 18.84375 26.570312 17.425781 26.46875 16.011719 C 26.460938 16.238281 26.445312 16.46875 26.425781 16.695312 C 26.277344 18.425781 25.800781 20.09375 25.007812 21.648438 C 24.214844 23.199219 23.148438 24.566406 21.835938 25.703125 C 20.476562 26.882812 18.914062 27.765625 17.1875 28.324219 C 15.464844 28.886719 13.679688 29.089844 11.886719 28.9375 C 10.15625 28.789062 8.492188 28.308594 6.9375 27.519531 C 5.382812 26.726562 4.019531 25.660156 2.878906 24.347656 C 2.042969 23.378906 1.351562 22.308594 0.824219 21.152344 C 0.925781 21.65625 1.058594 22.160156 1.21875 22.65625 C 1.78125 24.378906 2.664062 25.945312 3.839844 27.304688 C 4.980469 28.617188 6.34375 29.683594 7.898438 30.476562 C 9.453125 31.265625 11.117188 31.746094 12.847656 31.894531 C 14.640625 32.046875 16.425781 31.84375 18.148438 31.28125 C 18.660156 31.117188 19.152344 30.921875 19.632812 30.703125 " fill-opacity="1" fill-rule="nonzero"/></g><g clip-path="url(#d28efeadd3)"><path fill="#7b0e0e" d="M 4.011719 24.257812 C 3.734375 23.839844 3.484375 23.40625 3.253906 22.957031 C 2.4375 21.351562 1.960938 19.621094 1.835938 17.8125 C 1.800781 17.289062 1.792969 16.769531 1.816406 16.253906 C 2.050781 17.507812 2.457031 18.714844 3.039062 19.855469 C 3.824219 21.402344 4.890625 22.769531 6.207031 23.914062 C 7.523438 25.058594 9.023438 25.925781 10.667969 26.488281 C 12.371094 27.070312 14.148438 27.304688 15.957031 27.175781 C 17.394531 27.078125 18.78125 26.753906 20.09375 26.21875 C 19.875 26.28125 19.652344 26.339844 19.429688 26.390625 C 17.738281 26.785156 16.003906 26.84375 14.28125 26.570312 C 12.558594 26.300781 10.933594 25.707031 9.445312 24.808594 C 7.902344 23.878906 6.582031 22.667969 5.515625 21.199219 C 4.449219 19.734375 3.703125 18.101562 3.296875 16.347656 C 2.902344 14.65625 2.84375 12.921875 3.113281 11.199219 C 3.386719 9.476562 3.980469 7.851562 4.878906 6.363281 C 5.539062 5.265625 6.34375 4.28125 7.28125 3.417969 C 6.832031 3.671875 6.394531 3.953125 5.972656 4.261719 C 4.503906 5.328125 3.289062 6.648438 2.363281 8.191406 C 1.464844 9.675781 0.871094 11.304688 0.597656 13.027344 C 0.328125 14.75 0.386719 16.480469 0.78125 18.175781 C 1.1875 19.925781 1.933594 21.558594 3 23.027344 C 3.316406 23.460938 3.652344 23.871094 4.011719 24.257812 " fill-opacity="1" fill-rule="nonzero"/></g><g clip-path="url(#eb6b3ec707)"><path fill="#520909" d="M 5.308594 7.410156 C 5.621094 7.019531 5.957031 6.644531 6.316406 6.289062 C 7.589844 5.015625 9.089844 4.027344 10.769531 3.347656 C 11.253906 3.152344 11.746094 2.988281 12.242188 2.847656 C 11.125 3.457031 10.105469 4.21875 9.199219 5.125 C 7.96875 6.351562 7 7.785156 6.316406 9.390625 C 5.636719 10.996094 5.277344 12.691406 5.246094 14.429688 C 5.21875 16.226562 5.546875 17.992188 6.226562 19.675781 C 6.765625 21.007812 7.5 22.226562 8.417969 23.3125 C 8.289062 23.121094 8.164062 22.929688 8.046875 22.734375 C 7.152344 21.246094 6.558594 19.617188 6.285156 17.894531 C 6.011719 16.171875 6.074219 14.441406 6.464844 12.746094 C 6.871094 10.996094 7.621094 9.363281 8.683594 7.894531 C 9.75 6.429688 11.074219 5.214844 12.613281 4.285156 C 14.101562 3.386719 15.730469 2.796875 17.453125 2.523438 C 19.175781 2.25 20.90625 2.3125 22.597656 2.703125 C 23.847656 2.992188 25.03125 3.457031 26.140625 4.082031 C 25.761719 3.730469 25.359375 3.402344 24.9375 3.09375 C 23.46875 2.03125 21.835938 1.285156 20.082031 0.875 C 18.390625 0.484375 16.660156 0.421875 14.9375 0.695312 C 13.214844 0.96875 11.585938 1.5625 10.097656 2.457031 C 8.558594 3.386719 7.234375 4.601562 6.167969 6.066406 C 5.855469 6.5 5.570312 6.949219 5.308594 7.410156 " fill-opacity="1" fill-rule="nonzero"/></g><g clip-path="url(#eac43213b6)"><path fill="#3e0707" d="M 21.738281 3.4375 C 22.203125 3.617188 22.664062 3.820312 23.113281 4.046875 C 24.714844 4.867188 26.121094 5.988281 27.285156 7.375 C 27.621094 7.777344 27.929688 8.191406 28.214844 8.625 C 27.292969 7.75 26.253906 7.011719 25.113281 6.429688 C 23.566406 5.640625 21.898438 5.160156 20.164062 5.007812 C 18.425781 4.859375 16.703125 5.039062 15.042969 5.550781 C 13.320312 6.078125 11.746094 6.9375 10.355469 8.101562 C 9.253906 9.027344 8.320312 10.101562 7.574219 11.308594 C 7.714844 11.128906 7.859375 10.949219 8.007812 10.777344 C 9.148438 9.464844 10.511719 8.398438 12.066406 7.605469 C 13.621094 6.8125 15.285156 6.335938 17.015625 6.1875 C 18.808594 6.03125 20.59375 6.238281 22.316406 6.800781 C 24.042969 7.359375 25.605469 8.242188 26.964844 9.421875 C 28.277344 10.558594 29.34375 11.921875 30.136719 13.476562 C 30.929688 15.03125 31.40625 16.695312 31.554688 18.425781 C 31.664062 19.703125 31.59375 20.972656 31.339844 22.222656 C 31.554688 21.753906 31.742188 21.269531 31.902344 20.769531 C 32.464844 19.046875 32.671875 17.261719 32.515625 15.472656 C 32.367188 13.738281 31.890625 12.074219 31.097656 10.519531 C 30.304688 8.964844 29.238281 7.601562 27.925781 6.464844 C 26.566406 5.285156 25.003906 4.402344 23.277344 3.84375 C 22.769531 3.675781 22.253906 3.542969 21.738281 3.4375 " fill-opacity="1" fill-rule="nonzero"/></g><g clip-path="url(#175102aedc)"><path fill="#7b0e0e" d="M 30.589844 17.835938 C 30.566406 18.335938 30.515625 18.835938 30.433594 19.332031 C 30.152344 21.109375 29.519531 22.789062 28.558594 24.328125 C 28.28125 24.773438 27.980469 25.195312 27.660156 25.597656 C 28.207031 24.449219 28.585938 23.234375 28.789062 21.96875 C 29.0625 20.253906 29 18.523438 28.609375 16.824219 C 28.214844 15.125 27.511719 13.539062 26.511719 12.117188 C 25.480469 10.644531 24.175781 9.414062 22.636719 8.453125 C 21.417969 7.6875 20.105469 7.132812 18.726562 6.796875 C 18.941406 6.875 19.15625 6.957031 19.367188 7.046875 C 20.96875 7.722656 22.40625 8.691406 23.636719 9.925781 C 24.871094 11.160156 25.839844 12.59375 26.515625 14.195312 C 27.21875 15.851562 27.574219 17.613281 27.574219 19.425781 C 27.574219 21.238281 27.21875 22.996094 26.515625 24.65625 C 25.839844 26.253906 24.871094 27.691406 23.636719 28.925781 C 22.40625 30.160156 20.96875 31.128906 19.367188 31.804688 C 18.1875 32.304688 16.957031 32.625 15.691406 32.773438 C 16.207031 32.832031 16.722656 32.859375 17.246094 32.859375 C 19.058594 32.859375 20.820312 32.503906 22.476562 31.804688 C 24.078125 31.128906 25.515625 30.160156 26.746094 28.925781 C 27.980469 27.691406 28.949219 26.253906 29.625 24.65625 C 30.328125 22.996094 30.683594 21.238281 30.683594 19.425781 C 30.683594 18.890625 30.652344 18.359375 30.589844 17.835938 " fill-opacity="1" fill-rule="nonzero"/></g></g></g></g><g mask="url(#f0fe3c3d16)"><g transform="matrix(1, 0, 0, 1, 9, 8)"><g clip-path="url(#b9b287c65f)"><g clip-path="url(#1e73c4a3e5)"><path fill="#520909" d="M 11.296875 18.132812 C 11.019531 18.207031 10.738281 18.265625 10.453125 18.3125 C 9.433594 18.472656 8.40625 18.425781 7.402344 18.175781 C 7.109375 18.101562 6.828125 18.011719 6.550781 17.910156 C 7.273438 18.003906 8 17.996094 8.726562 17.882812 C 9.707031 17.726562 10.640625 17.386719 11.496094 16.875 C 12.351562 16.359375 13.089844 15.695312 13.6875 14.902344 C 14.304688 14.078125 14.746094 13.148438 15 12.140625 C 15.199219 11.339844 15.269531 10.53125 15.207031 9.71875 C 15.203125 9.851562 15.195312 9.980469 15.183594 10.113281 C 15.097656 11.101562 14.828125 12.058594 14.371094 12.945312 C 13.917969 13.835938 13.308594 14.617188 12.558594 15.269531 C 11.777344 15.945312 10.882812 16.449219 9.894531 16.769531 C 8.910156 17.089844 7.886719 17.207031 6.863281 17.121094 C 5.871094 17.035156 4.917969 16.761719 4.027344 16.308594 C 3.136719 15.855469 2.355469 15.242188 1.703125 14.492188 C 1.222656 13.9375 0.828125 13.324219 0.527344 12.660156 C 0.585938 12.953125 0.660156 13.238281 0.753906 13.523438 C 1.074219 14.511719 1.578125 15.40625 2.253906 16.183594 C 2.90625 16.9375 3.6875 17.546875 4.578125 18 C 5.464844 18.453125 6.421875 18.726562 7.410156 18.8125 C 8.4375 18.902344 9.457031 18.785156 10.445312 18.464844 C 10.738281 18.367188 11.019531 18.257812 11.296875 18.132812 " fill-opacity="1" fill-rule="nonzero"/></g><g clip-path="url(#a5898a91e3)"><path fill="#7b0e0e" d="M 2.351562 14.441406 C 2.195312 14.203125 2.050781 13.953125 1.917969 13.695312 C 1.453125 12.777344 1.179688 11.785156 1.105469 10.75 C 1.085938 10.453125 1.082031 10.15625 1.09375 9.859375 C 1.226562 10.578125 1.460938 11.265625 1.792969 11.921875 C 2.246094 12.808594 2.855469 13.589844 3.609375 14.242188 C 4.363281 14.898438 5.222656 15.394531 6.164062 15.71875 C 7.136719 16.050781 8.15625 16.183594 9.191406 16.113281 C 10.015625 16.054688 10.808594 15.871094 11.558594 15.5625 C 11.433594 15.601562 11.308594 15.632812 11.179688 15.664062 C 10.210938 15.886719 9.21875 15.921875 8.234375 15.765625 C 7.246094 15.609375 6.3125 15.269531 5.460938 14.757812 C 4.578125 14.226562 3.824219 13.53125 3.210938 12.691406 C 2.601562 11.851562 2.175781 10.914062 1.941406 9.910156 C 1.71875 8.941406 1.683594 7.953125 1.839844 6.964844 C 1.996094 5.980469 2.332031 5.046875 2.847656 4.195312 C 3.226562 3.566406 3.6875 3.003906 4.222656 2.507812 C 3.964844 2.65625 3.714844 2.816406 3.472656 2.992188 C 2.632812 3.601562 1.9375 4.359375 1.40625 5.242188 C 0.894531 6.09375 0.554688 7.023438 0.398438 8.011719 C 0.242188 8.996094 0.277344 9.988281 0.5 10.957031 C 0.734375 11.960938 1.164062 12.898438 1.773438 13.738281 C 1.953125 13.984375 2.144531 14.21875 2.351562 14.441406 " fill-opacity="1" fill-rule="nonzero"/></g><g clip-path="url(#aeef806840)"><path fill="#520909" d="M 3.09375 4.792969 C 3.273438 4.570312 3.464844 4.355469 3.671875 4.152344 C 4.398438 3.425781 5.257812 2.859375 6.21875 2.46875 C 6.5 2.359375 6.78125 2.261719 7.066406 2.183594 C 6.425781 2.53125 5.839844 2.96875 5.320312 3.484375 C 4.617188 4.1875 4.0625 5.011719 3.671875 5.929688 C 3.28125 6.847656 3.074219 7.820312 3.058594 8.8125 C 3.042969 9.84375 3.230469 10.855469 3.621094 11.816406 C 3.929688 12.582031 4.351562 13.277344 4.875 13.898438 C 4.800781 13.792969 4.730469 13.679688 4.664062 13.566406 C 4.148438 12.714844 3.808594 11.785156 3.652344 10.796875 C 3.496094 9.8125 3.53125 8.820312 3.757812 7.851562 C 3.988281 6.847656 4.417969 5.914062 5.027344 5.074219 C 5.636719 4.234375 6.394531 3.539062 7.277344 3.007812 C 8.128906 2.492188 9.0625 2.152344 10.046875 1.996094 C 11.035156 1.839844 12.023438 1.875 12.992188 2.101562 C 13.707031 2.265625 14.386719 2.53125 15.023438 2.890625 C 14.804688 2.6875 14.574219 2.5 14.332031 2.324219 C 13.492188 1.714844 12.558594 1.289062 11.554688 1.054688 C 10.585938 0.828125 9.59375 0.792969 8.605469 0.949219 C 7.621094 1.105469 6.6875 1.445312 5.835938 1.960938 C 4.953125 2.492188 4.199219 3.1875 3.585938 4.027344 C 3.40625 4.273438 3.242188 4.53125 3.09375 4.792969 " fill-opacity="1" fill-rule="nonzero"/></g><g clip-path="url(#1378a9976d)"><path fill="#3e0707" d="M 12.5 2.519531 C 12.769531 2.621094 13.03125 2.738281 13.289062 2.871094 C 14.207031 3.339844 15.007812 3.980469 15.675781 4.777344 C 15.871094 5.003906 16.046875 5.242188 16.210938 5.488281 C 15.679688 4.988281 15.085938 4.566406 14.433594 4.234375 C 13.546875 3.78125 12.59375 3.507812 11.597656 3.421875 C 10.605469 3.332031 9.617188 3.4375 8.667969 3.730469 C 7.683594 4.03125 6.78125 4.523438 5.984375 5.191406 C 5.351562 5.71875 4.820312 6.335938 4.390625 7.027344 C 4.472656 6.921875 4.554688 6.824219 4.640625 6.722656 C 5.292969 5.972656 6.074219 5.359375 6.964844 4.90625 C 7.851562 4.453125 8.808594 4.179688 9.796875 4.09375 C 10.824219 4.007812 11.84375 4.125 12.832031 4.445312 C 13.820312 4.765625 14.714844 5.269531 15.492188 5.945312 C 16.246094 6.597656 16.855469 7.378906 17.308594 8.269531 C 17.761719 9.160156 18.035156 10.113281 18.121094 11.101562 C 18.183594 11.832031 18.144531 12.5625 18 13.277344 C 18.121094 13.007812 18.230469 12.730469 18.320312 12.445312 C 18.640625 11.457031 18.761719 10.4375 18.671875 9.410156 C 18.585938 8.417969 18.3125 7.464844 17.859375 6.574219 C 17.40625 5.6875 16.796875 4.90625 16.042969 4.253906 C 15.265625 3.578125 14.371094 3.074219 13.382812 2.753906 C 13.089844 2.65625 12.796875 2.582031 12.5 2.519531 " fill-opacity="1" fill-rule="nonzero"/></g><g clip-path="url(#c1935f08ea)"><path fill="#7b0e0e" d="M 17.570312 10.761719 C 17.554688 11.050781 17.527344 11.335938 17.480469 11.621094 C 17.316406 12.640625 16.957031 13.601562 16.40625 14.480469 C 16.246094 14.734375 16.074219 14.976562 15.890625 15.210938 C 16.203125 14.550781 16.421875 13.855469 16.535156 13.132812 C 16.695312 12.148438 16.660156 11.15625 16.433594 10.183594 C 16.210938 9.210938 15.804688 8.304688 15.234375 7.492188 C 14.644531 6.648438 13.898438 5.941406 13.015625 5.390625 C 12.316406 4.953125 11.566406 4.636719 10.777344 4.441406 C 10.902344 4.488281 11.023438 4.535156 11.144531 4.585938 C 12.058594 4.972656 12.882812 5.527344 13.589844 6.234375 C 14.292969 6.941406 14.847656 7.765625 15.238281 8.679688 C 15.636719 9.628906 15.839844 10.636719 15.839844 11.675781 C 15.839844 12.710938 15.636719 13.71875 15.238281 14.667969 C 14.847656 15.585938 14.292969 16.40625 13.589844 17.113281 C 12.882812 17.820312 12.058594 18.375 11.144531 18.761719 C 10.46875 19.046875 9.765625 19.234375 9.039062 19.316406 C 9.332031 19.347656 9.628906 19.367188 9.929688 19.367188 C 10.96875 19.367188 11.976562 19.164062 12.925781 18.761719 C 13.839844 18.375 14.664062 17.820312 15.367188 17.113281 C 16.074219 16.40625 16.628906 15.585938 17.015625 14.667969 C 17.417969 13.71875 17.621094 12.710938 17.621094 11.675781 C 17.621094 11.367188 17.605469 11.0625 17.570312 10.761719 " fill-opacity="1" fill-rule="nonzero"/></g></g></g></g><g mask="url(#56ddc5a0bf)"><g transform="matrix(1, 0, 0, 1, 13, 13)"><g clip-path="url(#d3c68c4066)"><g clip-path="url(#c78985bdf3)"><g clip-path="url(#94280db5a8)"><g clip-path="url(#ec355273f5)"><path fill="#520909" d="M 1.699219 5.601562 C 1.695312 5.472656 1.699219 5.34375 1.707031 5.214844 C 1.742188 4.753906 1.867188 4.3125 2.078125 3.898438 C 2.140625 3.777344 2.207031 3.664062 2.28125 3.550781 C 2.167969 3.859375 2.097656 4.175781 2.070312 4.503906 C 2.039062 4.949219 2.089844 5.390625 2.226562 5.816406 C 2.363281 6.242188 2.578125 6.632812 2.863281 6.976562 C 3.160156 7.332031 3.519531 7.617188 3.933594 7.832031 C 4.265625 8 4.613281 8.113281 4.972656 8.171875 C 4.914062 8.15625 4.859375 8.136719 4.800781 8.121094 C 4.378906 7.980469 3.988281 7.765625 3.648438 7.476562 C 3.304688 7.1875 3.027344 6.839844 2.820312 6.445312 C 2.605469 6.035156 2.476562 5.59375 2.4375 5.128906 C 2.398438 4.667969 2.449219 4.207031 2.59375 3.769531 C 2.734375 3.34375 2.949219 2.957031 3.238281 2.617188 C 3.527344 2.273438 3.875 1.996094 4.269531 1.785156 C 4.558594 1.632812 4.867188 1.523438 5.1875 1.460938 C 5.054688 1.457031 4.921875 1.460938 4.789062 1.472656 C 4.324219 1.511719 3.882812 1.640625 3.472656 1.855469 C 3.078125 2.0625 2.734375 2.339844 2.445312 2.683594 C 2.15625 3.023438 1.9375 3.414062 1.800781 3.835938 C 1.65625 4.273438 1.601562 4.734375 1.640625 5.195312 C 1.652344 5.332031 1.671875 5.46875 1.699219 5.601562 " fill-opacity="1" fill-rule="nonzero"/></g></g></g><g clip-path="url(#7bf31ea34e)"><g clip-path="url(#22b1ca7456)"><g clip-path="url(#9c791be299)"><path fill="#7b0e0e" d="M 4.226562 2.074219 C 4.34375 2.03125 4.46875 1.992188 4.59375 1.960938 C 5.042969 1.851562 5.503906 1.835938 5.964844 1.910156 C 6.097656 1.929688 6.226562 1.960938 6.355469 1.996094 C 6.027344 1.980469 5.703125 2.011719 5.382812 2.089844 C 4.949219 2.195312 4.546875 2.382812 4.183594 2.644531 C 3.820312 2.90625 3.515625 3.230469 3.277344 3.609375 C 3.03125 4 2.871094 4.429688 2.796875 4.890625 C 2.738281 5.253906 2.734375 5.621094 2.792969 5.980469 C 2.789062 5.921875 2.789062 5.863281 2.789062 5.804688 C 2.789062 5.355469 2.875 4.921875 3.046875 4.507812 C 3.214844 4.09375 3.457031 3.71875 3.769531 3.398438 C 4.089844 3.070312 4.472656 2.808594 4.902344 2.628906 C 5.332031 2.449219 5.78125 2.359375 6.246094 2.359375 C 6.691406 2.359375 7.125 2.445312 7.539062 2.617188 C 7.957031 2.785156 8.328125 3.027344 8.648438 3.339844 C 8.882812 3.570312 9.082031 3.828125 9.242188 4.113281 C 9.203125 3.984375 9.160156 3.859375 9.109375 3.738281 C 8.925781 3.308594 8.667969 2.925781 8.335938 2.605469 C 8.019531 2.292969 7.644531 2.050781 7.230469 1.878906 C 6.816406 1.710938 6.378906 1.625 5.933594 1.625 C 5.472656 1.621094 5.019531 1.714844 4.59375 1.894531 C 4.464844 1.949219 4.34375 2.007812 4.226562 2.074219 " fill-opacity="1" fill-rule="nonzero"/></g></g></g><g clip-path="url(#f8270c17a9)"><g clip-path="url(#2ef1862b77)"><g clip-path="url(#2549a184e1)"><path fill="#520909" d="M 8.359375 3.386719 C 8.4375 3.488281 8.511719 3.59375 8.582031 3.703125 C 8.824219 4.097656 8.984375 4.527344 9.054688 4.988281 C 9.074219 5.121094 9.089844 5.253906 9.09375 5.386719 C 9.007812 5.070312 8.875 4.773438 8.703125 4.492188 C 8.46875 4.113281 8.167969 3.785156 7.804688 3.523438 C 7.445312 3.257812 7.042969 3.070312 6.609375 2.960938 C 6.160156 2.847656 5.699219 2.824219 5.242188 2.898438 C 4.875 2.953125 4.527344 3.066406 4.203125 3.230469 C 4.257812 3.210938 4.3125 3.191406 4.371094 3.171875 C 4.792969 3.035156 5.234375 2.984375 5.683594 3.015625 C 6.128906 3.046875 6.558594 3.164062 6.957031 3.363281 C 7.371094 3.566406 7.738281 3.847656 8.039062 4.203125 C 8.34375 4.554688 8.570312 4.957031 8.710938 5.394531 C 8.851562 5.820312 8.902344 6.261719 8.871094 6.707031 C 8.835938 7.152344 8.71875 7.582031 8.523438 7.984375 C 8.378906 8.277344 8.191406 8.546875 7.972656 8.789062 C 8.082031 8.710938 8.1875 8.632812 8.289062 8.542969 C 8.640625 8.238281 8.921875 7.875 9.128906 7.460938 C 9.324219 7.0625 9.441406 6.632812 9.472656 6.1875 C 9.507812 5.738281 9.453125 5.296875 9.316406 4.875 C 9.175781 4.433594 8.949219 4.03125 8.644531 3.679688 C 8.554688 3.574219 8.460938 3.476562 8.359375 3.386719 " fill-opacity="1" fill-rule="nonzero"/></g></g></g><g clip-path="url(#8b24d07ed4)"><g clip-path="url(#543941f502)"><g clip-path="url(#3d6f356f1d)"><path fill="#3e0707" d="M 8.390625 7.722656 C 8.316406 7.832031 8.242188 7.933594 8.15625 8.03125 C 7.859375 8.386719 7.496094 8.671875 7.082031 8.878906 C 6.960938 8.941406 6.839844 8.992188 6.714844 9.039062 C 6.988281 8.859375 7.230469 8.644531 7.445312 8.394531 C 7.734375 8.050781 7.949219 7.664062 8.089844 7.238281 C 8.230469 6.8125 8.285156 6.371094 8.253906 5.925781 C 8.222656 5.464844 8.101562 5.023438 7.890625 4.605469 C 7.726562 4.277344 7.511719 3.980469 7.253906 3.722656 C 7.289062 3.769531 7.324219 3.816406 7.359375 3.863281 C 7.621094 4.226562 7.808594 4.628906 7.914062 5.0625 C 8.023438 5.5 8.042969 5.941406 7.980469 6.382812 C 7.914062 6.839844 7.757812 7.273438 7.515625 7.671875 C 7.273438 8.070312 6.964844 8.410156 6.589844 8.679688 C 6.226562 8.941406 5.824219 9.128906 5.390625 9.234375 C 4.953125 9.34375 4.511719 9.363281 4.070312 9.300781 C 3.742188 9.253906 3.429688 9.160156 3.132812 9.023438 C 3.238281 9.105469 3.347656 9.179688 3.460938 9.25 C 3.859375 9.492188 4.292969 9.648438 4.75 9.714844 C 5.191406 9.777344 5.636719 9.753906 6.070312 9.648438 C 6.507812 9.542969 6.910156 9.355469 7.273438 9.09375 C 7.644531 8.824219 7.957031 8.484375 8.199219 8.085938 C 8.269531 7.96875 8.332031 7.847656 8.390625 7.722656 " fill-opacity="1" fill-rule="nonzero"/></g></g></g><g clip-path="url(#d1a862aeb8)"><g clip-path="url(#916d8df0a5)"><g clip-path="url(#71f078f4b9)"><g clip-path="url(#186bb957e5)"><g clip-path="url(#829861aaa4)"><path fill="#7b0e0e" d="M 4.273438 9.09375 C 4.148438 9.058594 4.027344 9.015625 3.910156 8.96875 C 3.480469 8.792969 3.097656 8.535156 2.769531 8.207031 C 2.675781 8.109375 2.585938 8.011719 2.503906 7.90625 C 2.761719 8.109375 3.042969 8.277344 3.347656 8.402344 C 3.757812 8.570312 4.195312 8.65625 4.640625 8.65625 C 5.089844 8.660156 5.527344 8.574219 5.941406 8.410156 C 6.371094 8.238281 6.753906 7.984375 7.085938 7.65625 C 7.347656 7.394531 7.5625 7.101562 7.726562 6.777344 C 7.695312 6.824219 7.660156 6.875 7.628906 6.921875 C 7.363281 7.28125 7.039062 7.582031 6.65625 7.820312 C 6.277344 8.054688 5.859375 8.214844 5.421875 8.289062 C 4.964844 8.367188 4.507812 8.351562 4.054688 8.246094 C 3.601562 8.140625 3.179688 7.949219 2.808594 7.675781 C 2.449219 7.414062 2.144531 7.085938 1.910156 6.707031 C 1.671875 6.324219 1.515625 5.910156 1.441406 5.472656 C 1.382812 5.148438 1.375 4.820312 1.414062 4.496094 C 1.367188 4.621094 1.332031 4.75 1.300781 4.878906 C 1.195312 5.332031 1.179688 5.792969 1.257812 6.246094 C 1.332031 6.6875 1.492188 7.101562 1.726562 7.484375 C 1.964844 7.863281 2.265625 8.191406 2.625 8.453125 C 3 8.726562 3.417969 8.917969 3.871094 9.023438 C 4.003906 9.054688 4.140625 9.078125 4.273438 9.09375 " fill-opacity="1" fill-rule="nonzero"/></g></g></g></g></g></g></g></g></svg>